<?xml version="1.0" encoding="UTF-8" standalone="no"?>
<!-- Generator: Adobe Illustrator 16.0.0, SVG Export Plug-In . SVG Version: 6.00 Build 0)  -->

<svg
   xmlns:dc="http://purl.org/dc/elements/1.1/"
   xmlns:cc="http://creativecommons.org/ns#"
   xmlns:rdf="http://www.w3.org/1999/02/22-rdf-syntax-ns#"
   xmlns:svg="http://www.w3.org/2000/svg"
   xmlns="http://www.w3.org/2000/svg"
   xmlns:sodipodi="http://sodipodi.sourceforge.net/DTD/sodipodi-0.dtd"
   xmlns:inkscape="http://www.inkscape.org/namespaces/inkscape"
   version="1.1"
   id="Capa_1"
   x="0px"
   y="0px"
   width="239.39566"
   height="61.944149"
   viewBox="0 0 239.39565 61.944148"
   xml:space="preserve"
   inkscape:version="0.48.4 r9939"
   sodipodi:docname="logo_schooltek_003.svg"
   inkscape:export-filename="/home/diego/Documentos/schoolTec/logos/logo_schooltek_003_page.png"
   inkscape:export-xdpi="9.9799995"
   inkscape:export-ydpi="9.9799995"><metadata
     id="metadata17"><rdf:RDF><cc:Work
         rdf:about=""><dc:format>image/svg+xml</dc:format><dc:type
           rdf:resource="http://purl.org/dc/dcmitype/StillImage" /><dc:title></dc:title></cc:Work></rdf:RDF></metadata><defs
     id="defs15" /><sodipodi:namedview
     pagecolor="#ffffff"
     bordercolor="#666666"
     borderopacity="1"
     objecttolerance="10"
     gridtolerance="10"
     guidetolerance="10"
     inkscape:pageopacity="0"
     inkscape:pageshadow="2"
     inkscape:window-width="1366"
     inkscape:window-height="718"
     id="namedview13"
     showgrid="false"
     inkscape:zoom="0.22552053"
     inkscape:cx="-651.24372"
     inkscape:cy="30.97208"
     inkscape:window-x="0"
     inkscape:window-y="0"
     inkscape:window-maximized="1"
     inkscape:current-layer="Capa_1"
     fit-margin-top="0"
     fit-margin-left="0"
     fit-margin-right="0"
     fit-margin-bottom="0" /><g
     id="g3766"
     style="fill:#6cb670;fill-opacity:1;stroke:none"
     transform="matrix(0.12703209,0,0,0.12703209,-1.2685993e-5,0)"><g
       id="g5"
       style="fill:#6cb670;fill-opacity:1;stroke:none"><path
         d="m 78.654,468.138 h 1727.217 c 16.26,0 31.041,-6.658 41.771,-17.389 10.723,-10.74 17.377,-25.518 17.377,-41.766 V 78.647 c 0,-16.256 -6.654,-31.042 -17.377,-41.769 -10.73,-10.726 -25.512,-17.382 -41.771,-17.382 H 78.654 c -16.26,0 -31.037,6.656 -41.775,17.382 C 26.158,47.605 19.507,62.392 19.507,78.647 v 330.336 c 0,16.248 6.651,31.025 17.372,41.766 10.738,10.73 25.516,17.389 41.775,17.389 l 0,0 z m 1727.217,19.488 H 78.654 C 57.02,487.626 37.353,478.79 23.1,464.532 8.852,450.29 0,430.63 0,408.983 V 78.647 C 0,57.017 8.852,37.344 23.101,23.094 37.354,8.842 57.021,0 78.654,0 h 1727.217 c 21.652,0 41.299,8.842 55.568,23.095 14.232,14.25 23.09,33.923 23.09,55.553 v 330.336 c 0,21.646 -8.857,41.307 -23.09,55.549 -14.269,14.257 -33.916,23.093 -55.568,23.093 z"
         id="path7"
         inkscape:connector-curvature="0"
         style="fill:#6cb670;fill-opacity:1;fill-rule:evenodd;stroke:none" /></g><g
       id="g9"
       style="fill:#6cb670;fill-opacity:1;stroke:none"><path
         d="m 186.861,338.296 c 5.748,1.646 10.882,2.506 15.389,2.506 7.648,0 14.272,-1.865 19.781,-5.654 5.508,-3.783 8.26,-8.268 8.26,-13.582 0,-5.365 -1.79,-9.844 -5.366,-13.422 -3.519,-3.514 -11.229,-8.686 -23.087,-15.434 -23.687,-13.229 -39.191,-24.523 -46.487,-33.895 -7.386,-9.367 -11.028,-19.637 -11.028,-30.652 0,-14.33 5.506,-25.969 16.606,-34.994 12.838,-10.439 30.111,-14.309 47.276,-13.662 12.962,0.498 36.875,4.533 45.771,15.205 8.289,9.932 7.048,24.197 -1.834,26.719 -2.649,0.754 -8.153,1.172 -12.707,-1.074 -13.695,-6.76 -36.503,-14.188 -50.545,-4.32 -4.339,3.037 -6.539,7.1 -6.539,12.127 0,4.338 1.995,8.471 5.989,12.395 3.996,3.926 10.953,8.686 20.952,14.195 l 13.078,7.508 c 30.923,17.492 46.369,36.922 46.369,58.209 0,15.223 -5.938,27.697 -17.852,37.479 -11.915,9.777 -27.205,14.662 -45.868,14.662 -11.032,0 -20.879,-1.162 -29.49,-3.506 -14.61,-4.09 -35.296,-12.438 -32.438,-31.336 0.779,-5.125 4.18,-9.229 10.943,-10.295 10.087,-1.621 21.478,7.538 32.827,10.821 l 0,0 z m 460.813,12.598 c 0,-15.504 0,-31 0,-46.516 v -9.082 -31.934 c 0,-21.627 -2.414,-37.885 -7.16,-48.771 -4.762,-10.945 -12.059,-19.49 -21.908,-25.695 -9.779,-6.195 -20.871,-9.297 -33.268,-9.297 -22.736,0 -41.75,9.365 -57.121,28.104 0,-23.781 0,-47.564 0,-71.347 0,-28.202 -36.443,-28.761 -36.773,-0.059 0,56.028 0,112.048 0,168.071 v 46.463 c 0,28.205 36.453,28.758 36.773,0.059 v -46.521 -68.355 c 8.623,-9.707 16.473,-16.672 23.566,-20.803 7.164,-4.201 14.738,-6.268 22.816,-6.268 10.879,0 19.656,4.166 26.297,12.467 6.652,8.301 9.994,19.225 9.994,32.855 0,32.191 0,64.385 0,96.574 10e-4,28.197 36.452,28.76 36.784,0.055 l 0,0 z m 1019.24,-76.506 39.436,-45.332 29.498,-32.406 c 17.451,-19.895 -7.924,-42.857 -25.92,-22.807 l -28.742,32.762 -61.449,68.258 c 29.246,29.768 58.541,59.553 87.807,89.26 19.061,17.973 43.09,-5.717 24.799,-24.348 l -0.498,-0.523 -64.931,-64.864 0,0 z m -48.828,76.502 V 329.28 304.368 182.819 136.355 c 0,-28.202 -36.465,-28.761 -36.799,-0.059 v 46.522 121.549 24.912 21.551 c 0,28.206 36.459,28.759 36.799,0.06 l 0,0 z m -425.391,0 v -12.607 -33.914 -121.55 -46.464 l -0.012,-0.989 c -0.828,-26.919 -35.645,-27.426 -36.727,0 l -0.037,0.931 v 46.522 121.549 33.914 12.549 c 10e-4,28.205 36.44,28.758 36.776,0.059 l 0,0 z m 135.069,-167.155 h -39.094 v -38.447 l -69.035,67.857 v 3.646 h 32.244 v 82.316 c 0,16.887 0.766,28.256 2.348,34.244 1.502,5.996 3.449,10.818 5.709,14.537 2.271,3.721 5.213,6.957 8.682,9.992 9.391,8.178 20.727,13.01 34.027,14.342 18.57,1.865 62.377,-3.262 53.693,-32.254 -1.736,-5.779 -7.943,-8.697 -20.23,-3.838 -7.027,2.783 -14.193,3.428 -20.986,3.428 -17.637,0 -26.451,-10.615 -26.451,-31.834 V 216.79 h 39.037 c 25.355,0.002 25.849,-32.762 0.056,-33.055 l 0,0 z M 396.511,372.61 c -29.199,0 -52.551,-8.596 -69.914,-25.883 -17.426,-17.289 -26.109,-40.379 -26.109,-69.383 0,-29.271 8.479,-52.906 25.42,-70.811 16.943,-17.986 39.27,-26.936 66.957,-26.936 9.643,0 18.33,0.896 25.963,2.758 15.211,3.561 31.031,9.797 28.305,28.627 -1.236,8.641 -8.055,14.926 -21.494,9.43 -10.701,-4.377 -20.926,-6.51 -30.637,-6.51 -16.736,0 -30.451,5.852 -41.197,17.498 -10.744,11.707 -16.117,26.588 -16.117,44.699 0,19.025 5.789,34.172 17.355,45.404 11.635,11.219 27.221,16.816 46.912,16.816 9.109,0 19.084,-1.773 29.996,-5.123 24.576,-7.557 28.363,28.654 -3.426,35.945 -11.247,2.6 -25.133,3.469 -32.014,3.469 l 0,0 z M 787.656,183.319 c 28.311,0 51.734,9.088 70.467,27.346 18.67,18.254 28.027,41.123 28.027,68.75 0,26.73 -9.504,48.99 -28.438,66.691 -18.934,17.686 -42.857,26.504 -71.639,26.504 -27.84,0 -51.129,-8.949 -69.859,-26.924 -18.666,-17.988 -28.025,-40.439 -28.025,-67.311 0,-27.197 9.434,-49.795 28.369,-67.914 18.881,-18.118 42.577,-27.142 71.098,-27.142 l 0,0 z m -1.931,33.065 c -17.635,0 -32.098,5.791 -43.395,17.363 -11.309,11.572 -16.943,26.311 -16.943,44.225 0,17.773 5.766,32.227 17.35,43.467 11.572,11.234 26.451,16.883 44.646,16.883 18.041,0 32.781,-5.715 44.285,-17.092 11.51,-11.361 17.295,-25.902 17.295,-43.68 0,-17.633 -5.994,-32.23 -17.977,-43.803 -11.996,-11.572 -27.082,-17.363 -45.261,-17.363 l 0,0 z m 230.002,-33.065 c 28.328,0 51.742,9.088 70.465,27.346 18.689,18.254 28.049,41.123 28.049,68.75 0,26.73 -9.502,48.99 -28.449,66.691 -18.953,17.686 -42.854,26.504 -71.645,26.504 -27.832,0 -51.119,-8.949 -69.848,-26.924 -18.666,-17.988 -28.045,-40.439 -28.045,-67.311 0,-27.197 9.443,-49.795 28.385,-67.914 18.882,-18.118 42.588,-27.142 71.088,-27.142 l 0,0 z m -1.916,33.065 c -17.631,0 -32.115,5.791 -43.408,17.363 -11.289,11.572 -16.939,26.311 -16.939,44.225 0,17.773 5.781,32.227 17.359,43.467 11.568,11.234 26.463,16.883 44.635,16.883 18.045,0 32.789,-5.715 44.299,-17.092 11.504,-11.361 17.289,-25.902 17.289,-43.68 0,-17.633 -5.99,-32.23 -17.979,-43.803 -11.989,-11.573 -27.083,-17.363 -45.256,-17.363 l 0,0 z m 527.793,62.83 H 1411 c 0.973,17.904 6.889,32.168 17.836,42.771 18.523,17.924 53.477,20.357 76.408,10.658 23.844,-10.084 29.48,-5.504 32.039,0.803 2.375,5.902 -0.523,16.107 -8.354,22.596 -7.799,6.463 -16.162,10.35 -24.441,12.701 -24.563,6.973 -67.119,5.02 -88.525,-9.277 -12.605,-8.473 -22.725,-19.906 -30.311,-34.314 -7.654,-14.324 -11.43,-30.996 -11.43,-49.871 0,-28.314 7.979,-51.322 24.041,-69.092 15.969,-17.705 36.777,-26.59 62.418,-26.59 24.574,0 44.283,8.607 58.951,25.832 14.682,17.154 21.971,40.23 21.971,69.16 v 4.623 l 10e-4,0 z m -129.77,-21.906 h 93.41 c -0.963,-14.684 -5.318,-25.979 -13.088,-33.969 -7.861,-7.928 -18.334,-11.912 -31.475,-11.912 -13.248,0 -23.984,3.984 -32.395,11.912 -8.401,7.99 -13.903,19.285 -16.452,33.969 z"
         id="path11"
         inkscape:connector-curvature="0"
         style="fill:#6cb670;fill-opacity:1;fill-rule:evenodd;stroke:none" /></g></g></svg>