<?xml version="1.0" encoding="utf-8"?>
<!-- Generator: Adobe Illustrator 21.0.2, SVG Export Plug-In . SVG Version: 6.00 Build 0)  -->
<svg version="1.2" baseProfile="tiny" id="Capa_1" xmlns="http://www.w3.org/2000/svg" xmlns:xlink="http://www.w3.org/1999/xlink"
	 x="0px" y="0px" viewBox="0 0 1024 1024" xml:space="preserve">
<circle fill="#29ABE2" cx="512" cy="512" r="512"/>
<path fill="#FFFFFF" d="M387,262c-27.6,0-50,22.4-50,50v400c0,27.6,22.4,50,50,50h250c27.6,0,50-22.4,50-50V312
	c0-27.6-22.4-50-50-50H387z M387,337h250v325H387V337z M512,687c13.8,0,25,11.2,25,25s-11.2,25-25,25s-25-11.2-25-25
	S498.2,687,512,687z"/>
</svg>
