<?xml version="1.0" encoding="utf-8"?>
<!-- Generator: Adobe Illustrator 16.0.0, SVG Export Plug-In . SVG Version: 6.00 Build 0)  -->
<!DOCTYPE svg PUBLIC "-//W3C//DTD SVG 1.1 Tiny//EN" "http://www.w3.org/Graphics/SVG/1.1/DTD/svg11-tiny.dtd">
<svg version="1.1" baseProfile="tiny" id="Capa_1" xmlns="http://www.w3.org/2000/svg" xmlns:xlink="http://www.w3.org/1999/xlink"
	 x="0px" y="0px" width="1024.001px" height="1024px" viewBox="0 0 1024.001 1024" xml:space="preserve">
<path fill="#29ABE2" d="M1022.318,512.541c0,283.066-228.48,512.54-510.318,512.54c-281.84,0-510.318-229.474-510.318-512.54
	C1.682,229.473,230.16,0,512,0C793.838,0,1022.318,229.473,1022.318,512.541z"/>
<g>
	<path fill="#FFFFFF" d="M725.701,491.797h-56.285c-14.672,0-26.598,11.92-26.598,26.609v2.92c0,14.761,11.926,26.603,26.682,26.603
		h56.201c14.768,0,26.693-11.919,26.693-26.603v-2.92C752.395,503.717,740.469,491.797,725.701,491.797L725.701,491.797z
		 M725.701,491.797"/>
	<path fill="#FFFFFF" d="M725.785,425.375h-11.76V296.504c0-18.498-15.17-33.656-33.654-33.656H458.225
		c-18.498,0-33.656,15.158-33.656,33.656v92.463c-44.857,25.301-90.994,51.732-91.172,51.814
		c-25.057,10.303-61.791,43.621-61.791,122.317c0,7.034,0.484,13.542,1.137,19.788c0.152,1.865,0.402,3.63,0.65,5.329
		c0.641,4.624,1.457,9.023,2.428,13.228c0.332,1.475,0.652,3.02,0.971,4.477c1.303,4.844,2.842,9.391,4.549,13.684
		c0.805,2.125,1.775,4.08,2.676,6.08c0.971,2.133,2.025,4.14,3.078,6.188c1.221,2.256,2.512,4.542,3.896,6.709
		c0.32,0.51,0.65,0.9,0.971,1.486c32.436,48.902,92.215,49.15,92.215,49.15h40.393v38.279c0,18.492,15.158,33.656,33.656,33.656
		h222.146c18.484,0,33.654-15.164,33.654-33.656v-46.651h5.115v-0.065h6.561c14.768,0,26.693-11.942,26.693-26.627v-2.895
		c0-14.679-11.926-26.621-26.693-26.621h-56.285c-14.672,0-26.598,11.942-26.598,26.621v2.978c0,14.685,11.926,26.609,26.682,26.609
		h21.09v18.023H448.004V457.159c12.162-7.78,23.436-15.157,29.926-20.19c32.602-25.236,63.51-45.249,67.725-63.498
		c5.436-23.613-12.73-43.561-44.195-27.178c-9.898,5.11-30.256,16.378-53.455,29.439v-59.529H690.59v109.102h-14.518v0.07H669.5
		c-14.674,0-26.682,11.913-26.682,26.598v2.931c0,14.761,12.008,26.604,26.598,26.604h56.369c14.684,0,26.609-11.925,26.609-26.604
		v-3.014C752.395,437.288,740.469,425.375,725.785,425.375L725.785,425.375z M569.256,710.711c9.332,0,16.875,7.437,16.875,16.785
		c0,9.326-7.543,16.869-16.875,16.869c-9.248,0-16.793-7.543-16.793-16.869C552.463,718.23,560.008,710.711,569.256,710.711
		L569.256,710.711z M604.865,295.277H533.73c-2.191,0-4.051-1.865-4.051-4.044c0-2.291,1.859-4.139,4.051-4.139h71.135
		c2.191,0,4.051,1.848,4.051,4.139C608.916,293.412,607.057,295.277,604.865,295.277L604.865,295.277z M604.865,295.277"/>
	<path fill="#FFFFFF" d="M725.701,558.208h-56.285c-14.59,0-26.598,11.925-26.598,26.597v3.026
		c0,14.679,11.926,26.585,26.598,26.585h56.285c14.768,0,26.609-11.906,26.693-26.585v-3.026
		C752.395,570.133,740.469,558.208,725.701,558.208L725.701,558.208z M725.701,558.208"/>
</g>
</svg>
