<?xml version="1.0" encoding="utf-8"?>
<!-- Generator: Adobe Illustrator 16.0.0, SVG Export Plug-In . SVG Version: 6.00 Build 0)  -->
<!DOCTYPE svg PUBLIC "-//W3C//DTD SVG 1.1 Tiny//EN" "http://www.w3.org/Graphics/SVG/1.1/DTD/svg11-tiny.dtd">
<svg version="1.1" baseProfile="tiny" id="Capa_1" xmlns="http://www.w3.org/2000/svg" xmlns:xlink="http://www.w3.org/1999/xlink"
	 x="0px" y="0px" width="1024.001px" height="1024px" viewBox="0 0 1024.001 1024" xml:space="preserve">
<path fill="#29ABE2" d="M1022.319,512.541c0,283.066-228.482,512.54-510.318,512.54c-281.84,0-510.32-229.474-510.32-512.54
	C1.681,229.473,230.161,0,512.001,0C793.837,0,1022.319,229.473,1022.319,512.541z"/>
<g>
	<path fill="#FFFFFF" stroke="#FFFFFF" stroke-width="2" stroke-miterlimit="10" d="M620.096,477.402
		c-78.548,0-142.45,53.015-142.45,118.202c0,62.891,59.536,114.467,134.289,117.994c-7.686,10.737-18.12,20.457-31.161,28.978
		c-3.318,2.182-4.807,6.245-3.771,10.077c1.083,3.794,4.521,6.519,8.507,6.608l1.095,0.029c8.019,0,78.107-1.796,108.756-63.319
		c41.51-21.451,67.161-59.665,67.161-100.367C762.521,530.417,698.62,477.402,620.096,477.402L620.096,477.402z M684.509,681.064
		c-1.855,0.928-3.378,2.451-4.247,4.343c-14.859,32.052-42.521,45.687-64.08,51.457c8.34-8.732,14.979-18.251,19.893-28.447
		c1.368-2.891,1.13-6.294-0.666-8.959c-1.678-2.547-4.51-4.068-7.532-4.068c-0.177,0-0.309,0-0.452,0
		c-2.415,0.118-4.877,0.207-7.328,0.207c-68.506,0-124.234-44.883-124.234-100.016c0-55.146,55.729-100,124.234-100
		s124.246,44.854,124.246,100C744.342,630.737,721.975,662.706,684.509,681.064L684.509,681.064z M443.227,529.883
		c-13.064-8.525-23.474-18.252-31.159-28.982c74.764-3.521,134.264-55.109,134.264-118.025c0-65.156-63.866-118.166-142.426-118.166
		c-78.524,0-142.426,53.01-142.426,118.166c0,40.726,25.663,78.953,67.162,100.41c30.647,61.505,100.748,63.313,108.755,63.313
		h1.107c3.974-0.153,7.411-2.813,8.494-6.638C448.045,536.128,446.546,532.065,443.227,529.883L443.227,529.883z M343.739,472.702
		c-0.893-1.88-2.392-3.402-4.248-4.33c-37.465-18.358-59.833-50.327-59.833-85.497c0-55.133,55.741-99.986,124.247-99.986
		s124.246,44.854,124.246,99.986c0,55.17-55.74,100.029-124.246,100.029c-2.451,0-4.902-0.065-7.329-0.185
		c-0.119,0-0.297-0.023-0.416-0.023c-3.047,0-5.89,1.517-7.566,4.058c-1.786,2.665-2.035,6.072-0.654,8.971
		c4.9,10.195,11.539,19.714,19.855,28.447C386.261,518.401,358.611,504.761,343.739,472.702L343.739,472.702z M343.739,472.702"/>
</g>
</svg>
