<?xml version="1.0" encoding="utf-8"?>
<!-- Generator: Adobe Illustrator 21.0.2, SVG Export Plug-In . SVG Version: 6.00 Build 0)  -->
<svg version="1.2" baseProfile="tiny" id="Capa_1" xmlns="http://www.w3.org/2000/svg" xmlns:xlink="http://www.w3.org/1999/xlink"
	 x="0px" y="0px" viewBox="0 0 1024 1024" xml:space="preserve">
<circle fill="#29ABE2" cx="512" cy="512" r="512"/>
<path fill="#FFFFFF" d="M433,301.2c-29.1,0-52.7,23.6-52.7,52.7c0,29.1,23.6,52.7,52.7,52.7c29.1,0,52.7-23.6,52.7-52.7
	C485.7,324.8,462.1,301.2,433,301.2z M591,301.2c-29.1,0-52.7,23.6-52.7,52.7c0,29.1,23.6,52.7,52.7,52.7
	c29.1,0,52.7-23.6,52.7-52.7C643.7,324.8,620.1,301.2,591,301.2z M353.9,433c-29,0-52.7,23.7-52.7,52.7c0,29,23.7,52.7,52.7,52.7
	c29,0,52.7-23.7,52.7-52.7C406.6,456.7,382.9,433,353.9,433z M670.1,433c-29,0-52.7,23.7-52.7,52.7c0,29,23.7,52.7,52.7,52.7
	c29,0,52.7-23.7,52.7-52.7C722.8,456.7,699.1,433,670.1,433z M512,512c-29,0-52.7,23.7-52.7,52.7c0,29,23.7,52.7,52.7,52.7
	c29,0,52.7-23.7,52.7-52.7C564.7,535.7,541,512,512,512z M353.9,564.7c-71.1,0-92.2,57.6-92.2,57.6v21.4h184.4v-21.4
	C446.1,622.3,425.1,564.7,353.9,564.7z M670.1,564.7c-71.1,0-92.2,57.6-92.2,57.6v21.4h184.4v-21.4
	C762.3,622.3,741.2,564.7,670.1,564.7z M512,643.7c-79,0-105.4,57.6-105.4,57.6v21.4h210.8v-21.4C617.4,701.4,591,643.7,512,643.7z"
	/>
</svg>
