<?xml version="1.0" encoding="utf-8"?>
<!-- Generator: Adobe Illustrator 16.0.0, SVG Export Plug-In . SVG Version: 6.00 Build 0)  -->
<!DOCTYPE svg PUBLIC "-//W3C//DTD SVG 1.1 Tiny//EN" "http://www.w3.org/Graphics/SVG/1.1/DTD/svg11-tiny.dtd">
<svg version="1.1" baseProfile="tiny" id="Capa_1" xmlns="http://www.w3.org/2000/svg" xmlns:xlink="http://www.w3.org/1999/xlink"
	 x="0px" y="0px" width="1024px" height="1024px" viewBox="0 0 1024 1024" xml:space="preserve">
<path fill="#29ABE2" d="M1022.319,512.541c0,283.066-228.481,512.54-510.318,512.54c-281.84,0-510.319-229.474-510.319-512.54
	C1.681,229.473,230.161,0,512,0C793.837,0,1022.319,229.473,1022.319,512.541z"/>
<g>
	<g>
		<rect x="299.473" y="290.982" fill="none" width="433.017" height="432.818"/>
		<path fill="#FFFFFF" d="M293.528,760.561h445.05c8.919,0,16.93-3.818,22.529-9.875V264.048c-0.558-0.602-1.138-1.182-1.742-1.737
			H272.783c-6.081,5.597-9.89,13.621-9.89,22.547v445.074C262.893,746.732,276.596,760.561,293.528,760.561z M299.473,290.982
			h433.017v432.818H299.473V290.982z"/>
	</g>
	<path fill="#FFFFFF" d="M449.229,633.881c3.038,0,5.944-1.032,7.745-2.834l162.533-118.26c3.963-2.883,3.963-8.113,0-10.995
		L456.098,383.068c-2.906-2.161-7.254-2.726-10.845-1.416c-3.783,1.057-6.148,3.782-6.148,6.82v237.662
		C439.104,630.459,443.632,633.881,449.229,633.881L449.229,633.881z M449.229,633.881"/>
</g>
</svg>
