<?xml version="1.0" encoding="utf-8"?>
<!-- Generator: Adobe Illustrator 21.0.2, SVG Export Plug-In . SVG Version: 6.00 Build 0)  -->
<svg version="1.2" baseProfile="tiny" id="Capa_1" xmlns="http://www.w3.org/2000/svg" xmlns:xlink="http://www.w3.org/1999/xlink"
	 x="0px" y="0px" viewBox="0 0 1024 1024" xml:space="preserve">
<circle fill="#29ABE2" cx="512" cy="512" r="512"/>
<path fill="#FFFFFF" d="M312.5,312.5c-13,0-26.4,4.6-35.8,14s-14,22.8-14,35.8v299.2c0,13,4.6,26.4,14,35.8s22.8,14,35.8,14h399
	c13,0,26.4-4.6,35.8-14s14-22.8,14-35.8V362.4c0-13-4.6-26.4-14-35.8s-22.8-14-35.8-14H312.5z M312.5,362.4h399v299.2h-399V362.4z
	 M462.1,412.2v199.5L611.8,512L462.1,412.2z"/>
</svg>
