<?xml version="1.0" encoding="utf-8"?>
<!-- Generator: Adobe Illustrator 16.0.0, SVG Export Plug-In . SVG Version: 6.00 Build 0)  -->
<!DOCTYPE svg PUBLIC "-//W3C//DTD SVG 1.1 Tiny//EN" "http://www.w3.org/Graphics/SVG/1.1/DTD/svg11-tiny.dtd">
<svg version="1.1" baseProfile="tiny" id="Capa_1" xmlns="http://www.w3.org/2000/svg" xmlns:xlink="http://www.w3.org/1999/xlink"
	 x="0px" y="0px" width="1024px" height="1024px" viewBox="0 0 1024 1024" xml:space="preserve">
<path fill="#29ABE2" d="M1022.319,512.541c0,283.066-228.481,512.54-510.318,512.54c-281.84,0-510.319-229.474-510.319-512.54
	C1.682,229.473,230.161,0,512.001,0C793.838,0,1022.319,229.473,1022.319,512.541z"/>
<g>
	<path fill="#FFFFFF" d="M677.405,448.743h-19.39v-54.531c0-80.598-65.518-146.229-146.127-146.229
		c-80.605,0-146.122,65.631-146.122,146.128v54.526h-19.289c-19.076,0-34.59,15.521-34.59,34.589v258.2
		c0,19.069,15.514,34.59,34.59,34.59h331.041c19.076,0,34.595-15.521,34.595-34.59v-258.2
		C712.001,464.259,696.487,448.743,677.405,448.743L677.405,448.743z M409.733,394.111c0-56.359,45.801-102.154,102.155-102.154
		c56.365,0,102.16,45.795,102.16,102.154v54.419H409.733V394.111z M667.933,732.049H355.854V492.711h312.179v239.338H667.933z
		 M667.933,732.049"/>
	<path fill="#FFFFFF" d="M512,576.261c-18.039,0-32.661,14.629-32.661,32.662c0,12.059,6.607,22.473,16.331,28.139v37.19
		c0,9.019,7.306,16.329,16.331,16.329c9.013,0,16.332-7.311,16.332-16.329v-37.19c9.716-5.666,16.33-16.08,16.33-28.139
		C544.662,590.89,530.041,576.261,512,576.261L512,576.261z M512,576.261"/>
</g>
</svg>
