<svg id="Capa_1" data-name="Capa 1" xmlns="http://www.w3.org/2000/svg" viewBox="0 0 1024 1024"><defs><style>.cls-1{fill:#e57505;}.cls-2{fill:#fff;}</style></defs><title>gestion escolar</title><circle class="cls-1" cx="512" cy="512" r="512"/><polygon class="cls-2" points="512 262 307.36 353.1 325.03 392.54 512 309.59 698.97 392.54 716.64 353.1 512 262"/><path class="cls-2" d="M651.12,593.15c0-5.63,1.88-13.13,1.88-18.76s0-13.13-1.88-18.76l39.4-28.14c3.75-1.88,5.63-7.5,1.88-13.13l-37.52-65.67c-1.88-5.63-7.5-7.5-11.26-5.63l-45,20.64c-9.38-7.5-22.51-15-33.77-18.76l-5.63-48.78c0-5.63-3.75-9.38-9.38-9.38h-75c-5.63,0-9.38,3.75-9.38,9.38l-5.63,46.9c-13.13,5.63-24.39,11.26-33.77,18.76l-45-18.76c-3.75-1.88-9.38,0-11.26,3.75l-37.52,65.67c-3.75,5.63-3.75,11.26,1.88,13.13l39.4,30c0,5.63-1.88,13.13-1.88,18.76s0,13.13,1.88,18.76l-39.4,28.14c-3.75,1.88-5.63,7.5-1.88,13.13l37.52,65.67c1.88,5.63,7.5,7.5,11.26,5.63l45-20.64c9.38,7.5,22.51,15,33.77,18.76l5.63,48.78c0,5.63,3.75,9.38,9.38,9.38h75c5.63,0,9.38-3.75,9.38-9.38l5.63-48.78c13.13-5.63,24.39-11.26,33.77-18.76l45,20.64c3.75,1.88,9.38,0,11.26-3.75L692.4,636.3c1.88-3.75,1.88-9.38-1.88-13.13ZM512.28,649.43a75,75,0,1,1,75-75A75.27,75.27,0,0,1,512.28,649.43Z"/></svg>