<?xml version="1.0" encoding="utf-8"?>
<!-- Generator: Adobe Illustrator 16.0.0, SVG Export Plug-In . SVG Version: 6.00 Build 0)  -->
<!DOCTYPE svg PUBLIC "-//W3C//DTD SVG 1.1 Tiny//EN" "http://www.w3.org/Graphics/SVG/1.1/DTD/svg11-tiny.dtd">
<svg version="1.1" baseProfile="tiny" id="Capa_1" xmlns="http://www.w3.org/2000/svg" xmlns:xlink="http://www.w3.org/1999/xlink"
	 x="0px" y="0px" width="558px" height="558px" viewBox="0 0 558 558" xml:space="preserve">
<circle fill="#E57505" cx="279" cy="279" r="279"/>
<g>
	<path fill="#FFFFFF" stroke="#FFFFFF" stroke-width="5" stroke-miterlimit="10" d="M350.821,256.011
		c-52.192,0-94.651,35.227-94.651,78.539c0,41.781,39.559,76.053,89.227,78.397c-5.105,7.132-12.039,13.589-20.701,19.252
		c-2.205,1.45-3.198,4.152-2.503,6.695c0.715,2.523,3,4.331,5.642,4.391l0.735,0.02c5.324,0,51.895-1.192,72.259-42.07
		c27.576-14.255,44.623-39.646,44.623-66.685C445.451,291.238,402.994,256.011,350.821,256.011L350.821,256.011z M393.616,391.331
		c-1.231,0.615-2.245,1.629-2.821,2.88c-9.875,21.298-28.252,30.358-42.576,34.192c5.543-5.801,9.953-12.129,13.212-18.903
		c0.914-1.918,0.755-4.183-0.437-5.951c-1.113-1.688-3.001-2.702-5.008-2.702c-0.119,0-0.198,0-0.297,0
		c-1.609,0.08-3.238,0.139-4.868,0.139c-45.517,0-82.55-29.821-82.55-66.458c0-36.636,37.033-66.439,82.55-66.439
		s82.55,29.804,82.55,66.439C433.371,357.894,418.51,379.132,393.616,391.331L393.616,391.331z M233.305,290.881
		c-8.682-5.663-15.596-12.125-20.701-19.255c49.671-2.344,89.204-36.616,89.204-78.417c0-43.294-42.437-78.514-94.632-78.514
		c-52.166,0-94.627,35.22-94.627,78.514c0,27.058,17.049,52.453,44.621,66.713c20.363,40.863,66.938,42.065,72.258,42.065h0.738
		c2.645-0.1,4.927-1.868,5.64-4.411C236.504,295.033,235.51,292.331,233.305,290.881L233.305,290.881z M167.205,252.889
		c-0.596-1.251-1.586-2.263-2.824-2.878c-24.891-12.196-39.752-33.438-39.752-56.802c0-36.636,37.031-66.435,82.547-66.435
		c45.521,0,82.553,29.799,82.553,66.435c0,36.656-37.031,66.459-82.553,66.459c-1.626,0-3.255-0.042-4.867-0.122
		c-0.076,0-0.198-0.02-0.275-0.02c-2.029,0-3.914,1.011-5.029,2.699c-1.189,1.771-1.348,4.033-0.432,5.96
		c3.256,6.775,7.664,13.098,13.187,18.899C195.457,283.251,177.082,274.189,167.205,252.889L167.205,252.889z M167.205,252.889"/>
</g>
</svg>
