<?xml version="1.0" encoding="utf-8"?>
<!-- Generator: Adobe Illustrator 16.0.0, SVG Export Plug-In . SVG Version: 6.00 Build 0)  -->
<!DOCTYPE svg PUBLIC "-//W3C//DTD SVG 1.1 Tiny//EN" "http://www.w3.org/Graphics/SVG/1.1/DTD/svg11-tiny.dtd">
<svg version="1.1" baseProfile="tiny" id="Capa_1" xmlns="http://www.w3.org/2000/svg" xmlns:xlink="http://www.w3.org/1999/xlink"
	 x="0px" y="0px" width="558px" height="558px" viewBox="0 0 558 558" xml:space="preserve">
<circle fill="#E57505" cx="279" cy="279" r="279"/>
<g>
	<g>
		<path fill="#FFFFFF" d="M312.408,271.142l59.242-25.559c4.598-1.984,7.477-6.613,7.23-11.613c-0.25-5-3.574-9.32-8.345-10.84
			l-194.171-61.84c-4.273-1.359-8.953-0.223-12.125,2.949s-4.313,7.852-2.949,12.125l61.84,194.172
			c1.52,4.77,5.844,8.094,10.844,8.344s9.625-2.637,11.609-7.23l25.559-59.242l81.355,81.352c2.25,2.25,5.301,3.516,8.484,3.516
			c3.18,0,6.234-1.266,8.484-3.516l24.293-24.293c4.688-4.688,4.688-12.285,0-16.973L312.408,271.142z M312.408,271.142"/>
	</g>
</g>
</svg>
