<?xml version="1.0" encoding="utf-8"?>
<!-- Generator: Adobe Illustrator 16.0.0, SVG Export Plug-In . SVG Version: 6.00 Build 0)  -->
<!DOCTYPE svg PUBLIC "-//W3C//DTD SVG 1.1 Tiny//EN" "http://www.w3.org/Graphics/SVG/1.1/DTD/svg11-tiny.dtd">
<svg version="1.1" baseProfile="tiny" id="Capa_1" xmlns="http://www.w3.org/2000/svg" xmlns:xlink="http://www.w3.org/1999/xlink"
	 x="0px" y="0px" width="558px" height="558px" viewBox="0 0 558 558" xml:space="preserve">
<circle fill="#E57505" cx="279" cy="279" r="279"/>
<g>
	<path fill="#FFFFFF" d="M176.463,279h61.523v20.506h-61.523V279z M176.463,320.015h61.523v20.509h-61.523V320.015z
		 M176.463,361.028h61.523v20.51h-61.523V361.028z M404.428,178.844l-45.778-45.777c-9.969-9.969-29.661-18.127-43.761-18.127
		H161.083c-14.1,0-25.635,11.535-25.635,25.635v276.852c0,14.097,11.535,25.635,25.635,25.635h235.834
		c14.101,0,25.635-11.538,25.635-25.635V222.603C422.552,208.506,414.396,188.813,404.428,178.844L404.428,178.844z
		 M389.927,193.345c1.001,1.002,2.002,2.234,2.973,3.624h-52.376v-52.374c1.389,0.969,2.623,1.968,3.626,2.974L389.927,193.345z
		 M402.046,417.426c0,2.779-2.351,5.126-5.129,5.126H161.083c-2.778,0-5.126-2.347-5.126-5.126V140.574
		c0-2.779,2.348-5.126,5.126-5.126h153.806c1.549,0,3.286,0.195,5.126,0.545v81.484h81.483c0.352,1.838,0.548,3.576,0.548,5.125
		V417.426z M299.509,340.523h60.493c-4.75,23.399-25.438,41.015-50.239,41.015c-28.315,0-51.269-22.953-51.269-51.269
		c0-24.806,17.615-45.489,41.015-50.242V340.523z M330.27,258.491c28.315,0,51.268,22.952,51.268,51.27
		c0,3.511-0.354,6.939-1.027,10.254h-60.495v-60.493C323.328,258.849,326.758,258.491,330.27,258.491L330.27,258.491z
		 M330.27,258.491"/>
</g>
</svg>
