<?xml version="1.0" encoding="utf-8"?>
<!-- Generator: Adobe Illustrator 16.0.0, SVG Export Plug-In . SVG Version: 6.00 Build 0)  -->
<!DOCTYPE svg PUBLIC "-//W3C//DTD SVG 1.1 Tiny//EN" "http://www.w3.org/Graphics/SVG/1.1/DTD/svg11-tiny.dtd">
<svg version="1.1" baseProfile="tiny" id="Capa_1" xmlns="http://www.w3.org/2000/svg" xmlns:xlink="http://www.w3.org/1999/xlink"
	 x="0px" y="0px" width="558px" height="558px" viewBox="0 0 558 558" xml:space="preserve">
<circle fill="#E57505" cx="279" cy="279" r="279"/>
<g>
	<path fill="#FFFFFF" d="M379.21,211.914c0-55.256-44.953-100.208-100.21-100.208c-55.256,0-100.21,44.952-100.21,100.208
		S223.744,312.125,279,312.125C334.257,312.125,379.21,267.17,379.21,211.914L379.21,211.914z M191.597,218.202h13.61
		c3.474,0,6.29-2.811,6.29-6.288c0-3.472-2.816-6.29-6.29-6.29h-13.61c3.088-43.315,37.798-78.025,81.114-81.114v13.613
		c0,3.469,2.818,6.287,6.29,6.287c3.472,0,6.29-2.818,6.29-6.287V124.51c43.321,3.089,78.031,37.804,81.113,81.127
		c-0.065-0.003-0.126-0.013-0.192-0.013h-13.417c-3.474,0-6.29,2.818-6.29,6.29c0,3.478,2.816,6.288,6.29,6.288h13.417
		c0.066,0,0.127-0.003,0.192-0.006c-3.083,43.32-37.792,78.034-81.113,81.124v-13.61c0-3.476-2.818-6.288-6.29-6.288
		c-3.471,0-6.29,2.813-6.29,6.288v13.606C229.395,296.23,194.685,261.52,191.597,218.202L191.597,218.202z M191.597,218.202"/>
	<g>
		<path fill="#FFFFFF" d="M270.246,229.563c2.64,1.317,5.61,2.059,8.754,2.059c8.668,0,16.039-5.625,18.671-13.419h28.289
			c3.473,0,6.29-2.811,6.29-6.288c0-3.472-2.817-6.29-6.29-6.29h-28.289c-0.286-0.845-0.626-1.67-1.024-2.464l33.76-33.755
			c2.457-2.458,2.457-6.441,0-8.899c-2.458-2.452-6.438-2.452-8.894,0l-33.76,33.76c-2.637-1.315-5.61-2.056-8.754-2.056
			c-8.668,0-16.038,5.628-18.671,13.414h-8.165c-3.472,0-6.289,2.818-6.289,6.29c0,3.478,2.817,6.288,6.289,6.288h8.165
			c0.286,0.853,0.627,1.676,1.024,2.466l-10.994,10.994c-2.457,2.458-2.457,6.441,0,8.897c1.224,1.225,2.837,1.838,4.447,1.838
			c1.608,0,3.218-0.613,4.446-1.838L270.246,229.563z M279,204.785c3.931,0,7.13,3.197,7.13,7.129s-3.199,7.129-7.13,7.129
			c-3.93,0-7.129-3.197-7.129-7.129S275.07,204.785,279,204.785L279,204.785z M279,204.785"/>
		<path fill="#FFFFFF" d="M406.464,420.3h-13.84v-27.255c0-10.866-8.839-19.707-19.702-19.707H285.29V338.8
			c67.143-3.285,120.753-58.939,120.753-126.886c0-70.051-56.988-127.042-127.043-127.042c-70.053,0-127.043,56.991-127.043,127.042
			c0,67.946,53.611,123.601,120.753,126.886v34.538h-87.632c-10.862,0-19.702,8.841-19.702,19.707V420.3h-13.84
			c-7.165,0-12.996,5.832-12.996,12.996v26.836c0,7.165,5.831,12.996,12.996,12.996h40.253c7.166,0,12.996-5.831,12.996-12.996
			v-26.836c0-7.164-5.831-12.996-12.996-12.996h-13.835v-27.255c0-3.931,3.199-7.128,7.125-7.128h87.632V420.3h-13.835
			c-7.169,0-13,5.832-13,12.996v26.836c0,7.165,5.83,12.996,13,12.996h40.25c7.169,0,13-5.831,13-12.996v-26.836
			c0-7.164-5.83-12.996-13-12.996H285.29v-34.383h87.632c3.926,0,7.125,3.197,7.125,7.128V420.3h-13.835
			c-7.166,0-12.996,5.832-12.996,12.996v26.836c0,7.165,5.831,12.996,12.996,12.996h40.253c7.166,0,12.996-5.831,12.996-12.996
			v-26.836C419.46,426.132,413.63,420.3,406.464,420.3L406.464,420.3z M164.537,211.914c0-63.115,51.35-114.464,114.463-114.464
			s114.463,51.349,114.463,114.464c0,63.117-51.35,114.463-114.463,114.463S164.537,275.031,164.537,211.914L164.537,211.914z
			 M192.208,433.296v26.836c0,0.229-0.189,0.416-0.418,0.416h-40.253c-0.229,0-0.418-0.188-0.418-0.416v-26.836
			c0-0.229,0.189-0.418,0.418-0.418h40.253C192.018,432.878,192.208,433.066,192.208,433.296L192.208,433.296z M299.547,433.296
			v26.836c0,0.229-0.189,0.416-0.422,0.416h-40.25c-0.232,0-0.421-0.188-0.421-0.416v-26.836c0-0.229,0.189-0.418,0.421-0.418h40.25
			C299.358,432.878,299.547,433.066,299.547,433.296L299.547,433.296z M406.882,460.132c0,0.229-0.189,0.416-0.418,0.416h-40.253
			c-0.229,0-0.418-0.188-0.418-0.416v-26.836c0-0.229,0.189-0.418,0.418-0.418h40.253c0.229,0,0.418,0.188,0.418,0.418V460.132z
			 M406.882,460.132"/>
	</g>
</g>
</svg>
