<?xml version="1.0" encoding="utf-8"?>
<!-- Generator: Adobe Illustrator 16.0.0, SVG Export Plug-In . SVG Version: 6.00 Build 0)  -->
<!DOCTYPE svg PUBLIC "-//W3C//DTD SVG 1.1 Tiny//EN" "http://www.w3.org/Graphics/SVG/1.1/DTD/svg11-tiny.dtd">
<svg version="1.1" baseProfile="tiny" id="Capa_1" xmlns="http://www.w3.org/2000/svg" xmlns:xlink="http://www.w3.org/1999/xlink"
	 x="0px" y="0px" width="558px" height="558px" viewBox="0 0 558 558" xml:space="preserve">
<circle fill="#E57505" cx="279" cy="279" r="279"/>
<g>
	<path fill="#FFFFFF" d="M136.734,407.4h197.723V148.189H136.734V407.4z M161.45,172.905h148.294v203.751H161.45V172.905z
		 M161.45,172.905"/>
	<rect x="180.139" y="197.618" fill="#FFFFFF" width="110.918" height="24.716"/>
	<rect x="180.139" y="241.022" fill="#FFFFFF" width="110.918" height="24.716"/>
	<rect x="180.139" y="283.822" fill="#FFFFFF" width="110.918" height="24.717"/>
	<rect x="180.139" y="327.223" fill="#FFFFFF" width="110.918" height="24.717"/>
	<rect x="371.833" y="197.618" fill="#FFFFFF" width="49.433" height="173.01"/>
	<path fill="#FFFFFF" d="M413.73,136.736c-5.024-4.824-10.853-7.235-17.484-7.235c-6.629,0-12.356,2.411-17.178,7.235
		c-4.824,4.821-7.235,10.648-7.235,17.48v24.717h49.433v-24.717C421.266,147.385,418.752,141.558,413.73,136.736L413.73,136.736z
		 M413.73,136.736"/>
	<path fill="#FFFFFF" d="M395.946,428.499l25.319-39.786h-50.036L395.946,428.499z M395.946,428.499"/>
</g>
</svg>
