<?xml version="1.0" encoding="utf-8"?>
<!-- Generator: Adobe Illustrator 16.0.0, SVG Export Plug-In . SVG Version: 6.00 Build 0)  -->
<!DOCTYPE svg PUBLIC "-//W3C//DTD SVG 1.1 Tiny//EN" "http://www.w3.org/Graphics/SVG/1.1/DTD/svg11-tiny.dtd">
<svg version="1.1" baseProfile="tiny" id="Capa_1" xmlns="http://www.w3.org/2000/svg" xmlns:xlink="http://www.w3.org/1999/xlink"
	 x="0px" y="0px" width="558px" height="558px" viewBox="0 0 558 558" xml:space="preserve">
<circle fill="#E57505" cx="279" cy="279" r="279"/>
<g>
	<path fill="#FFFFFF" d="M268.943,248.582l4.885-31.35l-2.462-3.938c-0.354-0.555-0.273-1.27,0.161-1.746l6.398-6.916
		c0.56-0.555,1.549-0.555,2.104,0l6.398,6.916c0.434,0.477,0.479,1.191,0.161,1.746l-2.468,3.938l4.85,31.35
		c38.467-0.674,61.715-5.046,61.715-9.616c0-22.334-15.18-23.326-32.033-28.851c-10.41-3.376-23.323-5.284-20.543-23.205
		c6.837-6.237,9.26-19.15,9.26-19.15s9.103-4.612,10.133-13.393c0.797-6.716-2.705-9.857-2.705-9.857v-8.503
		c0-18.954-16.249-33.896-35.802-33.896c-19.545,0-35.803,14.942-35.803,33.896v8.503c0,0-3.497,3.141-2.7,9.857
		c1.034,8.781,10.133,13.393,10.133,13.393s2.422,12.914,9.26,19.15c2.74,17.921-10.138,19.829-20.543,23.205
		c-16.89,5.525-32.028,6.517-32.028,28.851C207.233,243.535,230.521,247.908,268.943,248.582L268.943,248.582z M268.943,248.582"/>
	<path fill="#FFFFFF" d="M199.085,417.424c-10.406-3.378-23.284-5.283-20.544-23.205c6.873-6.24,9.26-19.153,9.26-19.153
		s9.099-4.61,10.173-13.395c0.757-6.711-2.74-9.853-2.74-9.853v-8.503c0-18.954-16.253-33.895-35.802-33.895
		c-19.514,0-35.768,14.941-35.768,33.895v8.503c0,0-3.492,3.141-2.74,9.853c1.034,8.785,10.173,13.395,10.173,13.395
		s2.383,12.913,9.256,19.153c2.744,17.921-10.129,19.827-20.543,23.205c-16.886,5.523-32.064,6.517-32.064,28.852
		c0,4.569,23.288,8.979,61.71,9.613l4.85-31.312l-2.427-3.974c-0.358-0.558-0.278-1.231,0.161-1.708l6.357-6.914
		c0.556-0.598,1.59-0.598,2.146,0l6.357,6.914c0.479,0.477,0.52,1.193,0.161,1.708l-2.427,3.974l4.85,31.312
		c38.422-0.634,61.71-5.044,61.71-9.613C231.157,423.941,215.974,422.947,199.085,417.424L199.085,417.424z M199.085,417.424"/>
	<path fill="#FFFFFF" d="M438.146,417.424c-10.415-3.378-23.288-5.283-20.548-23.205c6.878-6.24,9.26-19.153,9.26-19.153
		s9.103-4.61,10.173-13.395c0.757-6.711-2.74-9.853-2.74-9.853v-8.503c0-18.954-16.253-33.895-35.807-33.895
		c-19.509,0-35.758,14.941-35.758,33.895v8.503c0,0-3.502,3.141-2.745,9.853c1.034,8.785,10.173,13.395,10.173,13.395
		s2.382,12.913,9.26,19.153c2.74,17.921-10.133,19.827-20.543,23.205c-16.89,5.523-32.068,6.517-32.068,28.852
		c0,4.569,23.283,8.979,61.714,9.613l4.845-31.312l-2.427-3.974c-0.354-0.558-0.272-1.231,0.161-1.708l6.358-6.914
		c0.556-0.598,1.585-0.598,2.145,0l6.358,6.914c0.475,0.477,0.52,1.193,0.157,1.708l-2.418,3.974l4.845,31.312
		c38.417-0.634,61.714-5.044,61.714-9.613C470.21,423.941,455.031,422.947,438.146,417.424L438.146,417.424z M438.146,417.424"/>
	<path fill="#FFFFFF" d="M335.941,383.37c2.74,0,5.44-1.191,7.353-3.457c3.38-4.054,2.816-10.092-1.231-13.471l-53.529-44.545
		v-52.455c0-5.283-4.29-9.575-9.573-9.575c-5.288,0-9.542,4.292-9.542,9.575v52.455l-53.521,44.545
		c-4.092,3.378-4.652,9.417-1.271,13.471c3.376,4.052,9.412,4.607,13.469,1.234l50.865-42.322l50.86,42.322
		C331.611,382.656,333.752,383.37,335.941,383.37L335.941,383.37z M335.941,383.37"/>
</g>
</svg>
