<?xml version="1.0" encoding="utf-8"?>
<!-- Generator: Adobe Illustrator 16.0.0, SVG Export Plug-In . SVG Version: 6.00 Build 0)  -->
<!DOCTYPE svg PUBLIC "-//W3C//DTD SVG 1.1 Tiny//EN" "http://www.w3.org/Graphics/SVG/1.1/DTD/svg11-tiny.dtd">
<svg version="1.1" baseProfile="tiny" id="Capa_1" xmlns="http://www.w3.org/2000/svg" xmlns:xlink="http://www.w3.org/1999/xlink"
	 x="0px" y="0px" width="558px" height="558px" viewBox="0 0 558 558" xml:space="preserve">
<circle fill="#E57505" cx="279" cy="279" r="279"/>
<g>
	<path fill="#FFFFFF" d="M358.953,247.017c-2.945,0-5.332,2.389-5.332,5.333v170.566c0,8.815-7.17,15.989-15.99,15.989H135.085
		c-8.816,0-15.989-7.174-15.989-15.989V220.365c0-8.815,7.173-15.989,15.989-15.989H305.65c2.945,0,5.329-2.384,5.329-5.328
		s-2.384-5.333-5.329-5.333H135.085c-14.694,0-26.651,11.956-26.651,26.65v202.551c0,14.693,11.957,26.65,26.651,26.65h202.546
		c14.695,0,26.651-11.957,26.651-26.65V252.35C364.282,249.405,361.896,247.017,358.953,247.017L358.953,247.017z M358.953,247.017"
		/>
	<path fill="#FFFFFF" d="M443.32,114.681c-4.023-4.027-9.38-6.247-15.076-6.247c-5.697,0-11.051,2.22-15.076,6.247l-171.209,171.21
		c-0.505,0.504-0.904,1.109-1.172,1.77l-15.346,37.959c-0.8,1.981-0.338,4.252,1.172,5.765c1.021,1.022,2.384,1.562,3.771,1.562
		c0.673,0,1.35-0.127,1.997-0.387l37.955-15.346c0.664-0.268,1.266-0.667,1.773-1.174L443.32,144.832
		c4.027-4.028,6.246-9.383,6.246-15.076C449.566,124.06,447.348,118.705,443.32,114.681L443.32,114.681z M268.983,304.089
		l-15.072-15.075l157.696-157.696l15.076,15.072L268.983,304.089z M248.023,298.204l11.772,11.771l-19.764,7.99L248.023,298.204z
		 M435.781,137.29l-1.561,1.562l-15.076-15.071l1.564-1.565c2.011-2.01,4.689-3.119,7.535-3.119c2.847,0,5.523,1.109,7.537,3.123
		s3.124,4.69,3.124,7.537C438.905,132.604,437.795,135.276,435.781,137.29L435.781,137.29z M435.781,137.29"/>
	<path fill="#FFFFFF" d="M268.34,241.688c0-2.943-2.389-5.328-5.329-5.328H156.407c-2.944,0-5.332,2.385-5.332,5.328
		c0,2.944,2.388,5.329,5.332,5.329h106.604C265.951,247.017,268.34,244.632,268.34,241.688L268.34,241.688z M268.34,241.688"/>
	<path fill="#FFFFFF" d="M241.688,268.339c0-2.943-2.387-5.328-5.328-5.328h-79.952c-2.944,0-5.332,2.385-5.332,5.328
		c0,2.944,2.388,5.328,5.332,5.328h79.952C239.301,273.667,241.688,271.283,241.688,268.339L241.688,268.339z M241.688,268.339"/>
	<path fill="#FFFFFF" d="M220.367,289.661h-63.96c-2.944,0-5.332,2.385-5.332,5.329c0,2.943,2.388,5.328,5.332,5.328h63.96
		c2.943,0,5.332-2.385,5.332-5.328C225.699,292.046,223.311,289.661,220.367,289.661L220.367,289.661z M220.367,289.661"/>
	<path fill="#FFFFFF" d="M156.407,326.971h53.302c2.941,0,5.328-2.386,5.328-5.33s-2.387-5.328-5.328-5.328h-53.302
		c-2.944,0-5.332,2.384-5.332,5.328S153.463,326.971,156.407,326.971L156.407,326.971z M156.407,326.971"/>
	<path fill="#FFFFFF" d="M284.329,321.641c0,2.944,2.388,5.33,5.333,5.33h26.65c2.941,0,5.328-2.386,5.328-5.33
		s-2.387-5.328-5.328-5.328h-26.65C286.717,316.313,284.329,318.696,284.329,321.641L284.329,321.641z M284.329,321.641"/>
	<path fill="#FFFFFF" d="M320.082,298.761c0.993-0.992,1.559-2.365,1.559-3.771c0-1.406-0.565-2.779-1.559-3.771
		c-0.992-0.993-2.365-1.559-3.77-1.559c-1.4,0-2.779,0.565-3.773,1.559c-0.993,0.991-1.56,2.371-1.56,3.771
		c0,1.405,0.566,2.778,1.56,3.771c0.994,0.992,2.373,1.558,3.773,1.558C317.711,300.318,319.09,299.753,320.082,298.761
		L320.082,298.761z M320.082,298.761"/>
	<path fill="#FFFFFF" d="M151.075,348.291c0,2.944,2.388,5.33,5.332,5.33h159.905c2.941,0,5.328-2.386,5.328-5.33
		c0-2.943-2.387-5.328-5.328-5.328H156.407C153.463,342.963,151.075,345.348,151.075,348.291L151.075,348.291z M151.075,348.291"/>
	<path fill="#FFFFFF" d="M316.313,369.613H156.407c-2.944,0-5.332,2.386-5.332,5.328c0,2.945,2.388,5.33,5.332,5.33h159.905
		c2.941,0,5.328-2.385,5.328-5.33C321.641,371.999,319.254,369.613,316.313,369.613L316.313,369.613z M316.313,369.613"/>
	<path fill="#FFFFFF" d="M316.313,396.264H156.407c-2.944,0-5.332,2.386-5.332,5.33c0,2.943,2.388,5.328,5.332,5.328h159.905
		c2.941,0,5.328-2.385,5.328-5.328C321.641,398.649,319.254,396.264,316.313,396.264L316.313,396.264z M316.313,396.264"/>
</g>
</svg>
