<?xml version="1.0" encoding="utf-8"?>
<!-- Generator: Adobe Illustrator 16.0.0, SVG Export Plug-In . SVG Version: 6.00 Build 0)  -->
<!DOCTYPE svg PUBLIC "-//W3C//DTD SVG 1.1 Tiny//EN" "http://www.w3.org/Graphics/SVG/1.1/DTD/svg11-tiny.dtd">
<svg version="1.1" baseProfile="tiny" id="Capa_1" xmlns="http://www.w3.org/2000/svg" xmlns:xlink="http://www.w3.org/1999/xlink"
	 x="0px" y="0px" width="558px" height="558px" viewBox="0 0 558 558" xml:space="preserve">
<circle fill="#E57505" cx="279" cy="279" r="279"/>
<g>
	<g>
		<polygon fill="none" points="398.524,339.977 398.524,214.804 326.665,272.389 		"/>
		<path fill="none" d="M287.456,303.754c-2.574,2.049-8.426,4.797-14.981,0l-21.299-17.147l-74.906,70.457h205.519l-73.969-69.637
			L287.456,303.754z"/>
		<polygon fill="none" points="159.534,212.992 159.534,339.977 232.331,271.511 		"/>
		<polygon fill="none" points="378.337,200.351 182.004,200.351 279.966,279.117 		"/>
		<path fill="#FFFFFF" d="M147.595,381h262.868c6.217,0,11.295-4.711,11.879-10.771V187.244c-0.584-6.059-5.662-10.77-11.879-10.77
			H147.595c-6.611,0-11.938,5.326-11.938,11.938v180.649C135.658,375.674,140.984,381,147.595,381z M176.27,357.063l74.906-70.457
			l21.299,17.147c6.555,4.797,12.407,2.049,14.981,0l20.365-16.327l73.969,69.637H176.27z M398.524,339.977l-71.86-67.588
			l71.86-57.585V339.977z M378.337,200.351l-98.371,78.767l-97.962-78.767H378.337z M159.534,212.992l72.797,58.519l-72.797,68.466
			V212.992z"/>
	</g>
</g>
</svg>
