<?xml version="1.0" encoding="utf-8"?>
<!-- Generator: Adobe Illustrator 16.0.0, SVG Export Plug-In . SVG Version: 6.00 Build 0)  -->
<!DOCTYPE svg PUBLIC "-//W3C//DTD SVG 1.1 Tiny//EN" "http://www.w3.org/Graphics/SVG/1.1/DTD/svg11-tiny.dtd">
<svg version="1.1" baseProfile="tiny" id="Capa_1" xmlns="http://www.w3.org/2000/svg" xmlns:xlink="http://www.w3.org/1999/xlink"
	 x="0px" y="0px" width="558px" height="558px" viewBox="0 0 558 558" xml:space="preserve">
<circle fill="#E57505" cx="279" cy="279" r="279"/>
<g>
	<path fill="#FFFFFF" d="M185.298,415.551c13.964-0.158,27.027-5.749,36.786-15.73l107.272-109.75
		c6.514-6.663,10.187-15.822,10.081-25.138c-0.107-9.438-3.892-18.284-10.659-24.9c-13.96-13.626-36.403-13.37-50.029,0.568
		l-73.262,74.957c-3.775,3.857-3.705,10.046,0.157,13.82c3.861,3.775,10.049,3.704,13.824-0.156l73.262-74.957
		c6.094-6.255,16.147-6.352,22.385-0.254c3.029,2.962,4.728,6.922,4.776,11.144c0.047,4.163-1.597,8.267-4.516,11.252
		L208.103,386.154c-12.229,12.492-33.765,12.737-46.276,0.525c-12.897-12.617-13.133-33.368-0.526-46.278l159.752-163.435
		c9.233-9.441,21.583-14.721,34.783-14.87c13.201-0.15,25.67,4.847,35.112,14.076s14.727,21.588,14.876,34.78
		c0.15,13.194-4.844,25.66-14.073,35.103l-125.76,128.644c-3.775,3.861-3.705,10.046,0.157,13.821
		c3.861,3.774,10.046,3.704,13.821-0.157l125.763-128.641c12.88-13.17,19.851-30.569,19.642-48.992
		c-0.209-18.42-7.583-35.656-20.762-48.539c-13.164-12.883-30.574-19.854-48.998-19.645c-18.423,0.21-35.667,7.574-48.539,20.754
		L147.321,326.737c-20.146,20.609-19.769,53.774,0.84,73.924C158.145,410.417,171.331,415.71,185.298,415.551z"/>
</g>
</svg>
