<?xml version="1.0" encoding="utf-8"?>
<!-- Generator: Adobe Illustrator 16.0.0, SVG Export Plug-In . SVG Version: 6.00 Build 0)  -->
<!DOCTYPE svg PUBLIC "-//W3C//DTD SVG 1.1 Tiny//EN" "http://www.w3.org/Graphics/SVG/1.1/DTD/svg11-tiny.dtd">
<svg version="1.1" baseProfile="tiny" id="Capa_1" xmlns="http://www.w3.org/2000/svg" xmlns:xlink="http://www.w3.org/1999/xlink"
	 x="0px" y="0px" width="558px" height="558px" viewBox="0 0 558 558" xml:space="preserve">
<circle fill="#E57505" cx="279" cy="279" r="279"/>
<g>
	<path fill="#FFFFFF" d="M441,148.602h-67.359v-22.563c0-9.039-7.281-16.32-16.32-16.32h-61.922V99.32
		c0-9.039-7.277-16.32-16.32-16.32c-9.039,0-16.32,7.281-16.32,16.32v10.398H200.84c-9.039,0-16.32,7.281-16.32,16.32v22.563H117
		c-9.039,0-16.32,7.277-16.32,16.32V436.68c0,21.121,17.199,38.32,38.32,38.32h280c21.121,0,38.32-17.199,38.32-38.32V165
		C457.32,155.961,449.961,148.602,441,148.602L441,148.602z M217.078,142.359h123.84v42.961h-123.84V142.359z M424.68,436.68
		c0,3.121-2.559,5.602-5.602,5.602H139c-3.121,0-5.602-2.563-5.602-5.602V181.32h51.043v20.398c0,9.043,7.277,16.32,16.316,16.32
		H357.32c9.039,0,16.32-7.277,16.32-16.32V181.32h51.039V436.68z M424.68,436.68"/>
	<path fill="#FFFFFF" d="M320.602,278.441l-60.961,60.957l-22.883-20.797c-6.719-6.082-17.039-5.602-23.039,1.117
		c-6.078,6.641-5.598,17.043,1.121,23.043l34.398,31.277c3.121,2.801,7.043,4.242,10.961,4.242c4.16,0,8.402-1.602,11.52-4.801
		l71.922-71.922c6.398-6.398,6.398-16.719,0-23.117C337.32,272.039,327,272.039,320.602,278.441L320.602,278.441z M320.602,278.441"
		/>
</g>
</svg>
