<?xml version="1.0" encoding="utf-8"?>
<!-- Generator: Adobe Illustrator 16.0.0, SVG Export Plug-In . SVG Version: 6.00 Build 0)  -->
<!DOCTYPE svg PUBLIC "-//W3C//DTD SVG 1.1 Tiny//EN" "http://www.w3.org/Graphics/SVG/1.1/DTD/svg11-tiny.dtd">
<svg version="1.1" baseProfile="tiny" id="Capa_1" xmlns="http://www.w3.org/2000/svg" xmlns:xlink="http://www.w3.org/1999/xlink"
	 x="0px" y="0px" width="558px" height="558px" viewBox="0 0 558 558" xml:space="preserve">
<circle fill="#E57505" cx="279" cy="279" r="279"/>
<g>
	<path fill="#FFFFFF" d="M437.109,112.471H120.89c-15.945,0-28.914,12.971-28.914,28.917v187.388
		c0,15.944,12.969,28.915,28.914,28.915h117.118c3.033,0,5.491-2.46,5.491-5.491c0-3.03-2.458-5.49-5.491-5.49H120.89
		c-9.891,0-17.936-8.045-17.936-17.934V141.388c0-9.891,8.045-17.937,17.936-17.937h316.22c9.89,0,17.937,8.046,17.937,17.937
		v187.388c0,3.033,2.458,5.489,5.491,5.489c3.028,0,5.487-2.456,5.487-5.489V141.388
		C466.024,125.441,453.054,112.471,437.109,112.471L437.109,112.471z M437.109,112.471"/>
	<path fill="#FFFFFF" d="M243.863,305.717H138.457c-3.029,0-5.49,2.459-5.49,5.49s2.461,5.49,5.49,5.49h105.407
		c3.033,0,5.491-2.459,5.491-5.49S246.896,305.717,243.863,305.717L243.863,305.717z M243.863,305.717"/>
	<path fill="#FFFFFF" d="M202.506,205.801v-23.426c0-9.482-7.716-17.197-17.203-17.197H150.17c-9.486,0-17.203,7.715-17.203,17.197
		v23.426c0,9.485,7.717,17.201,17.203,17.201h35.133C194.79,223.002,202.506,215.286,202.506,205.801L202.506,205.801z
		 M143.949,205.801v-6.224h6.221c3.03,0,5.49-2.458,5.49-5.489s-2.46-5.49-5.49-5.49h-6.221v-6.223c0-3.428,2.79-6.218,6.221-6.218
		h12.078v35.865H150.17C146.739,212.022,143.949,209.23,143.949,205.801L143.949,205.801z M185.303,212.022h-12.076v-35.865h12.076
		c3.433,0,6.225,2.79,6.225,6.218v6.223h-6.225c-3.028,0-5.488,2.459-5.488,5.49s2.46,5.489,5.488,5.489h6.225v6.224
		C191.527,209.23,188.735,212.022,185.303,212.022L185.303,212.022z M185.303,212.022"/>
	<path fill="#FFFFFF" d="M132.967,276.072c0,3.031,2.461,5.49,5.49,5.49c3.031,0,5.492-2.459,5.492-5.49v-11.711
		c0-3.031-2.461-5.491-5.492-5.491c-3.029,0-5.49,2.46-5.49,5.491V276.072z M132.967,276.072"/>
	<path fill="#FFFFFF" d="M150.533,264.361v11.711c0,3.031,2.46,5.49,5.492,5.49c3.032,0,5.49-2.459,5.49-5.49v-11.711
		c0-3.031-2.458-5.491-5.49-5.491C152.994,258.87,150.533,261.33,150.533,264.361L150.533,264.361z M150.533,264.361"/>
	<path fill="#FFFFFF" d="M168.101,264.361v11.711c0,3.031,2.46,5.49,5.49,5.49c3.033,0,5.49-2.459,5.49-5.49v-11.711
		c0-3.031-2.457-5.491-5.49-5.491C170.561,258.87,168.101,261.33,168.101,264.361L168.101,264.361z M168.101,264.361"/>
	<path fill="#FFFFFF" d="M185.667,264.361v11.711c0,3.031,2.461,5.49,5.491,5.49c3.034,0,5.491-2.459,5.491-5.49v-11.711
		c0-3.031-2.457-5.491-5.491-5.491C188.128,258.87,185.667,261.33,185.667,264.361L185.667,264.361z M185.667,264.361"/>
	<path fill="#FFFFFF" d="M220.073,276.072v-11.711c0-3.031-2.46-5.491-5.488-5.491c-3.033,0-5.49,2.46-5.49,5.491v11.711
		c0,3.031,2.457,5.49,5.49,5.49C217.613,281.563,220.073,279.104,220.073,276.072L220.073,276.072z M220.073,276.072"/>
	<path fill="#FFFFFF" d="M237.642,276.072v-11.711c0-3.031-2.46-5.491-5.49-5.491c-3.032,0-5.49,2.46-5.49,5.491v11.711
		c0,3.031,2.458,5.49,5.49,5.49C235.181,281.563,237.642,279.104,237.642,276.072L237.642,276.072z M237.642,276.072"/>
	<path fill="#FFFFFF" d="M249.718,258.87c-3.031,0-5.49,2.46-5.49,5.491v11.711c0,3.031,2.459,5.49,5.49,5.49
		c3.035,0,5.49-2.459,5.49-5.49v-11.711C255.208,261.33,252.753,258.87,249.718,258.87L249.718,258.87z M249.718,258.87"/>
	<path fill="#FFFFFF" d="M272.779,276.072v-11.711c0-3.031-2.459-5.491-5.488-5.491c-3.038,0-5.49,2.46-5.49,5.491v11.711
		c0,3.031,2.452,5.49,5.49,5.49C270.32,281.563,272.779,279.104,272.779,276.072L272.779,276.072z M272.779,276.072"/>
	<path fill="#FFFFFF" d="M396.116,223.002c15.945,0,28.917-12.97,28.917-28.914c0-15.941-12.972-28.91-28.917-28.91h-35.134
		c-15.944,0-28.914,12.969-28.914,28.91c0,15.944,12.97,28.914,28.914,28.914H396.116z M343.05,194.088
		c0-9.885,8.044-17.931,17.933-17.931h35.134c9.89,0,17.936,8.046,17.936,17.931c0,9.891-8.045,17.935-17.936,17.935h-35.134
		C351.094,212.022,343.05,203.979,343.05,194.088L343.05,194.088z M343.05,194.088"/>
	<path fill="#FFFFFF" d="M349.271,258.87c-51.462,0-93.331,41.868-93.331,93.329s41.869,93.33,93.331,93.33
		s93.328-41.869,93.328-93.33S400.732,258.87,349.271,258.87L349.271,258.87z M349.271,434.548c-45.406,0-82.35-36.942-82.35-82.349
		c0-45.404,36.943-82.349,82.35-82.349c45.411,0,82.348,36.944,82.348,82.349C431.619,397.605,394.682,434.548,349.271,434.548
		L349.271,434.548z M349.271,434.548"/>
	<path fill="#FFFFFF" d="M349.961,408.718h0.779c3.368,0,6.098-2.728,6.098-6.096v-7.751c14.957-2.258,24.346-11.29,24.346-23.897
		c0.128-17.136-13.009-22.813-24.346-26.357v-25.032c4.182,0.626,8.271,1.956,11.237,3.732c2.85,1.709,6.544,0.822,8.306-1.998
		l0.347-0.556c0.865-1.384,1.139-3.059,0.76-4.646c-0.377-1.588-1.377-2.957-2.775-3.801c-4.906-2.969-11.428-5.053-17.875-5.799
		v-5.989c0-3.368-2.729-6.098-6.098-6.098h-0.779c-3.368,0-6.099,2.729-6.099,6.098v6.325c-13.861,2.22-22.552,10.549-22.552,22.115
		c0,16.221,12.769,22.055,22.552,25.262v27.666c-5.964-1.086-11.722-3.885-15.578-7.733c-2.383-2.378-6.241-2.378-8.619,0.005
		l-0.527,0.527c-1.156,1.154-1.799,2.729-1.785,4.361c0.013,1.635,0.681,3.194,1.855,4.33c6.389,6.183,15.482,10.406,24.653,11.623
		v7.612C343.862,405.99,346.593,408.718,349.961,408.718L349.961,408.718z M356.838,358.326c7.751,2.827,11.428,5.885,11.37,12.557
		v0.053c0,6.812-6.213,9.589-11.37,10.721V358.326z M334.286,328.969c0-5.424,5.092-7.818,9.576-8.877v20.262
		C336.676,337.357,334.286,334.234,334.286,328.969L334.286,328.969z M334.286,328.969"/>
</g>
</svg>
