<?xml version="1.0" encoding="utf-8"?>
<!-- Generator: Adobe Illustrator 16.0.0, SVG Export Plug-In . SVG Version: 6.00 Build 0)  -->
<!DOCTYPE svg PUBLIC "-//W3C//DTD SVG 1.1 Tiny//EN" "http://www.w3.org/Graphics/SVG/1.1/DTD/svg11-tiny.dtd">
<svg version="1.1" baseProfile="tiny" id="Capa_1" xmlns="http://www.w3.org/2000/svg" xmlns:xlink="http://www.w3.org/1999/xlink"
	 x="0px" y="0px" width="558px" height="558px" viewBox="0 0 558 558" xml:space="preserve">
<circle fill="#E57505" cx="279" cy="279" r="279"/>
<g>
	<path fill="#FFFFFF" d="M387.803,287.933c-29.304,0-53.83-23.666-53.83-53.832c0-29.309,23.664-53.834,53.83-53.834
		c29.31,0,53.835,23.666,53.835,53.834C441.638,264.267,417.112,287.933,387.803,287.933L387.803,287.933z M387.803,197.501
		c-20.37,0-37.531,17.085-37.531,37.537c0,20.455,17.081,37.535,37.531,37.535c20.455,0,37.535-17.08,37.535-37.535
		C425.337,214.587,408.961,197.501,387.803,197.501L387.803,197.501z M387.803,197.501"/>
	<path fill="#FFFFFF" d="M437.486,470.593h-99.44v-52.187h-31.814v-71.704c0-28.52,17.944-51.325,39.965-51.325h84.001
		c22.021,0,39.965,22.806,39.965,51.325v71.704h-31.814v52.187H437.486z M353.562,454.293h67.625v-52.187h31.815v-56.265
		c0-18.728-10.58-35.03-23.665-35.03h-83.141c-13.01,0-23.665,16.302-23.665,35.03v56.265h31.812v52.187H353.562z M353.562,454.293"
		/>
	<path fill="#FFFFFF" d="M169.333,287.933c-29.305,0-53.835-23.666-53.835-52.97c0-30.17,24.451-53.835,53.835-53.835
		c29.385,0,53.835,23.665,53.835,53.835C222.307,264.347,198.642,287.933,169.333,287.933L169.333,287.933z M169.333,197.501
		c-21.155,0-37.536,16.302-37.536,37.537c0,21.235,17.084,37.535,37.536,37.535c20.45,0,37.534-17.08,37.534-37.535
		C206.867,214.587,189.707,197.501,169.333,197.501L169.333,197.501z M169.333,197.501"/>
	<path fill="#FFFFFF" d="M219.016,470.593h-99.443v-52.187H87.838v-71.704c0-28.52,17.945-51.325,39.965-51.325h83.925
		c22.021,0,39.966,22.806,39.966,51.325v71.704h-31.816v52.187H219.016z M135.088,454.293h67.629v-52.187h31.814v-56.265
		c0-18.728-10.579-35.03-23.666-35.03h-83.924c-13.009,0-23.664,16.302-23.664,35.03v56.265h31.811V454.293z M135.088,454.293"/>
	<path fill="#FFFFFF" d="M232.883,195.078v-20.376h-5.721c-4.075,0-8.146-3.29-8.146-8.15V95.557c0-4.074,3.292-8.15,8.146-8.15
		h118.17c4.074,0,8.149,3.29,8.149,8.15v71.701c0,4.074-3.29,8.149-8.149,8.149h-73.345l-26.095,26.094
		C241.347,205.339,232.883,203.066,232.883,195.078L232.883,195.078z M235.313,159.187h5.72c4.074,0,8.151,3.291,8.151,8.15v8.931
		l14.653-14.65c1.645-1.65,3.29-2.43,5.72-2.43h68.489v-55.48H235.313V159.187z M235.313,159.187"/>
</g>
</svg>
