<?xml version="1.0" encoding="utf-8"?>
<!-- Generator: Adobe Illustrator 16.0.0, SVG Export Plug-In . SVG Version: 6.00 Build 0)  -->
<!DOCTYPE svg PUBLIC "-//W3C//DTD SVG 1.1 Tiny//EN" "http://www.w3.org/Graphics/SVG/1.1/DTD/svg11-tiny.dtd">
<svg version="1.1" baseProfile="tiny" id="Capa_1" xmlns="http://www.w3.org/2000/svg" xmlns:xlink="http://www.w3.org/1999/xlink"
	 x="0px" y="0px" width="558px" height="558px" viewBox="0 0 558 558" xml:space="preserve">
<circle fill="#E57505" cx="279" cy="279" r="279"/>
<g>
	<g>
		<path fill="#FFFFFF" d="M409.858,170.744l-64.099-64.098c-2.149-2.145-5.062-3.352-8.094-3.352H156.235
			c-6.32,0-11.445,5.123-11.445,11.443V414.92c0,6.33,5.125,11.453,11.445,11.453h54.659v16.883c0,4.221,2.322,8.098,6.043,10.09
			c3.727,1.994,8.238,1.775,11.751-0.564l21.982-14.658l21.982,14.658c1.912,1.275,4.125,1.924,6.35,1.924
			c1.849,0,3.709-0.451,5.396-1.359c3.721-1.992,6.049-5.869,6.049-10.09v-16.883h111.317c6.32,0,11.445-5.123,11.445-11.453
			V178.838C413.21,175.807,412.008,172.893,409.858,170.744L409.858,170.744z M349.11,142.379l25.021,25.016H349.11V142.379z
			 M280.592,328.627c-1.832,1.988-2.895,4.557-3.011,7.262l-0.468,11.047l-11.046,0.467c-2.697,0.117-5.269,1.18-7.262,3.004
			l-8.135,7.477l-8.141-7.477c-1.987-1.824-4.558-2.887-7.256-3.004l-11.046-0.467l-0.469-11.047
			c-0.115-2.699-1.178-5.268-3.01-7.262l-7.476-8.137l7.476-8.133c1.826-1.994,2.895-4.564,3.01-7.262l0.469-11.045l11.046-0.469
			c2.698-0.121,5.269-1.186,7.256-3.012l8.141-7.475l8.135,7.475c1.993,1.826,4.564,2.891,7.262,3.012l11.046,0.469l0.468,11.045
			c0.116,2.697,1.179,5.268,3.011,7.256l7.476,8.139L280.592,328.627z M257.021,414.846c-1.924-1.281-4.137-1.924-6.35-1.924
			s-4.425,0.643-6.349,1.924l-10.533,7.021v-48.402l9.141,8.393c2.189,2.01,4.963,3.023,7.741,3.023
			c2.779,0,5.558-1.014,7.747-3.023l9.141-8.393v48.402L257.021,414.846z M290.447,403.477v-34.355
			c5.044-1.053,8.868-5.404,9.094-10.711l0.734-17.375l11.762-12.801c4.027-4.381,4.027-11.109,0-15.49l-11.762-12.803
			l-0.734-17.371c-0.249-5.939-5.009-10.699-10.948-10.947l-17.377-0.74l-12.798-11.762c-4.385-4.021-11.109-4.021-15.488,0
			l-12.803,11.762l-17.372,0.74c-5.945,0.248-10.7,5.008-10.954,10.951l-0.733,17.373l-11.764,12.797
			c-4.026,4.381-4.026,11.109,0,15.49l11.758,12.801l0.739,17.375c0.226,5.301,4.044,9.658,9.094,10.711v34.355h-43.209V126.191
			h158.535v52.646c0,6.326,5.124,11.451,11.445,11.451h52.654v213.188H290.447z M290.447,403.477"/>
	</g>
</g>
</svg>
