<?xml version="1.0" encoding="utf-8"?>
<!-- Generator: Adobe Illustrator 16.0.0, SVG Export Plug-In . SVG Version: 6.00 Build 0)  -->
<!DOCTYPE svg PUBLIC "-//W3C//DTD SVG 1.1 Tiny//EN" "http://www.w3.org/Graphics/SVG/1.1/DTD/svg11-tiny.dtd">
<svg version="1.1" baseProfile="tiny" id="Capa_1" xmlns="http://www.w3.org/2000/svg" xmlns:xlink="http://www.w3.org/1999/xlink"
	 x="0px" y="0px" width="558px" height="558px" viewBox="0 0 558 558" xml:space="preserve">
<circle fill="#E57505" cx="279" cy="279" r="279"/>
<g>
	<path fill="#FFFFFF" d="M380.576,240.155h-11.91v-33.484c0-49.499-40.233-89.798-89.732-89.798
		c-49.498,0-89.732,40.299-89.732,89.732v33.485h-11.846c-11.713,0-21.241,9.528-21.241,21.242v158.553
		c0,11.713,9.528,21.241,21.241,21.241h203.289c11.713,0,21.241-9.528,21.241-21.241V261.333
		C401.818,249.684,392.289,240.155,380.576,240.155L380.576,240.155z M216.2,206.605c0-34.608,28.124-62.732,62.733-62.732
		s62.733,28.124,62.733,62.732v33.417H216.2V206.605z M374.755,414.128H183.113V267.155h191.705v146.973H374.755z M374.755,414.128"
		/>
	<path fill="#FFFFFF" d="M278.934,393.945c7.477,0,13.5-6.023,13.5-13.5v-34.809c0-7.477-6.023-13.5-13.5-13.5
		s-13.5,6.023-13.5,13.5v34.809C265.434,387.858,271.457,393.945,278.934,393.945L278.934,393.945z M278.934,393.945"/>
</g>
</svg>
