<svg id="Capa_1" data-name="Capa 1" xmlns="http://www.w3.org/2000/svg" viewBox="0 0 1024 1024"><defs><style>.cls-1{fill:#e57505;}.cls-2{fill:#fff;}</style></defs><title>facil</title><circle class="cls-1" cx="512" cy="512" r="512"/><path class="cls-2" d="M656.12,537.42,550,521.09c-8.17-2-18.37-4.08-26.54-4.08H496.88V394.51c0-12.25-8.17-20.42-20.42-20.42S456,382.26,456,394.51V623.17l-28.58-22.46c-20.42-16.33-51-16.33-73.5,0L456,735.46l12.25,12.25A49.25,49.25,0,0,0,503,762h96a81.91,81.91,0,0,0,81.67-81.67V568C680.62,555.8,670.42,543.55,656.12,537.42Z"/><path class="cls-2" d="M411,397.06H353.58a10.21,10.21,0,1,1,0-20.42H411a10.21,10.21,0,0,1,0,20.42Z"/><path class="cls-2" d="M603.23,397.06H545.76a10.21,10.21,0,1,1,0-20.42h57.46a10.21,10.21,0,1,1,0,20.42Z"/><path class="cls-2" d="M473.91,339.86a10.2,10.2,0,0,1-10.21-10.21V272.21a10.21,10.21,0,1,1,20.42,0v57.44A10.2,10.2,0,0,1,473.91,339.86Z"/></svg>