<?xml version="1.0" encoding="utf-8"?>
<!-- Generator: Adobe Illustrator 16.0.0, SVG Export Plug-In . SVG Version: 6.00 Build 0)  -->
<!DOCTYPE svg PUBLIC "-//W3C//DTD SVG 1.1 Tiny//EN" "http://www.w3.org/Graphics/SVG/1.1/DTD/svg11-tiny.dtd">
<svg version="1.1" baseProfile="tiny" id="Capa_1" xmlns="http://www.w3.org/2000/svg" xmlns:xlink="http://www.w3.org/1999/xlink"
	 x="0px" y="0px" width="558px" height="558px" viewBox="0 0 558 558" xml:space="preserve">
<circle fill="#E57505" cx="279" cy="279" r="279"/>
<g>
	<g>
		<path fill="none" d="M185.06,303.66c-41.41,0-75.11,32.56-75.11,72.61c0,1.1,0.08,2.17,0.17,3.25l0.07,1.14
			c1.22,19.42,10.44,37.28,25.46,50.03c0.44-0.42,0.82-0.92,1.28-1.32c4.18-3.7,8.61-7.08,13.42-9.89c2.74-1.61,5.66-2.9,8.65-3.96
			c7.31-2.6,15.09-3.84,22.84-4.1l-4.41,36.91c-2.02-0.2-4.03-0.49-6.03-0.81c4.5,0.81,9.04,1.36,13.66,1.36
			c3.12,0,6.2-0.3,9.28-0.67l-3.5-36.63c7.1,0.48,14.2,1.79,20.94,4.11c7.26,2.51,13.51,6.5,19.55,11.15
			c1.3,1.02,2.45,2.26,3.69,3.37c-0.83,0.72-1.61,1.48-2.48,2.17c16.19-12.82,26.11-31.42,27.36-51.71l0.08-1.15
			c0.08-1.08,0.14-2.15,0.14-3.25C260.12,336.22,226.44,303.66,185.06,303.66z M185.71,407.35c-22.9,0-41.45-18.5-41.45-41.36
			c0-22.85,18.55-41.36,41.45-41.36s41.48,18.51,41.48,41.36C227.19,388.85,208.61,407.35,185.71,407.35z"/>
		<path fill="none" d="M372.88,109.12c-41.399,0-75.1,32.56-75.1,72.61c0,1.1,0.08,2.17,0.16,3.25l0.079,1.14
			c1.211,19.43,10.44,37.29,25.461,50.04c0.439-0.42,0.829-0.92,1.279-1.32c4.181-3.71,8.601-7.09,13.42-9.9
			c2.74-1.6,5.66-2.89,8.641-3.95c7.319-2.61,15.1-3.85,22.85-4.1l-4.41,36.91c-2.02-0.21-4.029-0.49-6.029-0.82
			c4.489,0.82,9.039,1.37,13.659,1.37c3.12,0,6.2-0.3,9.28-0.67l-3.5-36.64c7.1,0.49,14.2,1.79,20.94,4.12
			c7.25,2.5,13.51,6.49,19.54,11.15c1.31,1.01,2.46,2.25,3.689,3.36c-0.62,0.54-1.2,1.1-1.82,1.64
			c15.811-12.79,25.471-31.16,26.711-51.18l0.069-1.15c0.09-1.08,0.15-2.15,0.15-3.25C447.95,141.68,414.27,109.12,372.88,109.12z
			 M373.54,212.81c-22.9,0-41.46-18.5-41.46-41.36c0-22.84,18.56-41.36,41.46-41.36c22.89,0,41.479,18.52,41.479,41.36
			C415.02,194.31,396.43,212.81,373.54,212.81z"/>
		<path fill="#FFFFFF" d="M372.89,83.7c-55.939,0-101.399,43.97-101.399,98.03c0,1.25,0.07,2.48,0.15,3.71l0.09,1.31
			c2.76,52.17,47.19,93.02,101.16,93.02c53.94,0,98.36-40.85,101.12-92.99l0.09-1.34c0.08-1.23,0.17-2.45,0.17-3.71
			C474.27,127.67,428.78,83.7,372.89,83.7z M447.8,184.98l-0.069,1.15c-1.24,20.02-10.9,38.39-26.711,51.18
			c0.62-0.54,1.2-1.1,1.82-1.64c-1.229-1.11-2.38-2.35-3.689-3.36c-6.03-4.66-12.29-8.65-19.54-11.15
			c-6.74-2.33-13.841-3.63-20.94-4.12l3.5,36.64c-3.08,0.37-6.16,0.67-9.28,0.67c-4.62,0-9.17-0.55-13.659-1.37
			c2,0.33,4.01,0.61,6.029,0.82l4.41-36.91c-7.75,0.25-15.53,1.49-22.85,4.1c-2.98,1.06-5.9,2.35-8.641,3.95
			c-4.819,2.81-9.239,6.19-13.42,9.9c-0.45,0.4-0.84,0.9-1.279,1.32c-15.021-12.75-24.25-30.61-25.461-50.04l-0.079-1.14
			c-0.08-1.08-0.16-2.15-0.16-3.25c0-40.05,33.7-72.61,75.1-72.61c41.39,0,75.07,32.56,75.07,72.61
			C447.95,182.83,447.89,183.9,447.8,184.98z"/>
		<path fill="#FFFFFF" d="M363.17,382.27c-4.28-4.7-11.66-5.11-16.5-0.97l-40.31,34.48l39.8,38.49c2.3,2.21,5.26,3.32,8.26,3.32
			s5.99-1.11,8.271-3.32c4.579-4.4,4.579-11.57,0-15.99l-9.271-8.95h90.83V314.39c0-6.24-5.22-11.3-11.69-11.3
			c-6.46,0-11.689,5.06-11.689,11.3v92.33h-68.62l9.91-8.49C367.01,394.08,367.46,386.94,363.17,382.27z"/>
		<path fill="#FFFFFF" d="M373.54,130.09c-22.9,0-41.46,18.52-41.46,41.36c0,22.86,18.56,41.36,41.46,41.36
			c22.89,0,41.479-18.5,41.479-41.36C415.02,148.61,396.43,130.09,373.54,130.09z"/>
		<path fill="#FFFFFF" d="M115.54,236.64c0,6.24,5.23,11.3,11.69,11.3c6.47,0,11.71-5.06,11.71-11.3v-92.32h68.62l-9.93,8.49
			c-4.82,4.14-5.28,11.28-1.01,15.95c2.33,2.54,5.53,3.81,8.75,3.81c2.77,0,5.53-0.92,7.76-2.83l40.33-34.5l-39.82-38.49
			c-4.56-4.41-11.95-4.41-16.52,0c-4.58,4.41-4.58,11.57,0,15.99l9.25,8.97h-90.83V236.64z"/>
		<path fill="#FFFFFF" d="M185.71,324.63c-22.9,0-41.45,18.51-41.45,41.36c0,22.86,18.55,41.36,41.45,41.36s41.48-18.5,41.48-41.36
			C227.19,343.14,208.61,324.63,185.71,324.63z"/>
		<path fill="#FFFFFF" d="M185.06,278.23c-54.738,0-99.433,42.112-101.33,94.571v5.674c0.027,0.502,0.057,1.004,0.089,1.505
			l0.08,1.31c2.77,52.16,47.19,93.01,101.16,93.01c53.94,0,98.36-40.85,101.12-92.98l0.09-1.34c0.091-1.23,0.171-2.46,0.171-3.71
			C286.44,322.21,240.96,278.23,185.06,278.23z M259.98,379.52l-0.08,1.15c-1.25,20.29-11.17,38.89-27.36,51.71
			c0.87-0.69,1.65-1.45,2.48-2.17c-1.24-1.11-2.39-2.35-3.69-3.37c-6.04-4.65-12.29-8.64-19.55-11.15
			c-6.74-2.32-13.84-3.63-20.94-4.11l3.5,36.63c-3.08,0.37-6.16,0.67-9.28,0.67c-4.62,0-9.16-0.55-13.66-1.36
			c2,0.32,4.01,0.61,6.03,0.81l4.41-36.91c-7.75,0.26-15.53,1.5-22.84,4.1c-2.99,1.06-5.91,2.35-8.65,3.96
			c-4.81,2.81-9.24,6.19-13.42,9.89c-0.46,0.4-0.84,0.9-1.28,1.32c-15.02-12.75-24.24-30.61-25.46-50.03l-0.07-1.14
			c-0.09-1.08-0.17-2.15-0.17-3.25c0-40.05,33.7-72.61,75.11-72.61c41.38,0,75.06,32.56,75.06,72.61
			C260.12,377.37,260.06,378.44,259.98,379.52z"/>
	</g>
</g>
</svg>
