<?xml version="1.0" encoding="utf-8"?>
<!-- Generator: Adobe Illustrator 16.0.0, SVG Export Plug-In . SVG Version: 6.00 Build 0)  -->
<!DOCTYPE svg PUBLIC "-//W3C//DTD SVG 1.1 Tiny//EN" "http://www.w3.org/Graphics/SVG/1.1/DTD/svg11-tiny.dtd">
<svg version="1.1" baseProfile="tiny" id="Capa_1" xmlns="http://www.w3.org/2000/svg" xmlns:xlink="http://www.w3.org/1999/xlink"
	 x="0px" y="0px" width="558px" height="558px" viewBox="0 0 558 558" xml:space="preserve">
<circle fill="#E57505" cx="279" cy="279" r="279"/>
<g>
	<rect x="196.035" y="230.758" fill="#FFFFFF" width="167.217" height="12.885"/>
	<g>
		<rect x="196.035" y="192.196" fill="#FFFFFF" width="167.217" height="12.816"/>
		<path fill="#FFFFFF" d="M401.883,210.163v-43.73c0-14.133-11.619-25.759-25.75-25.759h-52.771l-43.713-38.563l-43.723,38.563
			h-52.762c-14.133,0-25.758,11.626-25.758,25.759v43.73l-38.568,33.479v180.083c0,14.133,11.555,25.755,25.75,25.755h270.111
			c14.195,0,25.75-11.622,25.75-25.755V243.643L401.883,210.163z M401.883,226.932l19.287,16.711l-19.287,16.709V226.932z
			 M279.648,118.821l24.434,21.853h-50.193L279.648,118.821z M170.285,166.433c0-7.716,5.146-12.875,12.879-12.875h192.969
			c6.398,0,12.869,6.476,12.869,12.875v104.203l-41.207,37.323H211.492l-41.207-36.053V166.433z M305.398,346.525h-43.785h21.865
			h-29.59l-28.264-25.691H332.41L305.398,346.525z M157.406,226.932v34.732l-19.279-18.021L157.406,226.932z M135.549,432.707
			c-2.578-2.577-3.83-5.15-3.83-8.981V256.518l102.893,90.008L135.549,432.707z M150.996,436.601l90.076-77.196h77.143
			l90.076,77.196H150.996z M427.568,340.117v83.608c0,3.831-1.252,6.404-3.83,8.981l-99.053-86.182l102.883-90.008V340.117z
			 M427.568,340.117"/>
	</g>
	<rect x="196.035" y="269.315" fill="#FFFFFF" width="167.217" height="12.889"/>
</g>
</svg>
