<?xml version="1.0" encoding="utf-8"?>
<!-- Generator: Adobe Illustrator 16.0.0, SVG Export Plug-In . SVG Version: 6.00 Build 0)  -->
<!DOCTYPE svg PUBLIC "-//W3C//DTD SVG 1.1 Tiny//EN" "http://www.w3.org/Graphics/SVG/1.1/DTD/svg11-tiny.dtd">
<svg version="1.1" baseProfile="tiny" id="Capa_1" xmlns="http://www.w3.org/2000/svg" xmlns:xlink="http://www.w3.org/1999/xlink"
	 x="0px" y="0px" width="558px" height="558px" viewBox="0 0 558 558" xml:space="preserve">
<circle fill="#E57505" cx="279" cy="279" r="279"/>
<path fill="#FFFFFF" d="M279,110.746c-92.776,0-168.255,75.48-168.255,168.256c0,92.771,75.479,168.252,168.255,168.252
	c92.774,0,168.255-75.48,168.255-168.256c0-18.647-3.025-36.957-8.998-54.419c-2.001-5.856,1.126-12.24,6.989-14.243
	c5.872-1.99,12.237,1.131,14.241,6.988c6.766,19.807,10.2,40.559,10.2,61.678c0,105.146-85.54,190.686-190.688,190.686l0,0
	c-105.146,0-190.687-85.54-190.687-190.689c0-105.146,85.54-190.686,190.687-190.686"/>
<path fill="#FFFFFF" d="M408.592,177.102c4.739,3.992,5.345,11.063,1.349,15.803L254.945,376.908
	c-1.984,2.355-4.852,3.789-7.922,3.975c-0.215,0.008-0.439,0.016-0.655,0.016l0,0c-2.845,0-5.597-1.08-7.677-3.043l-89.736-84.295
	c-4.516-4.242-4.739-11.344-0.498-15.857c4.243-4.508,11.338-4.744,15.857-0.49l81.104,76.188l147.37-174.949"/>
</svg>
