<?xml version="1.0" encoding="utf-8"?>
<!-- Generator: Adobe Illustrator 16.0.0, SVG Export Plug-In . SVG Version: 6.00 Build 0)  -->
<!DOCTYPE svg PUBLIC "-//W3C//DTD SVG 1.1 Tiny//EN" "http://www.w3.org/Graphics/SVG/1.1/DTD/svg11-tiny.dtd">
<svg version="1.1" baseProfile="tiny" id="Capa_1" xmlns="http://www.w3.org/2000/svg" xmlns:xlink="http://www.w3.org/1999/xlink"
	 x="0px" y="0px" width="558px" height="558px" viewBox="0 0 558 558" xml:space="preserve">
<circle fill="#E57505" cx="279" cy="279" r="279"/>
<g>
	<g>
		<path fill="#FFFFFF" d="M401.716,107.062h-61.339c-0.007,0-0.012,0-0.015,0c-5.601-7.446-14.508-12.269-24.522-12.269h-15.63
			c-4.328-7.484-12.37-12.269-21.172-12.269s-16.843,4.784-21.171,12.269h-15.631c-10.014,0-18.921,4.822-24.521,12.269
			c-0.004,0-0.012,0-0.016,0h-61.338c-16.91,0-30.67,13.759-30.67,30.669v306.693c0,16.911,13.76,30.67,30.67,30.67h245.354
			c16.911,0,30.669-13.759,30.669-30.67V137.73C432.385,120.82,418.627,107.062,401.716,107.062L401.716,107.062z M223.832,125.463
			c0-10.146,8.255-18.401,18.404-18.401h19.528c2.595,0,4.907-1.636,5.78-4.081c1.741-4.896,6.357-8.188,11.493-8.188
			c5.138,0,9.753,3.291,11.494,8.188c0.872,2.445,3.186,4.081,5.78,4.081h19.527c10.149,0,18.404,8.255,18.404,18.401v18.4H223.832
			V125.463z M420.116,444.424c0,10.146-8.255,18.4-18.4,18.4H156.361c-10.146,0-18.4-8.254-18.4-18.4V137.73
			c0-10.148,8.255-18.404,18.4-18.404h55.82c-0.4,1.984-0.614,4.036-0.614,6.137v24.533c0,3.388,2.744,6.136,6.132,6.136h122.678
			c3.388,0,6.133-2.748,6.133-6.136v-24.533c0-2.101-0.214-4.152-0.614-6.137h55.82c10.146,0,18.4,8.256,18.4,18.404V444.424z
			 M420.116,444.424"/>
	</g>
	<path fill="#FFFFFF" d="M401.716,131.595h-36.802c-3.388,0-6.137,2.748-6.137,6.136c0,3.385,2.749,6.133,6.137,6.133h30.669
		v294.425h-233.09V143.863h30.669c3.389,0,6.137-2.748,6.137-6.133c0-3.388-2.748-6.136-6.137-6.136h-36.801
		c-3.389,0-6.133,2.748-6.133,6.136v306.693c0,3.385,2.744,6.133,6.133,6.133h245.354c3.388,0,6.132-2.748,6.132-6.133V137.73
		C407.848,134.343,405.104,131.595,401.716,131.595L401.716,131.595z M401.716,131.595"/>
	<path fill="#FFFFFF" d="M279.038,107.062c-1.617,0-3.196,0.651-4.339,1.793c-1.142,1.142-1.793,2.722-1.793,4.339
		c0,1.61,0.651,3.197,1.793,4.34c1.143,1.142,2.722,1.793,4.339,1.793c1.61,0,3.198-0.651,4.34-1.793
		c1.142-1.143,1.793-2.722,1.793-4.34c0-1.617-0.651-3.197-1.793-4.339C282.236,107.709,280.648,107.062,279.038,107.062
		L279.038,107.062z M279.038,107.062"/>
	<path fill="#FFFFFF" d="M182.691,225.399c-2.396,2.396-2.396,6.278,0,8.675l18.404,18.4c1.198,1.198,2.767,1.797,4.336,1.797
		c1.572,0,3.141-0.599,4.339-1.797l30.669-30.669c2.396-2.396,2.396-6.278,0-8.675c-2.396-2.396-6.278-2.396-8.674,0l-26.334,26.334
		l-14.063-14.065C188.974,223.004,185.088,223.004,182.691,225.399L182.691,225.399z M182.691,225.399"/>
	<path fill="#FFFFFF" d="M240.439,280.605c-2.396-2.396-6.278-2.396-8.674,0l-26.334,26.331l-14.063-14.065
		c-2.396-2.393-6.281-2.393-8.674,0c-2.396,2.396-2.396,6.281,0,8.674l18.4,18.404c1.198,1.195,2.767,1.794,4.336,1.794
		c1.572,0,3.141-0.599,4.339-1.794l30.669-30.669C242.836,286.885,242.836,282.998,240.439,280.605L240.439,280.605z
		 M240.439,280.605"/>
	<path fill="#FFFFFF" d="M231.766,348.077l-26.334,26.33l-14.063-14.062c-2.396-2.396-6.281-2.396-8.674,0
		c-2.396,2.396-2.396,6.278,0,8.674l18.4,18.401c1.198,1.198,2.767,1.797,4.336,1.797c1.572,0,3.141-0.599,4.339-1.797
		l30.669-30.669c2.396-2.396,2.396-6.279,0-8.675C238.044,345.682,234.157,345.682,231.766,348.077L231.766,348.077z
		 M231.766,348.077"/>
	<path fill="#FFFFFF" d="M266.77,235.871h104.277c3.388,0,6.132-2.748,6.132-6.133c0-3.388-2.744-6.135-6.132-6.135H266.77
		c-3.388,0-6.133,2.747-6.133,6.135C260.637,233.123,263.382,235.871,266.77,235.871L266.77,235.871z M266.77,235.871"/>
	<path fill="#FFFFFF" d="M266.77,303.343h104.277c3.388,0,6.132-2.745,6.132-6.133s-2.744-6.132-6.132-6.132H266.77
		c-3.388,0-6.133,2.744-6.133,6.132S263.382,303.343,266.77,303.343L266.77,303.343z M266.77,303.343"/>
	<path fill="#FFFFFF" d="M266.77,370.817h104.277c3.388,0,6.132-2.748,6.132-6.137c0-3.384-2.744-6.132-6.132-6.132H266.77
		c-3.388,0-6.133,2.748-6.133,6.132C260.637,368.069,263.382,370.817,266.77,370.817L266.77,370.817z M266.77,370.817"/>
</g>
</svg>
