<?xml version="1.0" encoding="utf-8"?>
<!-- Generator: Adobe Illustrator 16.0.0, SVG Export Plug-In . SVG Version: 6.00 Build 0)  -->
<!DOCTYPE svg PUBLIC "-//W3C//DTD SVG 1.1 Tiny//EN" "http://www.w3.org/Graphics/SVG/1.1/DTD/svg11-tiny.dtd">
<svg version="1.1" baseProfile="tiny" id="Capa_1" xmlns="http://www.w3.org/2000/svg" xmlns:xlink="http://www.w3.org/1999/xlink"
	 x="0px" y="0px" width="558px" height="558px" viewBox="0 0 558 558" xml:space="preserve">
<circle fill="#E57505" cx="279" cy="279" r="279"/>
<g>
	<g>
		<path fill="#FFFFFF" d="M195.877,154.881c-7.012,0-13.147,4.598-15.211,11.301L112.502,389.24
			c-1.498,4.834-0.619,10.055,2.369,14.129c3.045,4.074,7.787,6.445,12.84,6.445h26.143c7.117,0,13.407-4.795,15.314-11.652
			l14.955-53.936h72.961l16.291,54.283c2.012,6.715,8.202,11.355,15.262,11.355h28.557c5.066,0,9.859-2.422,12.85-6.496
			c2.992-4.074,3.867-9.332,2.373-14.193l-69.199-223.047c-2.059-6.709-8.197-11.248-15.209-11.248H195.877z M192.424,300.967
			c0,0,14.85-56.566,22.688-86.633c0.515-1.953,2.268-3.352,4.331-3.404c2.062,0,3.867,1.348,4.434,3.301l24.905,86.736H192.424z
			 M192.424,300.967"/>
	</g>
	<path fill="#FFFFFF" d="M396.868,200.213v-42.334c0-5.361-4.382-9.744-9.795-9.744h-16.964c-5.416,0-9.746,4.383-9.746,9.744
		v42.334h-39.652c-5.359,0-9.746,4.324-9.746,9.736v15.684c0,5.361,4.387,9.746,9.746,9.746h39.652v42.273
		c0,5.422,4.33,9.74,9.746,9.74h16.964c5.413,0,9.795-4.318,9.795-9.74v-42.273h39.601c5.363,0,9.746-4.385,9.746-9.746v-15.684
		c0-5.412-4.383-9.736-9.746-9.736H396.868z M396.868,200.213"/>
</g>
</svg>
