<?xml version="1.0" encoding="utf-8"?>
<!-- Generator: Adobe Illustrator 16.0.0, SVG Export Plug-In . SVG Version: 6.00 Build 0)  -->
<!DOCTYPE svg PUBLIC "-//W3C//DTD SVG 1.1 Tiny//EN" "http://www.w3.org/Graphics/SVG/1.1/DTD/svg11-tiny.dtd">
<svg version="1.1" baseProfile="tiny" id="Capa_1" xmlns="http://www.w3.org/2000/svg" xmlns:xlink="http://www.w3.org/1999/xlink"
	 x="0px" y="0px" width="558px" height="558px" viewBox="0 0 558 558" xml:space="preserve">
<circle fill="#E57505" cx="279" cy="279" r="279"/>
<g>
	<path fill="#FFFFFF" d="M222.479,347.803c-6.878,0-13.248,2.061-18.609,5.518c-5.983-14.687-20.396-25.058-37.218-25.058
		c-18.685,0-34.304,12.742-38.81,29.992c-0.933-0.079-1.866-0.117-2.798-0.117c-16.472,0-29.836,13.325-29.836,29.835
		c0,16.474,13.364,29.839,29.836,29.839c10.217,0,83.488-0.116,96.308-0.116c18.997,0,35.508-16.515,35.508-35.512
		C256.86,363.188,241.477,347.803,222.479,347.803L222.479,347.803z M222.479,347.803"/>
	<path fill="#FFFFFF" d="M122.286,231.682c1.398,10.526,10.373,18.337,20.979,18.337h53.613c10.606,0,19.581-7.812,20.979-18.337
		l0.233-1.592c0.505-4.08,0.544-8.51,0-12.782c-3.574-26.533-27.933-45.103-54.428-41.605
		c-26.495,3.532-45.144,27.893-41.569,54.388L122.286,231.682z M122.286,231.682"/>
	<path fill="#FFFFFF" d="M204.297,134.218c0,18.91-15.346,34.217-34.226,34.217c-18.92,0-34.227-15.308-34.227-34.217
		c0-18.928,15.307-34.235,34.227-34.235C188.952,99.982,204.297,115.29,204.297,134.218L204.297,134.218z M204.297,134.218"/>
	<path fill="#FFFFFF" d="M395.941,299.823v-20.436c0-8.505-6.76-15.381-15.228-15.381c-8.508,0-15.269,6.876-15.269,15.381v20.436
		c0,8.509,6.76,15.384,15.269,15.384C389.182,315.207,395.941,308.332,395.941,299.823L395.941,299.823z M395.941,299.823"/>
	<path fill="#FFFFFF" d="M154.415,279.388v20.436c0,8.509,6.798,15.384,15.268,15.384c8.468,0,15.268-6.875,15.268-15.384v-20.436
		c0-8.505-6.799-15.381-15.268-15.381C161.213,264.006,154.415,270.883,154.415,279.388L154.415,279.388z M154.415,279.388"/>
	<path fill="#FFFFFF" d="M281.491,184.945c0-8.458-6.875-15.227-15.384-15.227h-20.435c-8.508,0-15.384,6.77-15.384,15.227
		c0,8.521,6.875,15.27,15.384,15.27h20.435C274.615,200.214,281.491,193.466,281.491,184.945L281.491,184.945z M281.491,184.945"/>
	<path fill="#FFFFFF" d="M302.975,341.507h-20.436c-8.506,0-15.384,6.762-15.384,15.27c0,8.471,6.878,15.231,15.384,15.231h20.436
		c8.468,0,15.384-6.76,15.384-15.231C318.321,348.269,311.443,341.507,302.975,341.507L302.975,341.507z M302.975,341.507"/>
	<g>
		<path fill="#FFFFFF" d="M404.138,322.824h-47.512c-12.315,0-22.3,9.983-22.3,22.336v86.091c0,12.318,9.984,22.339,22.3,22.339
			h47.512c12.316,0,22.3-10.021,22.3-22.339V345.16C426.438,332.807,416.455,322.824,404.138,322.824L404.138,322.824z
			 M380.791,437.661c-5.517,0-9.984-4.506-9.984-10.023c0-5.515,4.468-9.983,9.984-9.983c5.515,0,10.023,4.468,10.023,9.983
			C390.814,433.155,386.306,437.661,380.791,437.661L380.791,437.661z M380.791,437.661"/>
		<path fill="#FFFFFF" d="M435.025,106.354H325.74c-15.462,0-28.088,12.468-28.088,27.933v70.833
			c0,15.451,12.626,28.195,28.088,28.195h9.324c0.194,11.12,9.13,19.773,20.125,19.773h50.388c10.956,0,19.93-8.653,20.125-19.773
			h9.324c15.461,0,28.087-12.744,28.087-28.195v-70.833C463.112,118.822,450.486,106.354,435.025,106.354L435.025,106.354z
			 M442.715,205.079c0,4.226-3.457,7.413-7.69,7.413H325.74c-4.195,0-7.69-3.188-7.69-7.413v-70.792c0-4.226,3.495-7.527,7.69-7.527
			h109.285c4.195,0,7.69,3.301,7.69,7.527V205.079z M442.715,205.079"/>
	</g>
</g>
</svg>
