<?xml version="1.0" encoding="utf-8"?>
<!-- Generator: Adobe Illustrator 16.0.0, SVG Export Plug-In . SVG Version: 6.00 Build 0)  -->
<!DOCTYPE svg PUBLIC "-//W3C//DTD SVG 1.1 Tiny//EN" "http://www.w3.org/Graphics/SVG/1.1/DTD/svg11-tiny.dtd">
<svg version="1.1" baseProfile="tiny" id="Capa_1" xmlns="http://www.w3.org/2000/svg" xmlns:xlink="http://www.w3.org/1999/xlink"
	 x="0px" y="0px" width="558px" height="558px" viewBox="0 0 558 558" xml:space="preserve">
<circle fill="#E57505" cx="279" cy="279" r="279"/>
<g>
	<path fill="#FFFFFF" d="M342.145,319.858v-56.267c0-9.167-6.096-16.899-14.371-19.272v-6.418c0-26.273-20.951-47.644-46.708-47.644
		c-25.752,0-46.703,21.37-46.703,47.644v6.418c-8.275,2.373-14.37,10.106-14.37,19.272v56.267c0,11.051,8.842,20.038,19.715,20.038
		h82.723C333.303,339.896,342.145,330.91,342.145,319.858L342.145,319.858z M281.065,213.179c13.116,0,23.788,11.09,23.788,24.723
		v5.651h-47.57v-5.651C257.283,224.269,267.948,213.179,281.065,213.179L281.065,213.179z M319.224,316.976h-76.312v-50.502h76.312
		V316.976z M319.224,316.976"/>
	<path fill="#FFFFFF" d="M412.68,396.806c0.106-0.145,0.205-0.296,0.302-0.454c0.095-0.138,0.179-0.284,0.263-0.435
		c0.102-0.169,0.19-0.336,0.279-0.504c0.073-0.146,0.141-0.286,0.207-0.432c0.084-0.185,0.168-0.369,0.241-0.553
		c0.062-0.146,0.111-0.292,0.163-0.437c0.066-0.19,0.133-0.388,0.189-0.582c0.045-0.157,0.084-0.313,0.123-0.476
		c0.045-0.185,0.096-0.375,0.129-0.565c0.039-0.197,0.066-0.397,0.095-0.599c0.022-0.157,0.05-0.314,0.063-0.47
		c0.038-0.37,0.061-0.74,0.061-1.108V106.522c0-6.329-5.136-11.46-11.46-11.46H154.668c-6.33,0-11.462,5.131-11.462,11.46v344.955
		c0,6.329,5.132,11.46,11.462,11.46h193.877c0.402,0,0.807-0.022,1.204-0.067c0.056-0.005,0.117-0.017,0.179-0.029
		c0.336-0.038,0.67-0.088,0.996-0.155c0.072-0.018,0.14-0.039,0.213-0.056c0.313-0.073,0.626-0.153,0.928-0.252
		c0.091-0.028,0.174-0.062,0.258-0.095c0.281-0.096,0.56-0.195,0.828-0.313c0.106-0.05,0.213-0.106,0.324-0.162
		c0.235-0.112,0.471-0.225,0.699-0.358c0.129-0.073,0.248-0.153,0.377-0.226c0.2-0.122,0.396-0.25,0.587-0.385
		c0.134-0.095,0.263-0.196,0.391-0.291c0.175-0.134,0.347-0.275,0.517-0.419c0.127-0.112,0.25-0.224,0.373-0.341
		c0.162-0.151,0.318-0.308,0.471-0.472c0.063-0.065,0.14-0.133,0.202-0.2l54.788-61.292c0.051-0.056,0.1-0.123,0.15-0.184
		c0.111-0.129,0.219-0.264,0.32-0.399C412.461,397.103,412.572,396.958,412.68,396.806L412.68,396.806z M166.127,117.983h225.747
		v260.749h-43.329c-6.329,0-11.46,5.132-11.46,11.46v49.826H166.127V117.983z M377.717,401.652l-17.711,19.81v-19.81H377.717z
		 M377.717,401.652"/>
</g>
</svg>
