<?xml version="1.0" encoding="utf-8"?>
<!-- Generator: Adobe Illustrator 16.0.0, SVG Export Plug-In . SVG Version: 6.00 Build 0)  -->
<!DOCTYPE svg PUBLIC "-//W3C//DTD SVG 1.1 Tiny//EN" "http://www.w3.org/Graphics/SVG/1.1/DTD/svg11-tiny.dtd">
<svg version="1.1" baseProfile="tiny" id="Capa_1" xmlns="http://www.w3.org/2000/svg" xmlns:xlink="http://www.w3.org/1999/xlink"
	 x="0px" y="0px" width="558px" height="558px" viewBox="0 0 558 558" xml:space="preserve">
<circle fill="#E57505" cx="279" cy="279" r="279"/>
<g>
	<g>
		<path fill="#FFFFFF" d="M236.802,190.281c-36.16,0-65.684,29.438-65.684,65.68c0,8.238-6.078,15.758-14.238,16.801
			c-23.52,3.039-41.199,23.117-41.199,46.801c0,26.078,21.199,47.277,47.281,47.277H395.04c26.078,0,47.281-21.199,47.281-47.277
			c0-26.082-20.242-47.281-47.281-47.281c-12.48,0-18.559-3.84-20.398-13.84c-4-20.879-21.043-36.16-42.242-36.16
			c-6.641,0-13.039,1.52-19.039,4.48c-7.52,3.758-16.559,1.199-21.039-5.922C280.161,201.719,259.438,190.281,236.802,190.281
			L236.802,190.281z M395.118,399.48H162.962c-44.082,0-79.922-35.84-79.922-79.918c0-35.443,23.441-66.16,56.398-76.32
			c6.48-48.48,47.68-85.602,97.441-85.602c29.281,0,56.48,12.801,75.039,34.879c6.641-1.918,13.52-2.879,20.48-2.879
			c32.719,0,60.801,20.559,71.199,50.398c40.082,4.242,71.441,38.32,71.441,79.523C475.04,363.563,439.2,399.48,395.118,399.48
			L395.118,399.48z M395.118,399.48"/>
	</g>
</g>
</svg>
