<?xml version="1.0" encoding="utf-8"?>
<!-- Generator: Adobe Illustrator 21.0.2, SVG Export Plug-In . SVG Version: 6.00 Build 0)  -->
<svg version="1.2" baseProfile="tiny" id="Capa_1" xmlns="http://www.w3.org/2000/svg" xmlns:xlink="http://www.w3.org/1999/xlink"
	 x="0px" y="0px" viewBox="0 0 1024 1024" xml:space="preserve">
<circle fill="#E57505" cx="512" cy="512" r="512"/>
<path fill="#FFFFFF" d="M641.7,262c-5.9,0.1-12.2,1.4-18,3.9L289.4,413.6c-17.4,7.7-27.7,25.1-27.3,43c13.3-12,30.7-19.5,50-19.5
	h35.2l6.2-14.8L587,319l19.5,6.2c0.4,1.7,0,3.8,0.8,5.5c6.1,13.8,23.3,19.9,38.3,13.3c1.8-0.8,3.1-2,4.7-3.1l19.5,6.2l35.9,81.2
	l-3.9,8.6H712c16.4,0,31.4,5.1,43.7,14.1l-71.9-161.7C676.2,272,659.5,261.7,641.7,262z M627.6,387c-3.8,0.2-8,0.7-11.7,2.3
	c-15,6.6-22.5,23.7-16.4,37.5c2,4.6,6.2,7.5,10.2,10.2h32c12.2-7.6,18-21.8,12.5-34.4C649.6,392.2,639.1,386.5,627.6,387z
	 M511.2,401.8c-8.7,0.4-18,2.5-26.6,6.2c-14.3,6.3-25.5,16.7-32.8,28.9h120.3C561.2,413.8,537.2,400.6,511.2,401.8z M312,462
	c-27.6,0-50,22.4-50,50v200c0,27.6,22.4,50,50,50h400c27.6,0,50-22.4,50-50V512c0-27.6-22.4-50-50-50H312z M372.2,498.7h279.7
	l16.4,15.6c-0.4,1.9-1.6,3.4-1.6,5.5c0,16.5,14.9,29.7,32.8,29.7c2.2,0,4.2-0.4,6.2-0.8l16.4,14.8v96.9l-16.4,14.8
	c-2.1-0.3-4-0.8-6.2-0.8c-17.9,0-32.8,13.1-32.8,29.7c0,2,1.1,4.3,1.6,6.2l-16.4,14.8H372.2l-16.4-15.6c0.4-1.9,1.6-3.4,1.6-5.5
	c0-16.5-14.9-29.7-32.8-29.7c-2.2,0-4.2,0.4-6.2,0.8l-16.4-14.8v-96.9l16.4-14.8c2.1,0.3,4,0.8,6.2,0.8c17.9,0,32.8-13.1,32.8-29.7
	c0-2-1.1-3.5-1.6-5.5L372.2,498.7z M510.4,542.5c-41.4,0-75,31.3-75,69.5c0,38.2,33.6,69.5,75,69.5s75-31.3,75-69.5
	C585.4,573.8,551.9,542.5,510.4,542.5z M374.5,582.3c-17.9,0-32.8,13.1-32.8,29.7s14.9,29.7,32.8,29.7s32.8-13.1,32.8-29.7
	S392.4,582.3,374.5,582.3z M649.5,582.3c-17.9,0-32.8,13.1-32.8,29.7s14.9,29.7,32.8,29.7s32.8-13.1,32.8-29.7
	S667.4,582.3,649.5,582.3z"/>
</svg>
