<?xml version="1.0" encoding="utf-8"?>
<!-- Generator: Adobe Illustrator 16.0.0, SVG Export Plug-In . SVG Version: 6.00 Build 0)  -->
<!DOCTYPE svg PUBLIC "-//W3C//DTD SVG 1.1 Tiny//EN" "http://www.w3.org/Graphics/SVG/1.1/DTD/svg11-tiny.dtd">
<svg version="1.1" baseProfile="tiny" id="Capa_1" xmlns="http://www.w3.org/2000/svg" xmlns:xlink="http://www.w3.org/1999/xlink"
	 x="0px" y="0px" width="558px" height="558px" viewBox="0 0 558 558" xml:space="preserve">
<circle fill="#E57505" cx="279" cy="279" r="279"/>
<g>
	<path fill="#FFFFFF" d="M457.083,162.539H100.955c-8.535,0-15.416,6.883-15.416,15.417v202.138c0,8.486,6.881,15.367,15.416,15.367
		h356.128c8.498,0,15.378-6.881,15.378-15.367V177.956C472.461,169.422,465.581,162.539,457.083,162.539L457.083,162.539z
		 M266.498,201.041h152.085c8.499,0,15.378,5.188,15.378,11.542c0,6.393-6.879,11.542-15.378,11.542H266.498
		c-8.535,0-15.414-5.149-15.414-11.542C251.084,206.229,257.963,201.041,266.498,201.041L266.498,201.041z M214.5,349.253h-82.754
		c-8.533,0-15.414-4.736-15.414-10.565c0-5.864,6.881-10.602,15.414-10.602H214.5c8.535,0,15.414,4.737,15.414,10.602
		C229.914,344.517,223.035,349.253,214.5,349.253L214.5,349.253z M229.914,293.466c0,8.488-6.879,15.368-15.414,15.368h-82.754
		c-8.533,0-15.414-6.88-15.414-15.368v-82.799c0-8.497,6.881-15.414,15.414-15.414H214.5c8.535,0,15.414,6.917,15.414,15.414
		V293.466z M266.498,254.956h152.085c8.499,0,15.378,5.153,15.378,11.543c0,6.354-6.879,11.542-15.378,11.542H266.498
		c-8.535,0-15.414-5.188-15.414-11.542C251.084,260.109,257.963,254.956,266.498,254.956L266.498,254.956z M420.501,330.001H268.417
		c-8.498,0-15.415-5.149-15.415-11.541c0-6.355,6.917-11.544,15.415-11.544h152.084c8.496,0,15.379,5.188,15.379,11.544
		C435.88,324.852,428.997,330.001,420.501,330.001L420.501,330.001z M420.501,330.001"/>
</g>
</svg>
