<?xml version="1.0" encoding="utf-8"?>
<!-- Generator: Adobe Illustrator 16.0.0, SVG Export Plug-In . SVG Version: 6.00 Build 0)  -->
<!DOCTYPE svg PUBLIC "-//W3C//DTD SVG 1.1 Tiny//EN" "http://www.w3.org/Graphics/SVG/1.1/DTD/svg11-tiny.dtd">
<svg version="1.1" baseProfile="tiny" id="Capa_1" xmlns="http://www.w3.org/2000/svg" xmlns:xlink="http://www.w3.org/1999/xlink"
	 x="0px" y="0px" width="558px" height="558px" viewBox="0 0 558 558" xml:space="preserve">
<circle fill="#E57505" cx="279" cy="279" r="279"/>
<g>
	<g>
		<path fill="#FFFFFF" d="M448.295,277.682c0-2.636,1.058-8.766,10.854-8.766h16.739c7.236,0,2.135-6.069,2.135-6.069
			l-45.643-72.002c-0.158-0.177-2.475-2.939-4.716,0.396l-45.101,71.322c0,0-5.657,6.353,2.1,6.353h16.933
			c5.048,0,10.833,1.221,10.833,10.747c0,81.89-66.91,148.513-149.163,148.513c-82.254,0-149.177-66.923-149.177-149.177
			c0-82.252,66.922-149.172,149.177-149.172c21.991,0,43.154,4.667,62.918,13.875c2.402,1.113,4.94,1.684,7.556,1.684
			c6.951,0,13.336-4.073,16.271-10.364c4.172-8.966,0.285-19.65-8.681-23.829c-24.534-11.432-50.8-17.228-78.064-17.228
			c-102.027,0-185.036,83.004-185.036,185.034c0,102.032,83.009,185.036,185.036,185.036c101.625,0,184.628-82.674,185.024-184.301
			C448.291,279.729,448.295,278.192,448.295,277.682L448.295,277.682z M448.295,277.682"/>
	</g>
	<path fill="#FFFFFF" d="M272.755,288.3c-2.428,0-4.41-1.982-4.41-4.412V209.02c0-2.428-1.989-4.407-4.417-4.407h-16.612
		c-2.425,0-4.408,1.979-4.408,4.407l-0.014,100.313c0,2.421,1.987,4.41,4.417,4.41h98.29c2.428,0,4.415-1.989,4.415-4.41v-16.619
		c0-2.428-1.987-4.414-4.415-4.414H272.755z M272.755,288.3"/>
</g>
</svg>
