<?xml version="1.0" encoding="utf-8"?>
<!-- Generator: Adobe Illustrator 16.0.0, SVG Export Plug-In . SVG Version: 6.00 Build 0)  -->
<!DOCTYPE svg PUBLIC "-//W3C//DTD SVG 1.1 Tiny//EN" "http://www.w3.org/Graphics/SVG/1.1/DTD/svg11-tiny.dtd">
<svg version="1.1" baseProfile="tiny" id="Capa_1" xmlns="http://www.w3.org/2000/svg" xmlns:xlink="http://www.w3.org/1999/xlink"
	 x="0px" y="0px" width="558px" height="558px" viewBox="0 0 558 558" xml:space="preserve">
<circle fill="#E57505" cx="279" cy="279" r="279"/>
<g>
	<path fill="#FFFFFF" d="M394.854,117.172h-57.93c-0.063,0-0.123,0.008-0.188,0.008c-5.218-7.029-13.576-11.594-22.98-11.594
		h-14.972C294.784,98.527,287.254,94,279.001,94c-8.256,0-15.786,4.527-19.785,11.586h-14.972c-9.405,0-17.763,4.564-22.978,11.594
		c-0.068,0-0.127-0.008-0.192-0.008h-57.924c-15.772,0-28.603,12.831-28.603,28.6v289.626c0,15.771,12.83,28.603,28.603,28.603
		h231.703c15.768,0,28.598-12.832,28.598-28.603V145.771C423.452,130.003,410.622,117.172,394.854,117.172L394.854,117.172z
		 M226.506,134.183c0-9.779,7.958-17.733,17.738-17.733h18.44c2.298,0,4.349-1.449,5.12-3.613c1.694-4.773,6.194-7.976,11.197-7.976
		c4.999,0,9.5,3.202,11.192,7.976c0.772,2.164,2.823,3.613,5.121,3.613h18.441c9.783,0,17.741,7.954,17.741,17.733v17.743h-104.99
		V134.183z M412.59,435.397c0,9.784-7.958,17.742-17.737,17.742H163.151c-9.783,0-17.741-7.958-17.741-17.742V145.771
		c0-9.782,7.958-17.737,17.741-17.737h53.166c-0.434,1.98-0.672,4.041-0.672,6.148v23.174c0,2.998,2.43,5.429,5.43,5.429h115.852
		c2.999,0,5.431-2.431,5.431-5.429v-23.174c0-2.107-0.241-4.168-0.676-6.148h53.172c9.779,0,17.737,7.955,17.737,17.737V435.397z
		 M412.59,435.397"/>
	<path fill="#FFFFFF" d="M394.854,140.34h-34.757c-2.999,0-5.431,2.434-5.431,5.432c0,2.997,2.432,5.428,5.431,5.428h29.327v278.77
		H168.58v-278.77h29.324c2.998,0,5.43-2.431,5.43-5.428c0-2.998-2.433-5.432-5.43-5.432h-34.752c-3.003,0-5.43,2.434-5.43,5.432
		v289.626c0,2.997,2.427,5.432,5.43,5.432h231.703c2.998,0,5.43-2.435,5.43-5.432V145.771
		C400.283,142.773,397.851,140.34,394.854,140.34L394.854,140.34z M394.854,140.34"/>
	<path fill="#FFFFFF" d="M279.001,117.172c-1.428,0-2.833,0.574-3.84,1.59c-1.015,1.008-1.59,2.413-1.59,3.841
		c0,1.425,0.575,2.827,1.59,3.836c1.007,1.015,2.412,1.596,3.84,1.596c1.425,0,2.829-0.581,3.836-1.596
		c1.016-1.009,1.594-2.405,1.594-3.836c0-1.428-0.578-2.833-1.594-3.841C281.83,117.746,280.426,117.172,279.001,117.172
		L279.001,117.172z M279.001,117.172"/>
	<path fill="#FFFFFF" d="M186.684,354.304c0,9.38,7.633,17.011,17.011,17.011c9.383,0,17.017-7.631,17.017-17.011
		c0-3.073-0.821-5.949-2.249-8.438l24.922-28.036c2.043,0.873,4.292,1.358,6.654,1.358c4.897,0,9.313-2.087,12.42-5.408
		l34.368,15.624c-0.055,0.569-0.087,1.145-0.087,1.73c0,9.381,7.633,17.015,17.016,17.015s17.017-7.634,17.017-17.015
		c0-5.119-2.273-9.712-5.859-12.831l28.275-68.667c0.366,0.021,0.741,0.038,1.117,0.038c9.381,0,17.016-7.634,17.016-17.018
		c0-9.383-7.634-17.017-17.016-17.017c-9.383,0-17.017,7.634-17.017,17.017c0,5.12,2.273,9.713,5.859,12.832l-28.275,68.669
		c-0.37-0.022-0.741-0.043-1.117-0.043c-4.896,0-9.315,2.081-12.424,5.405l-34.365-15.624c0.056-0.566,0.085-1.145,0.085-1.729
		c0-9.383-7.633-17.017-17.013-17.017c-9.384,0-17.016,7.634-17.016,17.017c0,3.073,0.82,5.952,2.248,8.441l-24.92,28.033
		c-2.044-0.87-4.294-1.355-6.656-1.355C194.316,337.287,186.684,344.921,186.684,354.304L186.684,354.304z M354.305,226.504
		c3.394,0,6.154,2.76,6.154,6.153s-2.76,6.157-6.154,6.157c-3.395,0-6.156-2.764-6.156-6.157S350.91,226.504,354.305,226.504
		L354.305,226.504z M313.755,324.979c3.395,0,6.156,2.76,6.156,6.156c0,3.392-2.761,6.152-6.156,6.152
		c-3.394,0-6.154-2.761-6.154-6.152C307.601,327.738,310.362,324.979,313.755,324.979L313.755,324.979z M250.039,296.014
		c3.39,0,6.151,2.764,6.151,6.154c0,3.395-2.762,6.157-6.151,6.157c-3.394,0-6.155-2.763-6.155-6.157
		C243.883,298.777,246.645,296.014,250.039,296.014L250.039,296.014z M209.851,354.304c0,3.391-2.761,6.151-6.156,6.151
		c-3.391,0-6.151-2.761-6.151-6.151c0-3.394,2.761-6.154,6.151-6.154C207.09,348.149,209.851,350.91,209.851,354.304
		L209.851,354.304z M209.851,354.304"/>
</g>
</svg>
