<?xml version="1.0" encoding="utf-8"?>
<!-- Generator: Adobe Illustrator 16.0.0, SVG Export Plug-In . SVG Version: 6.00 Build 0)  -->
<!DOCTYPE svg PUBLIC "-//W3C//DTD SVG 1.1 Tiny//EN" "http://www.w3.org/Graphics/SVG/1.1/DTD/svg11-tiny.dtd">
<svg version="1.1" baseProfile="tiny" id="Capa_1" xmlns="http://www.w3.org/2000/svg" xmlns:xlink="http://www.w3.org/1999/xlink"
	 x="0px" y="0px" width="558px" height="558px" viewBox="0 0 558 558" xml:space="preserve">
<circle fill="#E57505" cx="279" cy="279" r="279"/>
<g>
	<path fill="#FFFFFF" stroke="#FFFFFF" stroke-width="2" stroke-miterlimit="10" d="M402.039,309.46v-0.011
		c0-21.577-10.508-40.738-26.666-52.656c0.207-2.097,0.322-4.223,0.322-6.349c0-35.005-28.481-63.482-63.49-63.482
		c-9.867,0-19.483,2.266-28.208,6.606c-4.37-14.612-13.837-27.442-26.728-35.943c-1.686-1.113-3.852-1.209-5.63-0.25
		c-1.782,0.956-2.892,2.816-2.892,4.838v63.182c0,3.035,2.459,5.497,5.497,5.497h6.214l-19.627,33.988l-19.624-33.988h6.217
		c3.035,0,5.497-2.462,5.497-5.497V152.68c0-2.824-2.14-5.19-4.952-5.472c-2.306-0.229-4.47-0.34-6.626-0.34
		c-36.05,0-65.383,29.33-65.383,65.383v0.015c-27.643,0.454-49.989,23.08-49.989,50.827c0,28.037,22.808,50.842,50.842,50.842
		h35.209c-6.148,9.778-9.713,21.337-9.713,33.713c0,35.008,28.48,63.486,63.485,63.486h57.964c3.04,0,5.497-2.458,5.497-5.497
		v-66.145c0-3.035-2.457-5.498-5.497-5.498h-6.217l19.626-33.992l19.628,33.992h-6.217c-3.035,0-5.496,2.462-5.496,5.498v66.145
		c0,3.039,2.461,5.497,5.496,5.497h70.612c28.032,0,50.837-22.805,50.837-50.838C452.028,332.544,429.682,309.918,402.039,309.46
		L402.039,309.46z M156.813,302.939c-21.972,0-39.848-17.873-39.848-39.847c0-21.967,17.876-39.84,39.848-39.84
		c1.436,0,2.892,0.079,4.338,0.236c1.643,0.179,3.281-0.394,4.455-1.557c1.177-1.159,1.769-2.791,1.607-4.438
		c-0.168-1.768-0.259-3.533-0.259-5.243c0-29.991,24.402-54.389,54.393-54.389c0.194,0,0.387,0,0.58,0.004v62.033h-10.239
		c-1.965,0-3.779,1.048-4.761,2.748c-0.984,1.7-0.984,3.797,0,5.497l29.145,50.484c0.98,1.7,2.795,2.749,4.76,2.749
		c1.961,0,3.778-1.049,4.759-2.749l29.15-50.484c0.981-1.7,0.981-3.797,0-5.497c-0.979-1.7-2.794-2.748-4.761-2.748h-10.238v-46.143
		c7.896,7.895,13.275,18.106,15.186,29.183c0.314,1.829,1.529,3.371,3.231,4.108c1.704,0.737,3.665,0.565,5.211-0.455
		c8.561-5.651,18.534-8.636,28.835-8.636c28.929,0,52.467,23.517,52.496,52.438c-8.504-4.055-18.013-6.328-28.045-6.328
		c-29.304,0-54.543,19.226-62.663,46.694c-8.726-4.337-18.341-6.603-28.198-6.603c-17.583,0-33.522,7.19-45.029,18.782H156.813z
		 M401.191,400.139h-65.115v-55.15h10.239c1.965,0,3.78-1.049,4.764-2.75c0.98-1.7,0.98-3.796,0-5.497l-29.15-50.484
		c-0.979-1.704-2.794-2.748-4.761-2.748c-1.964,0-3.778,1.044-4.759,2.748l-29.149,50.484c-0.981,1.7-0.981,3.797,0,5.497
		c0.984,1.7,2.799,2.75,4.763,2.75h10.239v55.15h-52.467c-28.941,0-52.49-23.546-52.49-52.492c0-28.943,23.549-52.492,52.49-52.492
		c10.294,0,20.268,2.985,28.842,8.636c1.548,1.023,3.505,1.192,5.208,0.458c1.704-0.737,2.917-2.283,3.232-4.112
		c4.51-26.118,27.042-45.076,53.579-45.076c29.992,0,54.389,24.397,54.389,54.388c0,1.696-0.086,3.464-0.257,5.254
		c-0.158,1.643,0.433,3.271,1.609,4.434c1.175,1.16,2.813,1.732,4.453,1.553c1.47-0.161,2.929-0.24,4.341-0.24
		c21.969,0,39.843,17.873,39.843,39.844C441.034,382.265,423.157,400.139,401.191,400.139L401.191,400.139z M401.191,400.139"/>
</g>
</svg>
