<?xml version="1.0" encoding="utf-8"?>
<!-- Generator: Adobe Illustrator 16.0.0, SVG Export Plug-In . SVG Version: 6.00 Build 0)  -->
<!DOCTYPE svg PUBLIC "-//W3C//DTD SVG 1.1 Tiny//EN" "http://www.w3.org/Graphics/SVG/1.1/DTD/svg11-tiny.dtd">
<svg version="1.1" baseProfile="tiny" id="Capa_1" xmlns="http://www.w3.org/2000/svg" xmlns:xlink="http://www.w3.org/1999/xlink"
	 x="0px" y="0px" width="558px" height="558px" viewBox="0 0 558 558" xml:space="preserve">
<circle fill="#E57505" cx="279" cy="279" r="279"/>
<g>
	<path fill="#FFFFFF" d="M283.356,349.824c-14.671,6.661-30.957,10.375-48.093,10.375c-64.339,0-116.687-52.347-116.687-116.686
		c0-64.344,52.348-116.691,116.687-116.691c64.343,0,116.69,52.348,116.69,116.691c0,28.24-10.088,54.17-26.846,74.373
		c5.77,6.342,12.598,13.49,18.463,19.4c21.809-25.152,35.021-57.949,35.021-93.773c0-79.035-64.295-143.33-143.329-143.33
		c-79.03,0-143.325,64.299-143.325,143.33c0,79.03,64.295,143.324,143.325,143.324c23.716,0,46.104-5.793,65.825-16.03
		C294.95,363.577,288.618,356.092,283.356,349.824L283.356,349.824z M283.356,349.824"/>
	<g>
		<path fill="#FFFFFF" d="M236.383,335.809h1.259c5.44,0,9.849-4.406,9.849-9.847v-12.52c24.158-3.646,39.324-18.235,39.324-38.599
			c0.207-27.678-21.012-36.848-39.324-42.572V191.84c6.755,1.011,13.359,3.158,18.15,6.027c4.604,2.761,10.57,1.328,13.416-3.228
			l0.561-0.896c1.396-2.236,1.839-4.94,1.227-7.503c-0.609-2.564-2.225-4.776-4.482-6.141c-7.924-4.795-18.459-8.16-28.871-9.366
			v-9.673c0-5.441-4.408-9.85-9.849-9.85h-1.259c-5.439,0-9.852,4.408-9.852,9.85v10.217c-22.389,3.585-36.426,17.037-36.426,35.721
			c0,26.199,20.625,35.621,36.426,40.803v44.687c-9.634-1.755-18.934-6.276-25.161-12.492c-3.849-3.84-10.08-3.84-13.921,0.009
			l-0.852,0.852c-1.867,1.863-2.906,4.406-2.883,7.045c0.021,2.639,1.101,5.158,2.996,6.993
			c10.319,9.986,25.007,16.808,39.82,18.772v12.296C226.532,331.402,230.944,335.809,236.383,335.809L236.383,335.809z
			 M247.491,254.416c12.52,4.566,18.459,9.504,18.365,20.281v0.086c0,11.001-10.035,15.487-18.365,17.314V254.416z M211.065,206.998
			c0-8.762,8.225-12.629,15.467-14.339v32.728C214.925,220.548,211.065,215.502,211.065,206.998L211.065,206.998z M211.065,206.998"
			/>
		<path fill="#FFFFFF" d="M464.951,386.887c-3.82-20.59-16.925-39.625-24.397-49.145c-10.133-12.913-23.002-18.098-38.232-15.414
			c-10.88,1.916-22.705,7.838-35.144,17.606c-8.793,6.904-15.431,13.811-18.365,17.03c-7.38-6.358-27.978-27.585-38.095-39.553
			c-5.078-6.012-18.174-18.796-27.949-9.971c-10.522,10.227,4.887,26.931,5.289,27.418l61.826,75.678
			c-0.252,0.334-0.531,0.626-0.852,0.877c-5.928,4.652-23.229-3.901-30.215-8.521c-6.383-4.219-17.136-4.185-22.56,0.068
			c-2.172,1.71-3.374,4.026-3.39,6.532c-0.016,3.604,2.342,7.331,7.003,11.066c0.053,0.045,0.146,0.125,0.28,0.242
			c6.889,5.903,25.574,20.604,50.252,29.652c15.82,5.801,31.234,8.191,45.813,7.107c18.084-1.348,34.939-8.059,50.09-19.953
			C462.555,424.852,468.827,407.785,464.951,386.887L464.951,386.887z M464.951,386.887"/>
	</g>
</g>
</svg>
