<?xml version="1.0" encoding="utf-8"?>
<!-- Generator: Adobe Illustrator 16.0.0, SVG Export Plug-In . SVG Version: 6.00 Build 0)  -->
<!DOCTYPE svg PUBLIC "-//W3C//DTD SVG 1.1 Tiny//EN" "http://www.w3.org/Graphics/SVG/1.1/DTD/svg11-tiny.dtd">
<svg version="1.1" baseProfile="tiny" id="Capa_1" xmlns="http://www.w3.org/2000/svg" xmlns:xlink="http://www.w3.org/1999/xlink"
	 x="0px" y="0px" width="558px" height="558px" viewBox="0 0 558 558" xml:space="preserve">
<circle fill="#E57505" cx="279" cy="275" r="279"/>
<g>
	<path fill="#FFFFFF" d="M170.302,277.136c0-18.634,15.102-33.754,33.731-33.754c18.632,0,33.729,15.12,33.729,33.754
		c0,18.629-15.097,33.729-33.729,33.729C185.403,310.865,170.302,295.765,170.302,277.136L170.302,277.136z M353.967,310.865
		c18.632,0,33.731-15.1,33.731-33.729c0-18.634-15.1-33.754-33.731-33.754s-33.731,15.12-33.731,33.754
		C320.235,295.765,335.335,310.865,353.967,310.865L353.967,310.865z M368.956,322.103h-29.979
		c-20.699,0-37.482,16.783-37.482,37.483v21.304c0,2.379-1.117,4.612-3.021,6.021l-17.954,12.153c-1.3,0.874-3.021,0.86-4.304-0.073
		l-16.671-12.08c-1.901-1.41-3.041-3.642-3.041-6.021v-21.304c0-20.7-16.766-37.483-37.483-37.483h-29.978
		c-20.699,0-37.483,16.783-37.483,37.483v48.849c0,5.106,4.157,9.261,9.264,9.261h0.215c5.106,0,9.264-4.155,9.264-9.261v29.87
		h67.46v-43.121l18.742,13.178l14.207,9.426c5.013,3.35,11.565,3.35,16.599,0l14.185-9.426l18.741-13.178v43.121h67.463v-29.87
		c0,5.106,4.154,9.261,9.261,9.261h0.238c5.106,0,9.243-4.155,9.243-9.261v-48.849C406.44,338.886,389.675,322.103,368.956,322.103
		L368.956,322.103z M353.967,172.168c0,28.994-35.232,52.471-78.721,52.471c-4.649,0-9.17-0.309-13.597-0.819
		c-11.204,12.059-33.258,13.944-33.258,13.944c3.846-7.049,6.335-13.836,7.179-20.336c-23.319-9.094-39.021-25.932-39.021-45.26
		c0-28.97,35.229-52.473,78.696-52.473C318.734,119.695,353.967,143.198,353.967,172.168L353.967,172.168z M254.64,172.168
		c0-6.205-5.033-11.238-11.235-11.238c-6.228,0-11.259,5.033-11.259,11.238c0,6.221,5.031,11.258,11.259,11.258
		C249.606,183.427,254.64,178.389,254.64,172.168L254.64,172.168z M288.371,172.168c0-6.205-5.033-11.238-11.238-11.238
		c-6.221,0-11.258,5.033-11.258,11.238c0,6.221,5.037,11.258,11.258,11.258C283.338,183.427,288.371,178.389,288.371,172.168
		L288.371,172.168z M322.103,172.168c0-6.205-5.033-11.238-11.238-11.238c-6.204,0-11.237,5.033-11.237,11.238
		c0,6.221,5.033,11.258,11.237,11.258C317.069,183.427,322.103,178.389,322.103,172.168L322.103,172.168z M322.103,172.168"/>
</g>
</svg>
