<?xml version="1.0" encoding="utf-8"?>
<!-- Generator: Adobe Illustrator 21.0.2, SVG Export Plug-In . SVG Version: 6.00 Build 0)  -->
<svg version="1.2" baseProfile="tiny" id="Capa_1" xmlns="http://www.w3.org/2000/svg" xmlns:xlink="http://www.w3.org/1999/xlink"
	 x="0px" y="0px" viewBox="0 0 1024 1024" xml:space="preserve">
<circle fill="#E57505" cx="512" cy="512" r="512"/>
<path fill="#FFFFFF" d="M387,265.2c-54.3,26.4-99.2,72.1-125,127.5l40.9,20.9c-15.7,32-24.9,68.3-24.9,106.6
	c0,132,104.5,238.6,233.9,238.6s233.9-106.6,233.9-238.6c0-38.3-9.2-74.6-24.9-106.6l40.9-20.9c-25.8-55.4-70.7-101.1-125-127.5
	L616.5,307c-31.4-16-67-25.3-104.5-25.3S438.9,291,407.5,307L387,265.2z M512,329.3c104.5,0,187.1,84.3,187.1,190.9
	S616.5,711.1,512,711.1s-187.1-84.3-187.1-190.9S407.5,329.3,512,329.3z M488.6,400.9v119.3v9.7l6.6,7.5l70.2,71.6l33.6-34.3
	l-63.6-64.9V400.9H488.6z"/>
</svg>
