<?xml version="1.0" encoding="utf-8"?>
<!-- Generator: Adobe Illustrator 16.0.0, SVG Export Plug-In . SVG Version: 6.00 Build 0)  -->
<!DOCTYPE svg PUBLIC "-//W3C//DTD SVG 1.1 Tiny//EN" "http://www.w3.org/Graphics/SVG/1.1/DTD/svg11-tiny.dtd">
<svg version="1.1" baseProfile="tiny" id="Capa_1" xmlns="http://www.w3.org/2000/svg" xmlns:xlink="http://www.w3.org/1999/xlink"
	 x="0px" y="0px" width="558px" height="558px" viewBox="0 0 558 558" xml:space="preserve">
<circle fill="#E57505" cx="279" cy="279" r="279"/>
<g>
	<path fill="#FFFFFF" d="M453.301,132.721H201.056c-5.977,0-10.821,4.846-10.821,10.82v38.416h-37.918
		c-5.976,0-10.82,4.846-10.82,10.824v36.705h-36.802c-5.976,0-10.82,4.846-10.82,10.82v174.15c0,5.977,4.844,10.822,10.82,10.822
		h252.249c5.977,0,10.821-4.846,10.821-10.822v-36.709h36.797c5.977,0,10.822-4.844,10.822-10.82v-38.414h37.92
		c5.976,0,10.82-4.844,10.82-10.824V143.541C464.125,137.566,459.277,132.721,453.301,132.721L453.301,132.721z M329.321,251.127
		l-98.501,91.178l-98.505-91.178H329.321z M115.517,265.066l32.871,30.428l-32.871,31.115V265.066z M346.125,403.635H115.517
		v-47.492c0.557-0.357,1.092-0.77,1.592-1.242l47.198-44.672l59.16,54.764c2.077,1.92,4.716,2.881,7.354,2.881
		s5.275-0.961,7.349-2.881l59.163-54.764l48.026,45.457c0.245,0.23,0.502,0.447,0.767,0.654V403.635z M346.125,326.609
		l-32.876-31.113l32.876-30.43V326.609z M393.743,356.105h-25.978V240.307c0-5.975-4.844-10.82-10.821-10.82H163.139v-25.885
		h230.604V356.105z M442.48,306.871h-27.096V192.777c0-5.977-4.845-10.82-10.822-10.82H211.875v-27.594H442.48V306.871z
		 M442.48,306.871"/>
</g>
</svg>
