<?xml version="1.0" encoding="utf-8"?>
<!-- Generator: Adobe Illustrator 16.0.0, SVG Export Plug-In . SVG Version: 6.00 Build 0)  -->
<!DOCTYPE svg PUBLIC "-//W3C//DTD SVG 1.1 Tiny//EN" "http://www.w3.org/Graphics/SVG/1.1/DTD/svg11-tiny.dtd">
<svg version="1.1" baseProfile="tiny" id="Capa_1" xmlns="http://www.w3.org/2000/svg" xmlns:xlink="http://www.w3.org/1999/xlink"
	 x="0px" y="0px" width="558px" height="558px" viewBox="0 0 558 558" xml:space="preserve">
<circle fill="#E57505" cx="279" cy="279" r="279"/>
<g>
	<path fill="#FFFFFF" d="M260.412,189.932c-3.614,0-6.546,2.931-6.546,6.543v57.797h-21.372c-3.619,0-6.546,2.932-6.546,6.545
		c0,3.613,2.927,6.545,6.546,6.545h27.918c3.617,0,6.544-2.932,6.544-6.545v-64.343
		C266.956,192.863,264.028,189.932,260.412,189.932L260.412,189.932z M260.412,189.932"/>
	<path fill="#FFFFFF" d="M168.833,260.818c0-3.614-2.932-6.545-6.544-6.545h-18.416c-3.614,0-6.546,2.932-6.546,6.545
		c0,3.613,2.932,6.545,6.546,6.545h18.416C165.9,267.363,168.833,264.431,168.833,260.818L168.833,260.818z M168.833,260.818"/>
	<path fill="#FFFFFF" d="M351.994,260.818c0,3.613,2.932,6.545,6.545,6.545h18.417c3.617,0,6.544-2.932,6.544-6.545
		c0-3.614-2.927-6.545-6.544-6.545H358.54C354.926,254.272,351.994,257.204,351.994,260.818L351.994,260.818z M351.994,260.818"/>
	<path fill="#FFFFFF" d="M260.412,137.732c-3.614,0-6.546,2.928-6.546,6.546v18.412c0,3.613,2.932,6.544,6.546,6.544
		c3.617,0,6.544-2.932,6.544-6.544v-18.412C266.956,140.66,264.028,137.732,260.412,137.732L260.412,137.732z M260.412,137.732"/>
	<path fill="#FFFFFF" d="M260.412,352.4c-3.614,0-6.546,2.928-6.546,6.546v18.412c0,3.617,2.932,6.544,6.546,6.544
		c3.617,0,6.544-2.928,6.544-6.544v-18.412C266.956,355.328,264.028,352.4,260.412,352.4L260.412,352.4z M260.412,352.4"/>
	<path fill="#FFFFFF" d="M162.267,309.926l-6.051,3.496c-3.131,1.807-4.206,5.812-2.399,8.939c1.215,2.1,3.414,3.272,5.677,3.272
		c1.107,0,2.236-0.281,3.269-0.877l6.049-3.494c3.133-1.808,4.206-5.812,2.399-8.938
		C169.405,309.189,165.398,308.12,162.267,309.926L162.267,309.926z M162.267,309.926"/>
	<path fill="#FFFFFF" d="M355.292,212.586c1.112,0,2.237-0.281,3.269-0.876l6.054-3.496c3.128-1.805,4.201-5.812,2.395-8.938
		c-1.807-3.133-5.812-4.202-8.939-2.395l-6.056,3.494c-3.131,1.807-4.206,5.812-2.394,8.94
		C350.832,211.416,353.03,212.586,355.292,212.586L355.292,212.586z M355.292,212.586"/>
	<path fill="#FFFFFF" d="M207.813,156.618c-1.812-3.131-5.812-4.206-8.944-2.394c-3.129,1.806-4.202,5.808-2.395,8.94l3.498,6.054
		c1.21,2.097,3.409,3.273,5.672,3.273c1.112,0,2.236-0.281,3.268-0.878c3.126-1.808,4.202-5.812,2.395-8.939L207.813,156.618z
		 M207.813,156.618"/>
	<path fill="#FFFFFF" d="M208.912,350.023c-3.132-1.807-7.133-0.734-8.94,2.395l-3.498,6.056c-1.807,3.131-0.734,7.132,2.395,8.939
		c1.032,0.598,2.157,0.878,3.268,0.878c2.263,0,4.461-1.172,5.676-3.272l3.493-6.055
		C213.114,355.835,212.039,351.83,208.912,350.023L208.912,350.023z M208.912,350.023"/>
	<path fill="#FFFFFF" d="M311.916,171.612c1.03,0.598,2.155,0.878,3.267,0.878c2.263,0,4.462-1.176,5.676-3.273l3.495-6.054
		c1.805-3.133,0.732-7.134-2.396-8.94c-3.131-1.812-7.132-0.737-8.939,2.394l-3.499,6.055
		C307.714,165.8,308.787,169.805,311.916,171.612L311.916,171.612z M311.916,171.612"/>
	<path fill="#FFFFFF" d="M168.811,200.375l-6.049-3.498c-3.133-1.808-7.138-0.734-8.945,2.399c-1.807,3.127-0.732,7.133,2.399,8.938
		l6.051,3.496c1.035,0.595,2.16,0.876,3.268,0.876c2.261,0,4.462-1.171,5.675-3.271
		C173.017,206.182,171.944,202.182,168.811,200.375L168.811,200.375z M168.811,200.375"/>
	<path fill="#FFFFFF" d="M428.825,296.461c2.459-11.658,3.702-23.624,3.702-35.639c0-94.911-77.208-172.126-172.11-172.126
		c-94.907,0-172.118,77.215-172.118,172.126c0,94.907,77.21,172.116,172.113,172.116c12.443,0,24.807-1.337,36.825-3.962
		c17.188,24.378,45.558,40.327,77.585,40.327c52.317,0,94.88-42.56,94.88-94.877C469.701,342.162,453.509,313.609,428.825,296.461
		L428.825,296.461z M260.412,419.848c-87.684,0-159.022-71.342-159.022-159.025c0-87.693,71.338-159.036,159.022-159.036
		c87.688,0,159.026,71.343,159.026,159.036c0,9.612-0.864,19.187-2.565,28.566c-3.271-1.624-6.65-3.064-10.119-4.31
		c1.312-7.993,1.986-16.128,1.986-24.257c0-81.792-66.537-148.336-148.327-148.336c-81.788,0-148.328,66.544-148.328,148.336
		c0,81.786,66.54,148.328,148.328,148.328c8.492,0,16.972-0.738,25.285-2.166c1.27,3.465,2.735,6.827,4.385,10.091
		C280.356,418.907,270.417,419.848,260.412,419.848L260.412,419.848z M279.94,374.426c0,6.827,0.733,13.486,2.109,19.907
		c-7.121,1.142-14.372,1.727-21.638,1.727c-74.568,0-135.234-60.669-135.234-135.237c0-74.573,60.666-135.247,135.234-135.247
		c74.573,0,135.242,60.674,135.242,135.247c0,6.928-0.534,13.861-1.576,20.687c-6.222-1.287-12.66-1.963-19.256-1.963
		C322.504,279.546,279.94,322.108,279.94,374.426L279.94,374.426z M374.821,456.213c-45.1,0-81.791-36.693-81.791-81.791
		c0-45.1,36.691-81.786,81.791-81.786c45.098,0,81.791,36.687,81.791,81.786C456.612,419.52,419.919,456.213,374.821,456.213
		L374.821,456.213z M374.821,456.213"/>
	<path fill="#FFFFFF" d="M374.821,302.777c-39.509,0-71.649,32.142-71.649,71.649c0,39.504,32.14,71.646,71.649,71.646
		c39.508,0,71.649-32.141,71.649-71.646C446.47,334.918,414.329,302.777,374.821,302.777L374.821,302.777z M374.821,432.981
		c-32.291,0-58.56-26.269-58.56-58.56c0-32.286,26.27-58.555,58.56-58.555c32.29,0,58.559,26.269,58.559,58.555
		C433.38,406.713,407.111,432.981,374.821,432.981L374.821,432.981z M374.821,432.981"/>
	<path fill="#FFFFFF" d="M386.065,356.631c0,3.615,2.931,6.544,6.545,6.544c3.618,0,6.545-2.93,6.545-6.544
		c0-11.151-7.541-20.568-17.791-23.435v-2.6c0-3.613-2.931-6.545-6.543-6.545c-3.619,0-6.546,2.932-6.546,6.545v2.6
		c-10.247,2.867-17.793,12.284-17.793,23.435c0,11.152,7.542,20.569,17.793,23.437v21.275c-2.842-2.04-4.703-5.369-4.703-9.126
		c0-3.614-2.928-6.546-6.546-6.546c-3.612,0-6.544,2.932-6.544,6.546c0,11.149,7.542,20.567,17.793,23.435v2.599
		c0,3.615,2.927,6.546,6.546,6.546c3.612,0,6.543-2.932,6.543-6.546v-2.599c10.25-2.868,17.791-12.285,17.791-23.435
		c0-11.151-7.541-20.569-17.791-23.437v-21.275C384.208,349.546,386.065,352.874,386.065,356.631L386.065,356.631z M363.572,356.631
		c0-3.757,1.861-7.085,4.703-9.126v18.254C365.434,363.718,363.572,360.391,363.572,356.631L363.572,356.631z M386.065,392.217
		c0,3.757-1.857,7.086-4.701,9.126v-18.254C384.208,385.129,386.065,388.458,386.065,392.217L386.065,392.217z M386.065,392.217"/>
</g>
</svg>
