<?xml version="1.0" encoding="utf-8"?>
<!-- Generator: Adobe Illustrator 16.0.0, SVG Export Plug-In . SVG Version: 6.00 Build 0)  -->
<!DOCTYPE svg PUBLIC "-//W3C//DTD SVG 1.1 Tiny//EN" "http://www.w3.org/Graphics/SVG/1.1/DTD/svg11-tiny.dtd">
<svg version="1.1" baseProfile="tiny" id="Capa_1" xmlns="http://www.w3.org/2000/svg" xmlns:xlink="http://www.w3.org/1999/xlink"
	 x="0px" y="0px" width="558px" height="558px" viewBox="0 0 558 558" xml:space="preserve">
<circle fill="#E57505" cx="279" cy="279" r="279"/>
<g>
	<g>
		<path fill="#FFFFFF" d="M430.817,288.918c-2.508-29.135-26.289-52.919-55.493-51.97v-53.733c0-6.369-4.404-11.924-10.637-13.416
			c-30.289-7.249-77.721-25.816-111.666-54.071c-4.406-3.659-10.64-4.268-15.652-1.423c-24.056,13.621-91.406,50.074-113.698,55.428
			c-6.234,1.558-10.638,7.113-10.638,13.482v116.071c0,80.089,58.814,145.203,131.179,145.203c32.933,0,64.37-13.552,88.628-38.146
			c1.151-1.151,2.034-2.508,2.709-3.931h95.676c7.655,0,13.822-6.167,13.822-13.822v-85.85
			C444.233,288.852,430.817,288.918,430.817,288.918L430.817,288.918z M402.97,288.918h-51.769
			c2.171-13.823,12.943-24.324,25.887-24.324C390.027,264.594,400.803,275.095,402.97,288.918L402.97,288.918z M140.68,299.286
			V193.379c29.676-10.773,81.375-38.892,102.179-50.479c32.794,25.003,73.382,42.078,104.819,50.955v52.307
			c-23.172,16.397-24.73,42.756-24.73,42.756c-7.656,0-13.823,6.166-13.823,13.822c0,0,0.069,87.205,0.136,87.884
			c-18.362,16.939-41.333,26.222-65.114,26.222C187.16,416.846,140.68,364.129,140.68,299.286L140.68,299.286z M417.401,374.766
			H336.77v-58.137h80.565v58.137H417.401z M417.401,374.766"/>
	</g>
</g>
</svg>
