<?xml version="1.0" encoding="utf-8"?>
<!-- Generator: Adobe Illustrator 16.0.0, SVG Export Plug-In . SVG Version: 6.00 Build 0)  -->
<!DOCTYPE svg PUBLIC "-//W3C//DTD SVG 1.1 Tiny//EN" "http://www.w3.org/Graphics/SVG/1.1/DTD/svg11-tiny.dtd">
<svg version="1.1" baseProfile="tiny" id="Capa_1" xmlns="http://www.w3.org/2000/svg" xmlns:xlink="http://www.w3.org/1999/xlink"
	 x="0px" y="0px" width="558px" height="558px" viewBox="0 0 558 558" xml:space="preserve">
<circle fill="#E57505" cx="279" cy="277" r="279"/>
<g>
	<path fill="#FFFFFF" d="M417.857,172.819v-46.288H93.803v254.652c0,0,0,46.285,46.288,46.285h289.352
		c0,0,34.754-0.736,34.754-46.285V172.819H417.857z M140.091,404.298c-23.114,0-23.114-23.114-23.114-23.114V149.702H394.74v231.481
		c0,10.625,3.281,18.03,7.803,23.114H140.091z M140.091,404.298"/>
	<rect x="140.091" y="195.987" fill="#FFFFFF" width="231.481" height="23.114"/>
	<rect x="267.417" y="334.829" fill="#FFFFFF" width="81.041" height="23.184"/>
	<rect x="267.417" y="288.557" fill="#FFFFFF" width="104.155" height="23.174"/>
	<rect x="267.417" y="242.274" fill="#FFFFFF" width="104.155" height="23.168"/>
	<rect x="140.091" y="242.274" fill="#FFFFFF" width="104.155" height="115.738"/>
</g>
</svg>
