<?xml version="1.0" encoding="utf-8"?>
<!-- Generator: Adobe Illustrator 16.0.0, SVG Export Plug-In . SVG Version: 6.00 Build 0)  -->
<!DOCTYPE svg PUBLIC "-//W3C//DTD SVG 1.1 Tiny//EN" "http://www.w3.org/Graphics/SVG/1.1/DTD/svg11-tiny.dtd">
<svg version="1.1" baseProfile="tiny" id="Capa_1" xmlns="http://www.w3.org/2000/svg" xmlns:xlink="http://www.w3.org/1999/xlink"
	 x="0px" y="0px" width="558px" height="558px" viewBox="0 0 558 558" xml:space="preserve">
<circle fill="#E57505" cx="279" cy="275" r="279"/>
<g>
	<path fill="#FFFFFF" d="M283.592,224.045v-5.724c0-4.517-3.656-8.171-8.172-8.171c-4.512,0-8.172,3.654-8.172,8.171v5.92
		c-14.539,3.815-25.307,17.2-25.307,33.085c0,15.88,10.768,29.264,25.307,33.081v34.346c-7.086-3.586-13.805-10.244-16.23-13.103
		c-2.905-3.458-8.056-3.905-11.514-0.998c-3.451,2.902-3.898,8.054-0.994,11.515c1.553,1.846,13.694,15.821,28.744,20.088v6.065
		c0,4.511,3.654,8.171,8.172,8.171c4.51,0,8.171-3.66,8.171-8.171v-5.775c14.858-3.589,25.939-17.123,25.939-33.227
		c0-16.103-11.081-29.632-25.939-33.226v-35.015c7.378,2.767,14.071,8.427,16.589,11.029c3.116,3.256,8.282,3.362,11.543,0.25
		c3.261-3.117,3.379-8.293,0.261-11.556C310.506,239.254,298.764,227.411,283.592,224.045L283.592,224.045z M258.283,257.326
		c0-6.687,3.623-12.517,8.965-15.57v31.137C261.906,269.839,258.283,264.008,258.283,257.326L258.283,257.326z M293.194,309.319
		c0,6.943-3.915,12.954-9.603,15.902v-31.792C289.279,296.37,293.194,302.376,293.194,309.319L293.194,309.319z M293.194,309.319"/>
	<path fill="#FFFFFF" d="M406.605,336.893c-8.836,0-16.918,3.271-23.115,8.656l-23.334-15.556
		c7.654-13.848,12.022-29.76,12.022-46.672c0-20.271-6.267-39.097-16.958-54.664l15.74-12.598c5.506,3.56,12.055,5.635,19.088,5.635
		c19.455,0,35.282-15.832,35.282-35.288c0-19.455-15.827-35.287-35.282-35.287c-19.454,0-35.287,15.832-35.287,35.287
		c0,6.495,1.771,12.576,4.84,17.812l-14.74,11.793c-17.594-18.151-42.219-29.457-69.441-29.457
		c-23.754,0-45.529,8.615-62.387,22.865l-31.314-31.032c3.149-5.277,4.964-11.437,4.964-18.018
		c0-19.461-15.827-35.287-35.282-35.287c-19.461,0-35.287,15.826-35.287,35.287c0,19.455,15.826,35.282,35.287,35.282
		c6.965,0,13.459-2.037,18.934-5.532l31.148,30.861c-14.23,16.854-22.816,38.611-22.816,62.34c0,20.599,6.469,39.714,17.486,55.421
		L166.6,363.375c-3.543-1.825-7.549-2.857-11.799-2.857c-14.274,0-25.894,11.614-25.894,25.887
		c0,14.279,11.619,25.893,25.894,25.893c14.278,0,25.887-11.613,25.887-25.893c0-4.059-0.938-7.9-2.612-11.321l28.552-23.796
		c17.551,17.769,41.911,28.797,68.799,28.797c12.639,0,24.721-2.442,35.803-6.874l7.283,14.559
		c-3.969,3.944-6.427,9.397-6.427,15.414c0,11.98,9.746,21.732,21.728,21.732c11.98,0,21.727-9.752,21.727-21.732
		s-9.746-21.727-21.727-21.727c-0.064,0-0.123,0.01-0.182,0.01l-7.795-15.587c9.656-5.921,18.2-13.486,25.24-22.306l22.875,15.252
		c-1.692,4.123-2.629,8.626-2.629,13.353c0,19.455,15.827,35.279,35.283,35.279c19.455,0,35.282-15.825,35.282-35.279
		C441.888,352.72,426.061,336.893,406.605,336.893L406.605,336.893z M390.049,167.467c10.443,0,18.939,8.496,18.939,18.939
		c0,10.449-8.496,18.945-18.939,18.945s-18.944-8.496-18.944-18.945C371.104,175.963,379.605,167.467,390.049,167.467
		L390.049,167.467z M154.801,395.955c-5.268,0-9.551-4.283-9.551-9.55c0-5.261,4.283-9.543,9.551-9.543
		c5.261,0,9.543,4.282,9.543,9.543C164.344,391.672,160.062,395.955,154.801,395.955L154.801,395.955z M339.195,403.185
		c0,2.971-2.415,5.39-5.389,5.39c-2.969,0-5.385-2.421-5.385-5.39c0-2.968,2.416-5.383,5.385-5.383
		C336.78,397.801,339.195,400.216,339.195,403.185L339.195,403.185z M151.4,179.309c-10.449,0-18.943-8.496-18.943-18.938
		c0-10.449,8.494-18.944,18.943-18.944c10.443,0,18.939,8.496,18.939,18.944C170.34,170.813,161.844,179.309,151.4,179.309
		L151.4,179.309z M275.42,363.742c-44.342,0-80.417-36.08-80.417-80.422c0-44.342,36.075-80.423,80.417-80.423
		s80.416,36.082,80.416,80.423C355.836,327.663,319.762,363.742,275.42,363.742L275.42,363.742z M406.605,391.116
		c-10.449,0-18.945-8.493-18.945-18.936c0-10.443,8.496-18.945,18.945-18.945c10.443,0,18.938,8.501,18.938,18.945
		C425.543,382.623,417.049,391.116,406.605,391.116L406.605,391.116z M406.605,391.116"/>
</g>
</svg>
