<?xml version="1.0" encoding="utf-8"?>
<!-- Generator: Adobe Illustrator 16.0.0, SVG Export Plug-In . SVG Version: 6.00 Build 0)  -->
<!DOCTYPE svg PUBLIC "-//W3C//DTD SVG 1.1 Tiny//EN" "http://www.w3.org/Graphics/SVG/1.1/DTD/svg11-tiny.dtd">
<svg version="1.1" baseProfile="tiny" id="Capa_1" xmlns="http://www.w3.org/2000/svg" xmlns:xlink="http://www.w3.org/1999/xlink"
	 x="0px" y="0px" width="558px" height="558px" viewBox="0 0 558 558" xml:space="preserve">
<circle fill="#E57505" cx="279" cy="279" r="279"/>
<g>
	<g>
		<path fill="#FFFFFF" d="M288.045,212.61c-3.121,3.125-3.121,8.187,0.004,11.312s8.191,3.125,11.313,0l6.605-6.608
			c2.375-2.375,3.016-5.985,1.598-9.033c-4.41-9.471-6.645-19.269-6.645-29.125c0-20.065,8.734-38.961,23.465-52.019l0.023,52.371
			c0.004,2.621,1.289,5.078,3.449,6.574l37.953,26.28c2.742,1.899,6.367,1.899,9.109,0.004l37.969-26.269
			c2.16-1.495,3.449-3.952,3.449-6.581l-0.008-52.365c14.73,13.043,23.465,31.927,23.469,51.97c0,18.555-7.223,35.995-20.34,49.114
			c-13.105,13.112-30.527,20.328-49.059,20.328h-0.055c-6.375-0.004-18.895-3.095-23.18-4.283c-2.777-0.772-5.758,0.013-7.797,2.052
			l-24.324,24.319c-3.121,3.125-3.121,8.192,0,11.317c1.563,1.563,3.609,2.344,5.656,2.344s4.098-0.781,5.66-2.344l21.082-21.082
			c5.875,1.453,15.98,3.673,22.891,3.677h0.066c22.805,0,44.246-8.884,60.375-25.017c16.137-16.142,25.023-37.599,25.023-60.426
			c-0.008-30.746-16.691-59.259-43.539-74.41c-2.477-1.397-5.508-1.375-7.965,0.06c-2.457,1.432-3.969,4.062-3.965,6.909
			l0.004,63.644l-29.969,20.736l-29.957-20.746l-0.031-63.654c0-2.842-1.512-5.471-3.969-6.905
			c-2.453-1.435-5.488-1.453-7.965-0.056c-26.844,15.164-43.523,43.697-43.523,74.453c0,10.392,1.984,20.685,5.906,30.677
			L288.045,212.61z M288.045,212.61"/>
		<path fill="#FFFFFF" d="M266.865,318.84l-110.98,110.98c-4.168,4.172-9.715,6.473-15.609,6.477h-0.012
			c-5.895,0-11.438-2.301-15.609-6.469c-4.168-4.172-6.461-9.727-6.453-15.633c0.004-5.891,2.301-11.418,6.477-15.582l95.457-95.461
			c3.121-3.125,3.121-8.191,0-11.316c-3.125-3.121-8.191-3.121-11.316,0l-95.445,95.457c-7.191,7.168-11.16,16.715-11.172,26.883
			c-0.012,10.188,3.941,19.762,11.137,26.965c7.195,7.195,16.758,11.156,26.926,11.156h0.02c10.172-0.008,19.73-3.973,26.918-11.164
			l110.977-110.98c3.125-3.125,3.125-8.188,0-11.313S269.986,315.715,266.865,318.84L266.865,318.84z M266.865,318.84"/>
	</g>
	<path fill="#FFFFFF" d="M140.15,404.48c-2.637,0.004-5.109,1.031-6.938,2.871c-3.848,3.82-3.867,10.066-0.043,13.918
		c0.008,0.008,0.02,0.02,0.027,0.027c1.918,1.914,4.434,2.867,6.949,2.867c2.527,0,5.055-0.961,6.984-2.887
		c3.832-3.848,3.82-10.09-0.008-13.906c-1.859-1.863-4.332-2.891-6.965-2.891H140.15z M140.15,404.48"/>
	<path fill="#FFFFFF" d="M401.705,363.926c-0.828-0.828-1.828-1.465-2.93-1.863l-22.941-8.316l-82.871-82.875l13.395-13.39
		c3.125-3.125,3.125-8.192,0-11.317c-2.371-2.371-5.859-2.941-8.77-1.716L172.244,119.116c-7.582-7.604-17.68-11.799-28.43-11.812
		h-0.047c-10.75,0-20.855,4.181-28.461,11.777c-7.613,7.612-11.801,17.731-11.797,28.487c0.008,10.754,4.199,20.865,11.805,28.465
		l125.348,125.341c-1.227,2.91-0.656,6.398,1.715,8.77c3.125,3.125,8.191,3.125,11.313,0l13.391-13.391l82.875,82.871l8.316,22.941
		c0.398,1.102,1.035,2.102,1.863,2.93l46.5,46.5c1.563,1.559,3.609,2.34,5.656,2.34s4.098-0.781,5.656-2.34l30.258-30.258
		c1.5-1.5,2.344-3.535,2.344-5.656s-0.844-4.156-2.344-5.656L401.705,363.926z M275.994,265.215
		c-0.02,0.017-0.035,0.035-0.055,0.051l-24.379,24.383l-124.934-124.93c-4.586-4.582-7.113-10.676-7.117-17.155
		c-0.004-6.481,2.523-12.578,7.109-17.164c4.578-4.576,10.668-7.095,17.148-7.095h0.027c6.477,0.009,12.551,2.531,17.125,7.117
		l124.938,124.931l-9.813,9.812C276.029,265.18,276.01,265.198,275.994,265.215L275.994,265.215z M412.291,435.023l-39.582-39.582
		l-8.32-22.945c-0.398-1.098-1.035-2.102-1.863-2.93l-84.129-84.125l3.254-3.254l84.129,84.129c0.828,0.828,1.828,1.465,2.93,1.863
		l22.941,8.316l39.582,39.586L412.291,435.023z M412.291,435.023"/>
	<path fill="#FFFFFF" d="M149.385,141.86c-3.121-3.125-8.188-3.125-11.313,0s-3.125,8.19,0,11.315l110.359,110.358
		c1.563,1.56,3.609,2.345,5.66,2.345c2.047,0,4.094-0.785,5.656-2.345c3.121-3.125,3.121-8.19,0-11.315L149.385,141.86z
		 M149.385,141.86"/>
</g>
</svg>
