<?xml version="1.0" encoding="utf-8"?>
<!-- Generator: Adobe Illustrator 16.0.0, SVG Export Plug-In . SVG Version: 6.00 Build 0)  -->
<!DOCTYPE svg PUBLIC "-//W3C//DTD SVG 1.1 Tiny//EN" "http://www.w3.org/Graphics/SVG/1.1/DTD/svg11-tiny.dtd">
<svg version="1.1" baseProfile="tiny" id="Capa_1" xmlns="http://www.w3.org/2000/svg" xmlns:xlink="http://www.w3.org/1999/xlink"
	 x="0px" y="0px" width="558px" height="558px" viewBox="0 0 558 558" xml:space="preserve">
<circle fill="#E57505" cx="279" cy="279" r="279"/>
<g>
	<path fill="#FFFFFF" d="M331.922,295.52c-3.074,0-5.566,2.488-5.566,5.562v100.138H137.207V156.435h61.195
		c3.073,0,5.565-2.491,5.565-5.562c0-3.073-2.492-5.565-5.565-5.565h-61.195v-5.562c0-15.338,12.479-27.816,27.816-27.816h133.516
		c3.074,0,5.566-2.492,5.566-5.565c0-3.069-2.492-5.563-5.566-5.563H165.023c-21.473,0-38.943,17.472-38.943,38.944v278.162
		c0,21.474,17.47,38.943,38.943,38.943h133.516c21.475,0,38.944-17.47,38.944-38.943V301.081
		C337.483,298.008,334.994,295.52,331.922,295.52L331.922,295.52z M298.539,445.725H165.023c-15.337,0-27.816-12.479-27.816-27.816
		v-5.565h189.148v5.565C326.355,433.246,313.877,445.725,298.539,445.725L298.539,445.725z M298.539,445.725"/>
	<path fill="#FFFFFF" d="M242.907,423.471h-22.251c-3.073,0-5.565,2.492-5.565,5.564c0,3.07,2.492,5.563,5.565,5.563h22.251
		c3.073,0,5.565-2.492,5.565-5.563C248.473,425.963,245.98,423.471,242.907,423.471L242.907,423.471z M242.907,423.471"/>
	<path fill="#FFFFFF" d="M194.466,124.684c-1.036,1.035-1.626,2.475-1.626,3.935c0,1.461,0.591,2.899,1.626,3.936
		s2.469,1.626,3.936,1.626s2.9-0.59,3.935-1.626c1.039-1.036,1.63-2.469,1.63-3.936s-0.591-2.899-1.63-3.935
		c-1.035-1.036-2.468-1.626-3.935-1.626S195.502,123.647,194.466,124.684L194.466,124.684z M194.466,124.684"/>
	<path fill="#FFFFFF" d="M248.473,195.379h33.378c3.073,0,5.565-2.492,5.565-5.566c0-3.069-2.492-5.562-5.565-5.562h-33.378
		c-3.073,0-5.565,2.492-5.565,5.562C242.907,192.887,245.399,195.379,248.473,195.379L248.473,195.379z M248.473,195.379"/>
	<path fill="#FFFFFF" d="M393.115,184.251h-89.01c-3.073,0-5.566,2.492-5.566,5.562c0,3.074,2.493,5.566,5.566,5.566h89.01
		c3.073,0,5.566-2.492,5.566-5.566C398.682,186.743,396.188,184.251,393.115,184.251L393.115,184.251z M393.115,184.251"/>
	<path fill="#FFFFFF" d="M393.115,212.067h-33.378c-3.073,0-5.565,2.492-5.565,5.562c0,3.074,2.492,5.566,5.565,5.566h33.378
		c3.073,0,5.566-2.492,5.566-5.566C398.682,214.56,396.188,212.067,393.115,212.067L393.115,212.067z M393.115,212.067"/>
	<path fill="#FFFFFF" d="M248.473,223.195h89.011c3.073,0,5.565-2.492,5.565-5.566c0-3.069-2.492-5.562-5.565-5.562h-89.011
		c-3.073,0-5.565,2.492-5.565,5.562C242.907,220.703,245.399,223.195,248.473,223.195L248.473,223.195z M248.473,223.195"/>
	<path fill="#FFFFFF" d="M393.115,156.435H248.473c-3.073,0-5.565,2.492-5.565,5.562c0,3.074,2.492,5.566,5.565,5.566h144.643
		c3.073,0,5.566-2.492,5.566-5.566C398.682,158.927,396.188,156.435,393.115,156.435L393.115,156.435z M393.115,156.435"/>
	<g>
		<path fill="#FFFFFF" d="M393.115,239.884H248.473c-3.073,0-5.565,2.492-5.565,5.562c0,3.074,2.492,5.566,5.565,5.566h144.643
			c3.073,0,5.566-2.492,5.566-5.566C398.682,242.376,396.188,239.884,393.115,239.884L393.115,239.884z M393.115,239.884"/>
		<path fill="#FFFFFF" d="M393.115,123.058H248.473c-21.474,0-38.944,17.469-38.944,38.938v83.449
			c0,19.586,14.533,35.84,33.378,38.546v20.347c0,4.516,2.696,8.553,6.869,10.278c1.385,0.573,2.835,0.855,4.271,0.855
			c2.89,0,5.722-1.131,7.854-3.267l27.816-27.816h103.397c21.474,0,38.943-17.469,38.943-38.943v-83.449
			C432.059,140.526,414.589,123.058,393.115,123.058L393.115,123.058z M420.932,245.445c0,15.338-12.479,27.816-27.816,27.816
			H287.416c-1.477,0-2.893,0.588-3.936,1.63l-29.446,29.442v-25.506c0-3.073-2.489-5.566-5.562-5.566
			c-15.338,0-27.816-12.479-27.816-27.816v-83.449c0-15.337,12.479-27.816,27.816-27.816h144.643
			c15.338,0,27.816,12.479,27.816,27.816V245.445z M420.932,245.445"/>
	</g>
</g>
</svg>
