<?xml version="1.0" encoding="utf-8"?>
<!-- Generator: Adobe Illustrator 21.0.2, SVG Export Plug-In . SVG Version: 6.00 Build 0)  -->
<svg version="1.2" baseProfile="tiny" id="Capa_1" xmlns="http://www.w3.org/2000/svg" xmlns:xlink="http://www.w3.org/1999/xlink"
	 x="0px" y="0px" viewBox="0 0 1024 1024" xml:space="preserve">
<circle fill="#E57505" cx="512" cy="512" r="512"/>
<path fill="#FFFFFF" d="M446.8,262.2v43.4h130.3v-43.4H446.8z M672.8,296.9l-31.2,30.5l54.3,56.3l31.2-29.9L672.8,296.9z M512,327.4
	c-120.2,0-217.2,97-217.2,217.2s97,217.2,217.2,217.2s217.2-97,217.2-217.2S632.2,327.4,512,327.4z M512,370.8
	c97,0,173.7,76.7,173.7,173.7S609,718.3,512,718.3s-173.7-76.7-173.7-173.7S415,370.8,512,370.8z M490.3,414.3V588h43.4V414.3H490.3
	z"/>
</svg>
