<?xml version="1.0" encoding="utf-8"?>
<!-- Generator: Adobe Illustrator 16.0.0, SVG Export Plug-In . SVG Version: 6.00 Build 0)  -->
<!DOCTYPE svg PUBLIC "-//W3C//DTD SVG 1.1 Tiny//EN" "http://www.w3.org/Graphics/SVG/1.1/DTD/svg11-tiny.dtd">
<svg version="1.1" baseProfile="tiny" id="Capa_1" xmlns="http://www.w3.org/2000/svg" xmlns:xlink="http://www.w3.org/1999/xlink"
	 x="0px" y="0px" width="558px" height="558px" viewBox="0 0 558 558" xml:space="preserve">
<circle fill="#E57505" cx="279" cy="279" r="279"/>
<g>
	<path fill="#FFFFFF" d="M210.771,114.037h-22.772v68.266h22.772V114.037z M324.513,136.815h-91.025v22.778h91.025V136.815z
		 M415.49,136.815h-22.717v22.778h22.717c12.551,0,22.771,10.157,22.771,22.709v216.104c0,12.551-10.221,22.771-22.771,22.771
		H142.51c-12.551,0-22.771-10.221-22.771-22.771V182.303c0-12.552,10.221-22.709,22.771-22.709h22.771v-22.778H142.51
		c-25.103,0-45.488,20.39-45.488,45.487v216.104c0,25.16,20.386,45.557,45.488,45.557h272.98c25.157,0,45.488-20.396,45.488-45.557
		V182.303C460.979,157.205,440.647,136.815,415.49,136.815L415.49,136.815z M370.001,114.037h-22.771v68.266h22.771V114.037z
		 M370.001,114.037"/>
	<path fill="#FFFFFF" d="M187.998,227.789c-12.551,0-22.717,10.221-22.717,22.771c0,12.559,10.166,22.771,22.717,22.771
		c12.553,0,22.772-10.213,22.772-22.771C210.771,238.01,200.605,227.789,187.998,227.789L187.998,227.789z M279.031,227.789
		c-12.559,0-22.772,10.221-22.772,22.771c0,12.559,10.214,22.771,22.772,22.771c12.551,0,22.709-10.213,22.709-22.771
		C301.74,238.01,291.582,227.789,279.031,227.789L279.031,227.789z M370.001,273.332c12.552,0,22.772-10.213,22.772-22.771
		c0-12.551-10.221-22.771-22.772-22.771s-22.771,10.221-22.771,22.771C347.229,263.119,357.449,273.332,370.001,273.332
		L370.001,273.332z M187.998,318.818c-12.551,0-22.717,10.179-22.717,22.717c0,12.551,10.166,22.771,22.717,22.771
		c12.553,0,22.772-10.221,22.772-22.771C210.771,328.997,200.605,318.818,187.998,318.818L187.998,318.818z M279.031,318.818
		c-12.559,0-22.772,10.179-22.772,22.717c0,12.551,10.214,22.771,22.772,22.771c12.551,0,22.709-10.221,22.709-22.771
		C301.74,328.997,291.582,318.818,279.031,318.818L279.031,318.818z M370.001,318.818c-12.552,0-22.771,10.179-22.771,22.717
		c0,12.551,10.22,22.771,22.771,22.771s22.772-10.221,22.772-22.771C392.773,328.997,382.553,318.818,370.001,318.818
		L370.001,318.818z M370.001,318.818"/>
</g>
</svg>
