<?xml version="1.0" encoding="utf-8"?>
<!-- Generator: Adobe Illustrator 16.0.0, SVG Export Plug-In . SVG Version: 6.00 Build 0)  -->
<!DOCTYPE svg PUBLIC "-//W3C//DTD SVG 1.1 Tiny//EN" "http://www.w3.org/Graphics/SVG/1.1/DTD/svg11-tiny.dtd">
<svg version="1.1" baseProfile="tiny" id="Capa_1" xmlns="http://www.w3.org/2000/svg" xmlns:xlink="http://www.w3.org/1999/xlink"
	 x="0px" y="0px" width="558px" height="558px" viewBox="0 0 558 558" xml:space="preserve">
<circle fill="#E57505" cx="279" cy="279" r="279"/>
<g>
	<path fill="#FFFFFF" d="M432.602,141.798H413V128.6c0-3.312-2.688-6-6-6s-6,2.688-6,6v13.198h-52V128.6c0-3.312-2.688-6-6-6
		s-6,2.688-6,6v13.198h-52V128.6c0-3.312-2.688-6-6-6s-6,2.688-6,6v13.198h-52V128.6c0-3.312-2.688-6-6-6s-6,2.688-6,6v13.198h-52
		V128.6c0-3.312-2.688-6-6-6s-6,2.688-6,6v13.198h-19.598c-17.426,0-31.602,14.177-31.602,31.603v230.398
		c0,17.426,14.176,31.602,31.602,31.602h307.199c17.422,0,31.598-14.176,31.598-31.602V173.4
		C464.199,155.975,450.023,141.798,432.602,141.798L432.602,141.798z M125.402,153.798H145v13.199c0,3.317,2.688,6,6,6s6-2.683,6-6
		v-13.199h52v13.199c0,3.317,2.688,6,6,6s6-2.683,6-6v-13.199h52v13.199c0,3.317,2.688,6,6,6s6-2.683,6-6v-13.199h52v13.199
		c0,3.317,2.688,6,6,6s6-2.683,6-6v-13.199h52v13.199c0,3.317,2.688,6,6,6s6-2.683,6-6v-13.199h19.602
		c10.805,0,19.598,8.793,19.598,19.603v19.597H105.801V173.4C105.801,162.591,114.594,153.798,125.402,153.798L125.402,153.798z
		 M432.602,423.4H125.402c-10.809,0-19.602-8.793-19.602-19.602V204.997h346.398v198.802
		C452.199,414.607,443.406,423.4,432.602,423.4L432.602,423.4z M432.602,423.4"/>
	<path fill="#FFFFFF" d="M407,231.4H151c-10.367,0-18.801,8.433-18.801,18.801v128c0,10.363,8.434,18.796,18.801,18.796h256
		c10.367,0,18.801-8.433,18.801-18.796v-128C425.801,239.833,417.367,231.4,407,231.4L407,231.4z M343.402,308.201H285v-26.402
		h58.402V308.201z M355.402,281.799h58.398v26.402h-58.398V281.799z M285,269.798V243.4h58.402v26.397H285z M273,269.798h-58.398
		V243.4H273V269.798z M273,281.799v26.402h-58.398v-26.402H273z M202.602,308.201h-58.402v-26.402h58.402V308.201z M144.199,320.201
		h58.402V346.6h-58.402V320.201z M214.602,320.201H273V346.6h-58.398V320.201z M273,358.6v26.397h-58.398V358.6H273z M285,358.6
		h58.402v26.397H285V358.6z M285,346.6v-26.398h58.402V346.6H285z M355.402,320.201h58.398V346.6h-58.398V320.201z M413.801,250.201
		v19.597h-58.398V243.4H407C410.75,243.4,413.801,246.451,413.801,250.201L413.801,250.201z M151,243.4h51.602v26.397h-58.402
		v-19.597C144.199,246.451,147.25,243.4,151,243.4L151,243.4z M144.199,378.201V358.6h58.402v26.397H151
		C147.25,384.997,144.199,381.947,144.199,378.201L144.199,378.201z M407,384.997h-51.598V358.6h58.398v19.602
		C413.801,381.947,410.75,384.997,407,384.997L407,384.997z M407,384.997"/>
</g>
</svg>
