<?xml version="1.0" encoding="utf-8"?>
<!-- Generator: Adobe Illustrator 21.0.2, SVG Export Plug-In . SVG Version: 6.00 Build 0)  -->
<svg version="1.2" baseProfile="tiny" id="Capa_1" xmlns="http://www.w3.org/2000/svg" xmlns:xlink="http://www.w3.org/1999/xlink"
	 x="0px" y="0px" viewBox="0 0 1024 1024" xml:space="preserve">
<circle fill="#E57505" cx="512" cy="512" r="512"/>
<path fill="#FFFFFF" d="M512,281c-72.7,0-132,59.4-132,132v22c-24.3,0-44,19.7-44,44v220c0,24.3,19.7,44,44,44h264
	c24.3,0,44-19.7,44-44V479c0-24.3-19.7-44-44-44v-22C644,340.4,584.6,281,512,281z M512,325c48.8,0,88,39.2,88,88v22H424v-22
	C424,364.1,463.1,325,512,325z M512,501c48.6,0,88,39.4,88,88s-39.4,88-88,88s-88-39.4-88-88S463.4,501,512,501z M512,545
	c-24.3,0-44,19.7-44,44c0,24.3,19.7,44,44,44s44-19.7,44-44c0-4.5-0.8-9-2.1-13.1c-3.5,7.5-11.1,13.1-19.9,13.1
	c-12.1,0-22-9.9-22-22c0-8.8,5.5-16.4,13.1-19.9C521,545.8,516.5,545,512,545z"/>
</svg>
