<?xml version="1.0" encoding="utf-8"?>
<!-- Generator: Adobe Illustrator 16.0.0, SVG Export Plug-In . SVG Version: 6.00 Build 0)  -->
<!DOCTYPE svg PUBLIC "-//W3C//DTD SVG 1.1 Tiny//EN" "http://www.w3.org/Graphics/SVG/1.1/DTD/svg11-tiny.dtd">
<svg version="1.1" baseProfile="tiny" id="Capa_1" xmlns="http://www.w3.org/2000/svg" xmlns:xlink="http://www.w3.org/1999/xlink"
	 x="0px" y="0px" width="558px" height="558px" viewBox="0 0 558 558" xml:space="preserve">
<circle fill="#E57505" cx="279" cy="279" r="279"/>
<g>
	<path fill="#FFFFFF" stroke="#FFFFFF" stroke-width="8" stroke-miterlimit="10" d="M363.7,221.216
		c-1.675-44.73-38.583-80.604-83.716-80.604c-45.13,0-82.036,35.874-83.717,80.604c-14.756,1.29-26.377,13.714-26.377,28.8v112.223
		c0,15.943,12.97,28.918,28.922,28.918l162.348,0.005c15.945,0,28.917-12.979,28.917-28.923V250.016
		C390.077,234.93,378.461,222.506,363.7,221.216L363.7,221.216z M279.984,147.576c41.254,0,75.012,32.688,76.744,73.52h-19.747
		c-1.714-29.955-26.62-53.798-56.997-53.798s-55.283,23.843-56.995,53.798h-19.75C204.976,180.267,238.734,147.576,279.984,147.576
		L279.984,147.576z M330.004,221.102H229.971c1.701-26.116,23.479-46.841,50.014-46.841
		C306.521,174.261,328.296,194.985,330.004,221.102L330.004,221.102z M383.113,254.416h-24.779c-1.928,0-3.482,1.563-3.482,3.482
		c0,1.924,1.555,3.482,3.482,3.482h24.779v92.623h-40.534c-1.923,0-3.484,1.559-3.484,3.482c0,1.92,1.562,3.479,3.484,3.479h40.534
		v1.272c0,12.11-9.85,21.959-21.953,21.959H198.813c-12.109,0-21.957-9.849-21.957-21.959v-77.226h12.123
		c1.922,0,3.484-1.556,3.484-3.483c0-1.923-1.563-3.477-3.484-3.477h-12.123v-16.672h45.882c1.923,0,3.479-1.559,3.479-3.482
		s-1.557-3.482-3.479-3.482h-45.882v-4.4c0-12.108,9.848-21.955,21.957-21.955H361.16c12.104,0,21.953,9.847,21.953,21.955V254.416z
		 M383.113,254.416"/>
	<path fill="#FFFFFF" stroke="#FFFFFF" stroke-width="8" stroke-miterlimit="10" d="M279.984,257.259
		c-15.123,0-27.424,12.303-27.424,27.425c0,9.062,4.542,17.565,11.971,22.649v39.198c0,6.042,4.918,10.964,10.965,10.964h8.975
		c6.051,0,10.965-4.922,10.965-10.964v-39.202c7.433-5.08,11.973-13.584,11.973-22.651
		C307.408,269.562,295.105,257.259,279.984,257.259L279.984,257.259z M290.213,302.396c-1.076,0.628-1.74,1.773-1.74,3.017v41.119
		c0,2.204-1.791,3.998-4.002,3.998h-8.975c-2.203,0-4.002-1.794-4.002-3.998v-41.119c0-1.243-0.663-2.389-1.736-3.017
		c-6.311-3.653-10.23-10.442-10.23-17.712c0-11.281,9.174-20.463,20.457-20.463c11.281,0,20.459,9.182,20.459,20.463
		C300.443,291.953,296.525,298.742,290.213,302.396L290.213,302.396z M290.213,302.396"/>
	<path fill="#FFFFFF" stroke="#FFFFFF" stroke-width="8" stroke-miterlimit="10" d="M459.037,259.48c-2.022,0-3.971,0.318-5.807,0.9
		l-67.142-133.587c3.425-3.474,5.541-8.239,5.541-13.487c0-10.609-8.626-19.238-19.232-19.238c-9.29,0-17.056,6.616-18.849,15.385
		H202.197c-1.787-8.769-9.555-15.385-18.844-15.385c-10.609,0-19.234,8.629-19.234,19.238c0,5.331,2.181,10.163,5.702,13.652
		l-66.54,133.018c-1.389-0.318-2.83-0.496-4.32-0.496c-10.604,0-19.232,8.63-19.232,19.239c0,10.606,8.629,19.231,19.232,19.231
		c1.556,0,3.063-0.188,4.514-0.541l67.311,132.741c-4.08,3.534-6.666,8.735-6.666,14.539c0,10.609,8.625,19.241,19.234,19.241
		c9.684,0,17.712-7.191,19.039-16.517h150.963c1.327,9.325,9.362,16.517,19.042,16.517c10.606,0,19.232-8.632,19.232-19.241
		c0-5.472-2.3-10.414-5.984-13.921l67.523-133.735c1.847,0.601,3.82,0.922,5.868,0.922c10.605,0,19.234-8.63,19.234-19.236
		C478.271,268.11,469.643,259.48,459.037,259.48L459.037,259.48z M372.397,101.033c6.769,0,12.272,5.505,12.272,12.273
		c0,6.765-5.509,12.269-12.272,12.269c-6.767,0-12.272-5.504-12.272-12.269C360.125,106.538,365.631,101.033,372.397,101.033
		L372.397,101.033z M183.354,101.033c6.767,0,12.27,5.505,12.27,12.273c0,6.765-5.503,12.269-12.27,12.269
		c-6.768,0-12.273-5.504-12.273-12.269C171.08,106.538,176.586,101.033,183.354,101.033L183.354,101.033z M86.691,278.72
		c0-6.77,5.506-12.272,12.27-12.272c6.769,0,12.274,5.503,12.274,12.272c0,6.762-5.506,12.27-12.274,12.27
		C92.197,290.989,86.691,285.481,86.691,278.72L86.691,278.72z M183.354,456.963c-6.768,0-12.273-5.501-12.273-12.272
		c0-6.761,5.506-12.269,12.273-12.269c6.767,0,12.27,5.508,12.27,12.269C195.623,451.462,190.12,456.963,183.354,456.963
		L183.354,456.963z M372.397,456.963c-6.767,0-12.272-5.501-12.272-12.272c0-6.761,5.506-12.269,12.272-12.269
		c6.769,0,12.272,5.508,12.272,12.269C384.67,451.462,379.166,456.963,372.397,456.963L372.397,456.963z M379.781,426.935
		c-2.277-0.946-4.77-1.479-7.384-1.479c-9.149,0-16.823,6.425-18.759,14.999H202.112c-1.937-8.574-9.609-14.999-18.759-14.999
		c-2.303,0-4.508,0.412-6.555,1.153l-66.957-132.037c5.042-3.471,8.357-9.283,8.357-15.855c0-6.644-3.386-12.51-8.521-15.969
		l65.953-131.832c2.363,1.039,4.974,1.621,7.723,1.621c9.545,0,17.486-6.991,18.979-16.119h151.083
		c1.492,9.128,9.435,16.119,18.982,16.119c2.823,0,5.508-0.615,7.925-1.713l66.762,132.838c-4.43,3.528-7.283,8.961-7.283,15.055
		c0,6.071,2.828,11.487,7.237,15.014L379.781,426.935z M459.037,290.992c-6.766,0-12.273-5.511-12.273-12.272
		c0-6.77,5.511-12.272,12.273-12.272c6.766,0,12.272,5.503,12.272,12.272C471.31,285.481,465.803,290.992,459.037,290.992
		L459.037,290.992z M459.037,290.992"/>
</g>
</svg>
