<?xml version="1.0" encoding="utf-8"?>
<!-- Generator: Adobe Illustrator 16.0.0, SVG Export Plug-In . SVG Version: 6.00 Build 0)  -->
<!DOCTYPE svg PUBLIC "-//W3C//DTD SVG 1.1 Tiny//EN" "http://www.w3.org/Graphics/SVG/1.1/DTD/svg11-tiny.dtd">
<svg version="1.1" baseProfile="tiny" id="Capa_1" xmlns="http://www.w3.org/2000/svg" xmlns:xlink="http://www.w3.org/1999/xlink"
	 x="0px" y="0px" width="558px" height="558px" viewBox="0 0 558 558" xml:space="preserve">
<circle fill="#E57505" cx="279" cy="279" r="279"/>
<g>
	<g>
		<path fill="#FFFFFF" d="M488.412,312.668l-72.204-174.331c-0.981-2.364-2.862-4.246-5.229-5.228c-2.371-0.982-5.033-0.982-7.397,0
			l-240.452,99.596c-2.365,0.982-4.246,2.864-5.229,5.235c-0.981,2.364-0.981,5.026,0,7.392l72.224,174.331
			c1.542,3.719,5.141,5.964,8.928,5.964c1.233,0,2.484-0.232,3.693-0.736l240.438-99.596
			C488.117,323.25,490.456,317.6,488.412,312.668L488.412,312.668z M337.712,314.121l-146.983-71.929l200.049-82.861
			L337.712,314.121z M339.058,336.293c1.334,0.654,2.787,0.986,4.246,0.986c1.253,0,2.51-0.245,3.699-0.736
			c2.562-1.063,4.543-3.17,5.443-5.795l20.703-60.408l83.233,45.133l-201.629,83.523l26.947-90.771L339.058,336.293z
			 M460.473,295.706l-80.963-43.899l28.424-82.932L460.473,295.706z M185.343,261.073l78.755,38.54l-26.209,88.298L185.343,261.073z
			 M185.343,261.073"/>
	</g>
	<path fill="#FFFFFF" d="M78.512,283.526h56.093c5.334,0,9.664-4.329,9.664-9.663c0-5.341-4.329-9.664-9.664-9.664H78.512
		c-5.336,0-9.663,4.323-9.663,9.664C68.849,279.197,73.176,283.526,78.512,283.526L78.512,283.526z M78.512,283.526"/>
	<path fill="#FFFFFF" d="M174.599,374.076H78.512c-5.336,0-9.663,4.322-9.663,9.664c0,5.334,4.327,9.664,9.663,9.664h96.087
		c5.334,0,9.664-4.33,9.664-9.664C184.262,378.398,179.933,374.076,174.599,374.076L174.599,374.076z M174.599,374.076"/>
	<path fill="#FFFFFF" d="M78.512,338.461h76.092c5.342,0,9.664-4.32,9.664-9.663c0-5.335-4.322-9.662-9.664-9.662H78.512
		c-5.336,0-9.663,4.327-9.663,9.662C68.849,334.141,73.176,338.461,78.512,338.461L78.512,338.461z M78.512,338.461"/>
</g>
</svg>
