<?xml version="1.0" encoding="utf-8"?>
<!-- Generator: Adobe Illustrator 16.0.0, SVG Export Plug-In . SVG Version: 6.00 Build 0)  -->
<!DOCTYPE svg PUBLIC "-//W3C//DTD SVG 1.1 Tiny//EN" "http://www.w3.org/Graphics/SVG/1.1/DTD/svg11-tiny.dtd">
<svg version="1.1" baseProfile="tiny" id="Capa_1" xmlns="http://www.w3.org/2000/svg" xmlns:xlink="http://www.w3.org/1999/xlink"
	 x="0px" y="0px" width="558px" height="558px" viewBox="0 0 558 558" xml:space="preserve">
<circle fill="#E57505" cx="279" cy="279" r="279"/>
<g>
	<path fill="#FFFFFF" d="M146.123,312.213h-14.899c-2.603,0-4.354,1.75-4.354,4.354v21.004c0,2.604,1.752,4.354,4.354,4.354h14.899
		c2.605,0,4.354-1.75,4.354-4.354v-21.004C150.478,313.963,148.729,312.213,146.123,312.213L146.123,312.213z M146.123,312.213"/>
	<path fill="#FFFFFF" d="M146.123,352.428h-14.899c-2.603,0-4.354,1.75-4.354,4.396v20.962c0,2.604,1.752,4.354,4.354,4.354h14.899
		c2.605,0,4.354-1.75,4.354-4.354v-20.962C150.478,354.178,148.729,352.428,146.123,352.428L146.123,352.428z M146.123,352.428"/>
	<path fill="#FFFFFF" d="M176.691,312.213h-14.855c-2.605,0-4.354,1.75-4.354,4.354v21.004c0,2.604,1.749,4.354,4.354,4.354h14.855
		c2.646,0,4.398-1.75,4.398-4.354v-21.004C181.09,313.963,179.338,312.213,176.691,312.213L176.691,312.213z M176.691,312.213"/>
	<path fill="#FFFFFF" d="M176.691,352.428h-14.855c-2.605,0-4.354,1.75-4.354,4.396v20.962c0,2.604,1.749,4.354,4.354,4.354h14.855
		c2.646,0,4.398-1.75,4.398-4.354v-20.962C181.09,354.178,179.338,352.428,176.691,352.428L176.691,352.428z M176.691,352.428"/>
	<path fill="#FFFFFF" d="M381.309,341.071h14.855c2.605,0,4.354-1.75,4.354-4.396v-20.962c0-2.604-1.748-4.354-4.354-4.354h-14.855
		c-2.646,0-4.398,1.75-4.398,4.354v20.962C376.91,339.321,378.662,341.071,381.309,341.071L381.309,341.071z M381.309,341.071"/>
	<path fill="#FFFFFF" d="M381.309,381.287h14.855c2.605,0,4.354-1.75,4.354-4.355v-21.003c0-2.604-1.748-4.354-4.354-4.354h-14.855
		c-2.646,0-4.398,1.75-4.398,4.354v21.003C376.91,379.537,378.662,381.287,381.309,381.287L381.309,381.287z M381.309,381.287"/>
	<path fill="#FFFFFF" d="M411.917,341.071h14.855c2.606,0,4.354-1.75,4.354-4.396v-20.962c0-2.604-1.748-4.354-4.354-4.354h-14.855
		c-2.646,0-4.397,1.75-4.397,4.354v20.962C407.52,339.321,409.271,341.071,411.917,341.071L411.917,341.071z M411.917,341.071"/>
	<path fill="#FFFFFF" d="M411.917,381.287h14.855c2.606,0,4.354-1.75,4.354-4.355v-21.003c0-2.604-1.748-4.354-4.354-4.354h-14.855
		c-2.646,0-4.397,1.75-4.397,4.354v21.003C407.52,379.537,409.271,381.287,411.917,381.287L411.917,381.287z M411.917,381.287"/>
	<path fill="#FFFFFF" d="M458.238,231.779H305.232l-13.107-11.357v-15.748h47.22c7.001,0,13.104-6.109,13.104-13.1v-28.863
		c0-6.996-6.103-13.107-13.104-13.107h-47.22c-1.748-6.152-6.146-10.501-13.104-10.501c-7,0-13.15,6.109-13.15,13.104v68.215
		l-13.104,11.357H99.762c-7.002,0-13.104,6.109-13.104,13.115v160.854c0,7.002,6.102,13.149,13.104,13.149h358.477
		c7.001,0,13.104-6.147,13.104-13.149V244.895C471.342,237.889,465.239,231.779,458.238,231.779L458.238,231.779z M112.868,299.107
		h83.077v93.536h-83.077V299.107z M300.878,307.858h-43.716c-7,0-13.146,6.104-13.146,13.106v72.574h-21.86V292.105l56.866-48.961
		l56.819,48.961v101.434h-21.856v-72.574C313.984,313.109,307.838,307.858,300.878,307.858L300.878,307.858z M445.131,393.539
		h-83.076v-94.432h83.076V393.539z M445.131,393.539"/>
</g>
</svg>
