<?xml version="1.0" encoding="utf-8"?>
<!-- Generator: Adobe Illustrator 21.0.2, SVG Export Plug-In . SVG Version: 6.00 Build 0)  -->
<svg version="1.2" baseProfile="tiny" id="Capa_1" xmlns="http://www.w3.org/2000/svg" xmlns:xlink="http://www.w3.org/1999/xlink"
	 x="0px" y="0px" viewBox="0 0 1024 1024" xml:space="preserve">
<circle fill="#E57505" cx="512" cy="512" r="512"/>
<path fill="#FFFFFF" d="M512,262L277.9,366.2l20.2,45.1L512,316.4l213.8,94.9l20.2-45.1L512,262z M412.5,413.6
	c-70.9,0-124.4,32.1-124.4,74.7V762H736V488.3c0-42.6-53.5-74.7-124.4-74.7c-41.6,0-77.2,11.1-99.5,28.8
	C489.7,424.7,454.1,413.6,412.5,413.6z M412.5,463.4c48.2,0,74.7,18.7,74.7,24.9v216.2c-18.2-10.4-44.6-17.1-74.7-17.1
	c-30,0-56.5,6.7-74.7,17.1V488.3C337.8,482.1,364.3,463.4,412.5,463.4z M611.5,463.4c48.2,0,74.7,18.7,74.7,24.9v216.2
	c-18.2-10.4-44.6-17.1-74.7-17.1c-30,0-56.5,6.7-74.7,17.1V488.3C536.9,482.1,563.4,463.4,611.5,463.4z"/>
</svg>
