<?xml version="1.0" encoding="utf-8"?>
<!-- Generator: Adobe Illustrator 16.0.0, SVG Export Plug-In . SVG Version: 6.00 Build 0)  -->
<!DOCTYPE svg PUBLIC "-//W3C//DTD SVG 1.1 Tiny//EN" "http://www.w3.org/Graphics/SVG/1.1/DTD/svg11-tiny.dtd">
<svg version="1.1" baseProfile="tiny" id="Capa_1" xmlns="http://www.w3.org/2000/svg" xmlns:xlink="http://www.w3.org/1999/xlink"
	 x="0px" y="0px" width="558px" height="558px" viewBox="0 0 558 558" xml:space="preserve">
<circle fill="#E57505" cx="279" cy="279" r="279"/>
<g>
	<path fill="#FFFFFF" d="M301.398,158.367c3.769-4.778,6.1-10.798,6.1-17.337c0-15.458-12.535-28.03-27.993-28.03
		c-15.452,0-28.012,12.573-28.012,28.03c0,6.539,2.001,12.559,5.769,17.337c-11.537,7.316-19.478,20.192-19.478,34.838v34.098
		c0,5.194,4.741,9.696,9.929,9.696h63.663c5.188,0,9.097-4.502,9.097-9.696v-34.098C320.473,178.56,312.936,165.677,301.398,158.367
		L301.398,158.367z M301.398,158.367"/>
	<g>
		<path fill="#FFFFFF" d="M216.484,269.029v-34.104c0-14.646-7.207-27.522-18.75-34.837c3.769-4.772,6.264-10.792,6.264-17.338
			c0-15.452-12.454-28.029-27.913-28.029c-15.452,0-27.969,12.578-27.969,28.029c0,6.546,2.325,12.565,6.094,17.338
			c-11.544,7.315-19.16,20.192-19.16,34.837v34.104c0,5.187,4.136,9.316,9.323,9.316h63.657
			C213.224,278.346,216.484,274.216,216.484,269.029L216.484,269.029z M216.484,269.029"/>
		<path fill="#FFFFFF" d="M404.47,200.088c3.769-4.772,6.271-10.792,6.271-17.338c0-15.452-12.455-28.029-27.907-28.029
			c-15.459,0-27.969,12.578-27.969,28.029c0,6.546,2.307,12.565,6.074,17.338c-11.537,7.315-19.172,20.192-19.172,34.837v34.104
			c0,5.187,4.166,9.316,9.36,9.316h63.656c5.188,0,8.418-4.129,8.418-9.316v-34.104C423.201,220.28,416.007,207.403,404.47,200.088
			L404.47,200.088z M404.47,200.088"/>
	</g>
	<path fill="#FFFFFF" d="M301.398,365.401c3.769-4.778,6.1-10.797,6.1-17.337c0-15.452-12.535-28.029-27.993-28.029
		c-15.452,0-28.012,12.577-28.012,28.029c0,6.54,2.001,12.565,5.769,17.337c-11.537,7.316-19.478,20.193-19.478,34.838v34.104
		c0,5.188,4.741,9.372,9.929,9.372h63.663c5.188,0,9.097-4.184,9.097-9.372v-34.104
		C320.473,385.595,312.936,372.718,301.398,365.401L301.398,365.401z M279.541,338.828c5.097,0,9.237,4.147,9.237,9.237
		c0,5.096-4.141,9.237-9.237,9.237c-5.089,0-9.236-4.142-9.236-9.237C270.305,342.975,274.452,338.828,279.541,338.828
		L279.541,338.828z M301.68,424.923h-45.103v-24.684c0-12.369,10.179-22.432,22.549-22.432c12.369,0,22.554,10.063,22.554,22.432
		V424.923z M301.68,424.923"/>
	<path fill="#FFFFFF" d="M287.897,286.585v-31.137c0-5.193-4.208-9.396-9.396-9.396c-5.194,0-9.396,4.204-9.396,9.396v31.137
		c0,5.194,4.202,9.396,9.396,9.396C283.689,295.981,287.897,291.773,287.897,286.585L287.897,286.585z M287.897,286.585"/>
	<path fill="#FFFFFF" d="M188.1,288.616c-3.769-3.566-9.715-3.401-13.287,0.361c-3.566,3.768-3.401,9.72,0.367,13.287L222.418,347
		c1.823,1.719,4.142,2.576,6.46,2.576c2.489,0,4.979-0.985,6.827-2.936c3.566-3.769,3.4-9.715-0.361-13.287L188.1,288.616z
		 M188.1,288.616"/>
	<path fill="#FFFFFF" d="M370.897,288.488l-47.109,44.834c-3.762,3.578-3.909,9.524-0.33,13.287
		c1.848,1.939,4.325,2.918,6.809,2.918c2.324,0,4.655-0.863,6.472-2.594l47.116-44.834c3.762-3.579,3.909-9.525,0.33-13.281
		C380.606,285.056,374.66,284.909,370.897,288.488L370.897,288.488z M370.897,288.488"/>
</g>
</svg>
