<svg id="Capa_1" data-name="Capa 1" xmlns="http://www.w3.org/2000/svg" viewBox="0 0 1024 1024"><defs><style>.cls-1{fill:#e57505;}.cls-2{fill:#fff;}</style></defs><title>mejor pos</title><circle class="cls-1" cx="512" cy="512" r="512"/><path class="cls-2" d="M512.78,262c-96.27,0-175,78.5-175,175a174.45,174.45,0,0,0,21.09,82.81L262,687l89.84-5.47L391.69,762l89.06-153.12a175.68,175.68,0,0,0,32,3.13,167.65,167.65,0,0,0,30.47-3.12L632.31,762l39.84-80.47L762,687,665.91,520.59A173.59,173.59,0,0,0,687,437C687,340.5,609.06,262,512.78,262ZM512,312c68.7,0,125,56.08,125,125S581.48,562,512.78,562s-125-56.08-125-125S443.3,312,512,312Zm-12.5,25a50.05,50.05,0,0,1-50,50v50c18.3,0,35.23-5.46,50-14.06V537h50V337Z"/></svg>